<svg version="1.1" id="Layer_1" xmlns="http://www.w3.org/2000/svg" xmlns:xlink="http://www.w3.org/1999/xlink" x="0px" y="0px"
	 width="100%" viewBox="0 0 750 1000" enable-background="new 0 0 750 1000" xml:space="preserve">
<path fill="#FC6011" opacity="1.000000" stroke="none" 
	d="
M751.000000,529.000000 
	C751.000000,571.687561 751.000000,614.375122 750.584167,657.519836 
	C739.200012,655.326660 730.286621,659.190735 725.110596,668.839905 
	C720.885376,676.716736 723.117798,687.422363 730.169067,693.661255 
	C736.315857,699.099976 743.324951,700.066711 751.000000,698.000000 
	C751.000000,711.354248 751.000000,724.708435 750.663391,738.669189 
	C746.090088,755.144958 731.278625,765.394531 715.044434,765.189270 
	C671.222046,764.634827 627.388184,765.009827 583.558838,764.971069 
	C580.753174,764.968567 577.842041,764.995789 575.159790,764.307861 
	C558.799255,760.111816 551.015442,748.411377 548.051697,732.676147 
	C540.855347,694.467590 524.338318,661.113647 495.429169,634.739563 
	C446.351135,589.965271 389.338745,577.568298 325.552063,594.637329 
	C310.031158,598.790649 295.875702,606.135254 281.879517,613.739990 
	C276.013153,591.946289 267.995422,571.408325 256.552032,552.380981 
	C242.840652,529.582458 225.411652,509.884247 205.177505,492.620270 
	C184.064926,474.606781 160.008850,461.667786 134.101364,452.305634 
	C114.916718,445.372864 94.985481,441.486786 74.524094,439.788757 
	C56.189816,438.267181 38.139027,439.346466 20.070240,442.032410 
	C13.707060,442.978333 7.356386,444.008362 0.999999,445.000000 
	C1.000000,376.312439 1.000000,307.624878 1.379546,238.512604 
	C15.482129,242.606766 29.523037,245.432251 43.992542,246.007080 
	C44.000000,246.000000 43.985798,246.014801 43.985497,246.442520 
	C43.988319,255.616562 43.444466,264.405640 44.124130,273.099060 
	C45.117348,285.803040 49.073612,297.910980 55.158360,309.026703 
	C66.906723,330.488800 83.819229,346.649933 106.571526,356.275146 
	C125.010033,364.075470 144.178207,367.242249 163.984787,363.748962 
	C189.294174,359.285095 210.901642,347.995392 227.648590,327.951294 
	C247.073227,304.702362 255.419189,278.246735 252.068634,248.083466 
	C249.258743,222.787674 238.249741,201.538391 220.226639,183.896667 
	C215.180878,178.957642 209.186539,174.987686 204.456741,171.231842 
	C211.089569,157.302597 218.549835,143.907257 223.975510,129.733124 
	C233.143356,105.782852 236.998840,80.758064 233.925095,55.084328 
	C232.573212,43.792706 230.508835,32.557274 228.158722,21.424944 
	C226.695160,14.492211 224.091812,7.800102 222.000000,1.000001 
	C259.354218,1.000000 296.708466,1.000000 334.526306,1.448624 
	C336.217560,11.066801 336.594910,20.452505 338.858856,29.358633 
	C342.938141,45.405960 347.551208,61.375240 353.032501,76.994186 
	C360.160706,97.306030 370.471497,116.180794 382.648102,133.909119 
	C396.700714,154.368820 412.566681,173.359207 431.808441,189.206024 
	C442.165466,197.735687 452.621887,206.265625 463.774811,213.680359 
	C481.659210,225.570404 500.858978,235.055557 521.036926,242.642166 
	C551.289490,254.016678 582.581238,259.921204 614.756592,260.826141 
	C627.311890,261.179230 639.925171,259.775848 652.501587,259.001038 
	C672.144531,257.790924 691.187744,253.318222 709.726929,247.052139 
	C723.697144,242.330307 737.257324,236.395081 751.000000,230.999985 
	C751.000000,274.354218 751.000000,317.708466 750.648560,361.500732 
	C749.446533,361.437286 748.614685,360.900513 747.742737,360.439484 
	C734.107300,353.230530 720.967834,344.772430 706.719788,339.099579 
	C679.505920,328.264313 650.967407,326.468445 622.047607,330.958069 
	C587.332886,336.347321 557.409729,351.621368 532.031677,375.612091 
	C509.441254,396.967621 493.959778,422.907166 485.696289,452.885132 
	C482.875824,463.117126 481.492310,473.745209 479.294525,485.000000 
	C570.796875,485.000000 660.898438,485.000000 751.000000,485.000000 
	C751.000000,489.024536 751.000000,493.049103 750.531372,497.541626 
	C656.570129,498.010620 563.077576,498.011566 469.584991,498.013367 
	C467.918488,498.013428 466.217987,497.809021 464.591553,498.066986 
	C458.419739,499.046051 453.063568,501.396576 450.304382,507.538544 
	C447.788330,513.139404 448.672241,518.525818 452.677002,522.863525 
	C457.371704,527.948608 463.903870,528.955872 470.522705,528.957886 
	C564.015137,528.986511 657.507568,528.990234 751.000000,529.000000 
M450.955109,279.696350 
	C444.494751,296.348114 454.569397,311.991241 467.980988,317.103027 
	C482.720184,322.720825 499.514221,315.017303 505.073151,300.200165 
	C510.736694,285.104187 503.059235,268.445038 487.852875,262.834259 
	C473.274353,257.455139 458.828308,263.791260 450.955109,279.696350 
M338.067596,260.251068 
	C340.481262,252.732224 338.349945,246.223557 332.619659,241.352341 
	C326.704437,236.323898 319.774658,235.456360 312.611664,239.176361 
	C305.800110,242.713852 302.945343,248.626266 303.071167,255.953522 
	C303.214050,264.273376 309.630646,271.307709 318.142151,272.838531 
	C324.710846,274.019958 334.974548,270.419342 338.067596,260.251068 
M332.604156,448.359100 
	C332.252777,447.606384 331.937592,446.834137 331.544220,446.104034 
	C328.677551,440.783081 323.036469,437.993591 317.417816,439.099731 
	C312.249054,440.117249 307.735321,444.851532 307.032715,449.992188 
	C306.229126,455.871735 309.161652,461.215973 314.616302,463.812469 
	C324.272583,468.409027 333.322235,461.121857 332.604156,448.359100 
M636.236938,322.769470 
	C646.718201,322.769470 657.199463,322.769470 667.698669,322.769470 
	C667.184204,312.324402 658.277466,304.536316 648.164124,305.003357 
	C638.815369,305.435059 630.106445,314.002747 630.550171,322.923584 
	C632.132385,322.923584 633.746704,322.923584 636.236938,322.769470 
z"/>
<path fill="#FFFFFF" opacity="1.000000" stroke="none" 
	d="
M751.000000,860.000000 
	C751.000000,906.980225 751.000000,953.960449 751.000000,1000.939087 
	C501.000000,1000.937500 250.999985,1000.937500 1.000000,1000.937500 
	C1.000000,954.227966 1.000000,907.580933 1.468657,860.466980 
	C251.624878,860.000000 501.312439,860.000000 751.000000,860.000000 
z"/>
<path fill="#FC7632" opacity="1.000000" stroke="none" 
	d="
M751.000000,230.531326 
	C737.257324,236.395081 723.697144,242.330307 709.726929,247.052139 
	C691.187744,253.318222 672.144531,257.790924 652.501587,259.001038 
	C639.925171,259.775848 627.311890,261.179230 614.756592,260.826141 
	C582.581238,259.921204 551.289490,254.016678 521.036926,242.642166 
	C500.858978,235.055557 481.659210,225.570404 463.774811,213.680359 
	C452.621887,206.265625 442.165466,197.735687 431.808441,189.206024 
	C412.566681,173.359207 396.700714,154.368820 382.648102,133.909119 
	C370.471497,116.180794 360.160706,97.306030 353.032501,76.994186 
	C347.551208,61.375240 342.938141,45.405960 338.858856,29.358633 
	C336.594910,20.452505 336.217560,11.066801 334.994934,1.448624 
	C473.572723,1.000000 612.145447,1.000000 751.000000,1.000000 
	C751.000000,77.353996 751.000000,153.708344 751.000000,230.531326 
z"/>
<path fill="#FC7632" opacity="1.000000" stroke="none" 
	d="
M0.999999,445.468658 
	C7.356386,444.008362 13.707060,442.978333 20.070240,442.032410 
	C38.139027,439.346466 56.189816,438.267181 74.524094,439.788757 
	C94.985481,441.486786 114.916718,445.372864 134.101364,452.305634 
	C160.008850,461.667786 184.064926,474.606781 205.177505,492.620270 
	C225.411652,509.884247 242.840652,529.582458 256.552032,552.380981 
	C267.995422,571.408325 276.013153,591.946289 281.695953,614.017456 
	C247.402618,636.958740 223.431259,667.389038 210.438812,706.133545 
	C206.773956,717.062439 204.965378,728.601135 201.972168,739.770874 
	C197.829681,755.229370 184.913315,764.984436 168.987167,764.990967 
	C123.852226,765.009644 78.717232,764.971802 33.582344,765.026489 
	C27.018435,765.034485 21.304470,762.903931 15.857430,759.413391 
	C8.206126,754.510437 4.305638,747.000671 1.000000,739.000000 
	C1.000000,641.312439 1.000000,543.624878 0.999999,445.468658 
z"/>
<path fill="#FC7632" opacity="1.000000" stroke="none" 
	d="
M221.531342,1.000001 
	C224.091812,7.800102 226.695160,14.492211 228.158722,21.424944 
	C230.508835,32.557274 232.573212,43.792706 233.925095,55.084328 
	C236.998840,80.758064 233.143356,105.782852 223.975510,129.733124 
	C218.549835,143.907257 211.089569,157.302597 204.456741,171.231842 
	C209.186539,174.987686 215.180878,178.957642 220.226639,183.896667 
	C238.249741,201.538391 249.258743,222.787674 252.068634,248.083466 
	C255.419189,278.246735 247.073227,304.702362 227.648590,327.951294 
	C210.901642,347.995392 189.294174,359.285095 163.984787,363.748962 
	C144.178207,367.242249 125.010033,364.075470 106.571526,356.275146 
	C83.819229,346.649933 66.906723,330.488800 55.158360,309.026703 
	C49.073612,297.910980 45.117348,285.803040 44.124130,273.099060 
	C43.444466,264.405640 43.988319,255.616562 44.421341,246.439972 
	C48.145092,246.339401 51.452728,247.078568 54.716396,246.918900 
	C63.136055,246.507050 71.538094,245.720230 79.943909,245.042801 
	C99.224968,243.488953 117.289368,237.496994 134.513397,229.124100 
	C160.766144,216.362183 182.594788,198.121262 200.065262,174.639130 
	C202.515930,171.345184 202.037689,170.059860 198.727829,168.291260 
	C179.056976,157.780228 158.383301,153.141724 135.988846,155.861710 
	C111.285110,158.862183 90.296341,169.267471 72.954224,186.715118 
	C56.686440,203.081848 47.322369,223.159836 43.985085,246.014160 
	C29.523037,245.432251 15.482129,242.606766 1.379546,238.043945 
	C1.000000,159.075500 1.000000,80.151009 1.000000,1.000000 
	C74.354073,1.000000 147.708374,1.000000 221.531342,1.000001 
z"/>
<path fill="#484C4C" opacity="1.000000" stroke="none" 
	d="
M1.000000,739.468628 
	C4.305638,747.000671 8.206126,754.510437 15.857430,759.413391 
	C21.304470,762.903931 27.018435,765.034485 33.582344,765.026489 
	C78.717232,764.971802 123.852226,765.009644 168.987167,764.990967 
	C184.913315,764.984436 197.829681,755.229370 201.972168,739.770874 
	C204.965378,728.601135 206.773956,717.062439 210.438812,706.133545 
	C223.431259,667.389038 247.402618,636.958740 281.841370,614.372559 
	C295.875702,606.135254 310.031158,598.790649 325.552063,594.637329 
	C389.338745,577.568298 446.351135,589.965271 495.429169,634.739563 
	C524.338318,661.113647 540.855347,694.467590 548.051697,732.676147 
	C551.015442,748.411377 558.799255,760.111816 575.159790,764.307861 
	C577.842041,764.995789 580.753174,764.968567 583.558838,764.971069 
	C627.388184,765.009827 671.222046,764.634827 715.044434,765.189270 
	C731.278625,765.394531 746.090088,755.144958 750.663391,739.137817 
	C751.000000,766.354248 751.000000,793.708435 750.644165,821.565002 
	C749.528564,822.381775 748.679382,822.568665 748.022156,823.029358 
	C732.682190,833.783020 715.279053,836.975647 696.537964,837.007324 
	C665.043396,837.005371 634.018188,837.009094 602.530884,837.009521 
	C594.827026,836.331726 587.496521,836.152405 580.362671,834.875244 
	C567.226868,832.523499 555.340454,827.213806 545.451843,817.957336 
	C535.596741,808.732422 529.781982,797.006714 525.080322,784.668518 
	C518.768677,768.105347 513.743652,751.084229 504.881378,735.498291 
	C488.351135,706.426758 464.825745,685.422241 434.061188,672.608276 
	C409.229828,662.265625 383.268036,658.557495 356.623566,662.188232 
	C327.769501,666.120056 301.826721,677.062805 279.305573,696.005310 
	C262.307922,710.302063 249.442322,727.553101 240.726517,747.776306 
	C234.629791,761.922424 229.770111,776.596680 224.099869,790.932983 
	C218.944305,803.967834 211.499405,815.248291 199.546356,823.343262 
	C184.183136,833.747620 167.065689,836.945618 148.537918,837.007324 
	C117.043442,837.005371 86.018250,837.009094 54.530975,837.009521 
	C41.886684,837.126770 29.948191,835.456055 18.632336,830.923218 
	C12.540852,828.483154 6.863950,825.008118 0.999995,822.000000 
	C1.000000,794.645752 1.000000,767.291565 1.000000,739.468628 
z"/>
<path fill="#000000" opacity="1.000000" stroke="none" 
	d="
M751.000000,859.532043 
	C501.312439,860.000000 251.624878,860.000000 1.468657,860.000000 
	C1.000000,854.311951 1.000000,848.623962 1.354338,842.277222 
	C18.123358,849.826294 35.945301,852.797424 53.843304,852.762573 
	C91.871391,852.688599 129.959579,854.997681 167.936508,851.028992 
	C182.732849,849.482788 196.633804,845.384766 209.264603,837.339783 
	C218.804886,831.263306 225.811752,822.832825 230.914062,812.959045 
	C235.053696,804.948364 239.541519,796.795105 241.716568,788.161316 
	C245.765259,772.090210 250.499756,756.480957 259.203857,742.254333 
	C272.724640,720.154968 290.466187,702.511475 313.837067,691.004883 
	C336.400238,679.896057 360.062347,674.829590 385.469849,676.775757 
	C403.344543,678.144897 420.119324,682.531677 436.153229,690.029663 
	C452.692444,697.763916 466.702850,709.012207 478.510712,722.894592 
	C489.379547,735.673035 498.169220,749.711548 503.401581,765.810852 
	C507.993500,779.939575 511.072113,794.493896 517.944458,807.961365 
	C526.952881,825.614990 539.772644,838.244141 558.478088,845.264648 
	C573.546448,850.920166 589.208008,852.710449 604.934875,852.831665 
	C637.858704,853.085571 670.789978,852.319153 703.718689,852.021973 
	C716.505249,851.906616 728.875061,849.577637 740.930847,845.407410 
	C744.279480,844.249023 747.643188,843.134583 751.000000,842.000000 
	C751.000000,847.688049 751.000000,853.376038 751.000000,859.532043 
z"/>
<path fill="#FC7C3B" opacity="1.000000" stroke="none" 
	d="
M751.000000,484.531342 
	C660.898438,485.000000 570.796875,485.000000 479.294525,485.000000 
	C481.492310,473.745209 482.875824,463.117126 485.696289,452.885132 
	C493.959778,422.907166 509.441254,396.967621 532.031677,375.612091 
	C557.409729,351.621368 587.332886,336.347321 622.047607,330.958069 
	C650.967407,326.468445 679.505920,328.264313 706.719788,339.099579 
	C720.967834,344.772430 734.107300,353.230530 747.742737,360.439484 
	C748.614685,360.900513 749.446533,361.437286 750.648560,361.969421 
	C751.000000,402.687561 751.000000,443.375122 751.000000,484.531342 
M626.205078,344.999908 
	C625.224548,345.138123 624.195435,345.129669 623.270569,345.435974 
	C599.471924,353.318298 578.110291,365.540924 559.407654,382.188751 
	C538.955688,400.393799 523.834778,422.464874 513.682068,447.868256 
	C511.023804,454.519531 509.120636,461.472626 506.639404,468.987518 
	C518.627136,468.987518 529.427185,469.069427 540.221191,468.852203 
	C541.225403,468.831970 542.737305,467.074768 543.093384,465.855347 
	C548.608887,446.967224 556.177246,428.930664 565.686218,411.738007 
	C573.497375,397.615051 582.756348,384.500824 593.781128,372.626862 
	C603.679565,361.965942 615.032288,353.136475 627.274170,344.886871 
	C627.185974,344.928650 627.097839,344.970428 626.205078,344.999908 
z"/>
<path fill="#FC7B3A" opacity="1.000000" stroke="none" 
	d="
M751.000000,528.531372 
	C657.507568,528.990234 564.015137,528.986511 470.522705,528.957886 
	C463.903870,528.955872 457.371704,527.948608 452.677002,522.863525 
	C448.672241,518.525818 447.788330,513.139404 450.304382,507.538544 
	C453.063568,501.396576 458.419739,499.046051 464.591553,498.066986 
	C466.217987,497.809021 467.918488,498.013428 469.584991,498.013367 
	C563.077576,498.011566 656.570129,498.010620 750.531372,498.004791 
	C751.000000,508.020905 751.000000,518.041809 751.000000,528.531372 
z"/>
<path fill="#3D3D3D" opacity="1.000000" stroke="none" 
	d="
M751.000000,830.000000 
	C751.000000,831.066772 751.000000,832.133545 750.638672,833.633789 
	C730.561096,844.837952 709.093018,847.029358 687.158203,847.002197 
	C662.493713,846.971680 637.823608,847.307190 613.167236,846.859985 
	C601.288452,846.644531 589.318115,845.730408 577.595276,843.848999 
	C552.521362,839.824951 533.509888,826.589661 522.844177,803.254211 
	C516.787781,790.003418 512.336731,776.015930 507.227081,762.336121 
	C494.637878,728.631348 473.085907,702.610962 440.926727,686.046875 
	C418.739532,674.619019 395.087952,669.684814 369.990631,670.842590 
	C354.067261,671.577148 338.723572,674.274231 323.975006,680.154602 
	C291.840057,692.967163 267.074860,714.353943 252.009872,745.584106 
	C244.395920,761.368103 239.153595,778.302429 232.948441,794.757996 
	C224.355423,817.545776 209.498535,834.332886 185.639694,840.946594 
	C173.482147,844.316589 160.632645,846.396301 148.034164,846.730530 
	C117.391800,847.543396 86.708946,847.286926 56.051945,846.826294 
	C46.205727,846.678284 36.210224,845.316833 26.612068,843.091370 
	C17.843479,841.058167 9.519771,837.106323 0.999998,834.000000 
	C1.000000,832.933228 1.000000,831.866455 1.373674,830.384338 
	C7.175508,832.353210 12.492520,835.043518 18.053179,837.062866 
	C33.238934,842.577454 49.088902,843.322327 65.324310,843.311096 
	C66.249283,843.737122 66.894981,843.961426 67.540878,843.961975 
	C90.125557,843.981934 112.710297,843.995972 135.294830,843.940979 
	C136.515610,843.937988 137.734894,843.330872 139.426086,842.994751 
	C152.087662,841.966309 164.418686,841.771729 176.432388,839.719482 
	C191.119049,837.210693 203.938644,830.274231 214.274017,818.853271 
	C214.755829,818.529663 214.920212,818.255005 215.132904,817.635742 
	C216.539825,815.888184 217.798294,814.425171 219.274048,812.853271 
	C219.755829,812.529663 219.920212,812.255005 220.097961,811.664368 
	C220.493195,810.926331 220.774963,810.444214 221.274017,809.853271 
	C221.755829,809.529663 221.920212,809.255005 221.996887,808.680420 
	C222.009308,808.440430 222.056747,807.962158 222.274017,807.853271 
	C222.755829,807.529663 222.920212,807.255005 223.097961,806.664368 
	C223.493210,805.926331 223.774979,805.444214 224.274017,804.853271 
	C224.755829,804.529663 224.920212,804.255005 224.996887,803.680420 
	C225.009308,803.440430 225.056747,802.962158 225.274017,802.853271 
	C225.755829,802.529663 225.920212,802.255005 225.996887,801.680420 
	C226.009308,801.440430 226.056747,800.962158 226.274017,800.853271 
	C226.755829,800.529663 226.920212,800.255005 226.996887,799.680420 
	C227.009308,799.440430 227.056747,798.962158 227.274017,798.853271 
	C227.755829,798.529663 227.920212,798.255005 227.996918,797.680420 
	C228.009338,797.440430 228.056885,796.962219 228.269226,796.860107 
	C228.741470,796.556946 228.910248,796.296814 228.993652,795.990234 
	C228.999435,796.002869 228.973495,795.991699 229.247070,795.787842 
	C229.673309,794.697083 229.825974,793.810120 229.993256,792.685486 
	C230.007889,792.447815 230.059280,791.974304 230.415512,791.913940 
	C231.173965,790.543274 231.576202,789.232971 231.985229,787.596313 
	C232.010132,786.835022 232.028229,786.400085 232.265625,785.856445 
	C232.752594,785.533081 232.919113,785.257263 232.996918,784.680420 
	C233.009338,784.440430 233.056885,783.962280 233.268280,783.860962 
	C233.736191,783.559143 233.907349,783.301880 233.996567,782.993896 
	C234.000000,783.000000 233.985565,782.994812 234.273407,782.785889 
	C236.034592,777.711121 237.507965,772.845398 238.990967,767.989807 
	C239.000610,768.000000 238.973495,767.991699 239.247070,767.787842 
	C239.673309,766.697083 239.825974,765.810120 239.992874,764.682495 
	C240.007111,764.441833 240.056870,763.962219 240.270767,763.857422 
	C240.743607,763.545532 240.912659,763.280823 240.997986,762.580872 
	C242.321487,759.133179 243.638794,756.063354 245.233154,752.791626 
	C245.666336,751.700867 245.822449,750.811951 245.992798,749.682373 
	C246.007019,749.441772 246.056747,748.962158 246.274017,748.853271 
	C246.755829,748.529663 246.920212,748.255005 246.996887,747.680420 
	C247.009308,747.440430 247.056747,746.962158 247.274017,746.853271 
	C247.755829,746.529663 247.920212,746.255005 247.996887,745.680420 
	C248.009308,745.440430 248.056747,744.962158 248.274017,744.853271 
	C248.755829,744.529663 248.920212,744.255005 248.996887,743.680420 
	C249.009308,743.440430 249.056747,742.962158 249.274017,742.853271 
	C249.755829,742.529663 249.920212,742.255005 249.996887,741.680420 
	C250.009308,741.440430 250.056747,740.962158 250.274017,740.853271 
	C250.755829,740.529663 250.920212,740.255005 250.989380,739.687134 
	C250.994278,739.453979 251.021362,738.988281 251.244476,738.874817 
	C251.639938,738.481018 251.812271,738.200684 251.989471,737.687134 
	C251.994324,737.453979 252.021362,736.988281 252.244476,736.874817 
	C252.639938,736.481018 252.812271,736.200684 253.098053,735.664368 
	C253.493240,734.926331 253.774994,734.444214 254.274017,733.853271 
	C254.755829,733.529663 254.920212,733.255005 254.989380,732.687134 
	C254.994278,732.453979 255.021362,731.988281 255.244476,731.874817 
	C255.639908,731.481018 255.812241,731.200684 256.094940,730.668335 
	C256.477325,729.940308 256.749329,729.464294 257.244507,728.874878 
	C257.639984,728.481079 257.812317,728.200745 258.094971,727.668335 
	C258.477325,726.940247 258.749329,726.464294 259.245850,725.873291 
	C259.643494,725.475220 259.816711,725.192139 260.107697,724.654724 
	C260.788666,723.926147 261.351837,723.451904 262.274170,722.937622 
	C263.081421,721.905457 263.529510,720.913330 264.098175,719.666260 
	C264.785889,718.935791 265.353058,718.460327 266.160278,717.886719 
	C266.597565,717.511963 266.794830,717.235413 267.021332,716.615173 
	C274.264160,707.627441 281.869690,699.421570 292.193359,693.882446 
	C292.613708,693.488647 292.799316,693.204529 293.090027,692.711914 
	C293.396851,692.250854 293.653748,692.082458 294.190643,691.898682 
	C294.699036,691.608154 294.889984,691.348938 295.244934,690.911377 
	C295.989624,690.533569 296.477722,690.265869 297.190643,689.898682 
	C297.699036,689.608154 297.889984,689.348938 298.221130,689.007935 
	C298.453888,688.994385 298.920135,688.984375 299.149170,688.898560 
	C299.671356,688.636780 299.866058,688.384766 300.217377,687.941589 
	C300.955048,687.545837 301.437592,687.265198 302.154480,686.893860 
	C302.588684,686.542603 302.788513,686.282043 303.221130,686.007935 
	C303.453888,685.994446 303.920135,685.984558 304.154480,685.893860 
	C304.588654,685.542603 304.788483,685.281982 305.221100,685.007935 
	C305.453888,684.994385 305.920135,684.984497 306.151978,684.896545 
	C306.677887,684.627869 306.878265,684.373352 307.218323,684.024231 
	C307.451782,684.003357 307.920135,683.984375 308.149170,683.898560 
	C308.671356,683.636780 308.866058,683.384766 309.201477,683.031494 
	C309.440704,683.006287 309.920898,682.977539 310.280701,682.982544 
	C311.424805,682.339478 312.209137,681.691528 313.224762,681.023193 
	C313.456085,681.002808 313.920135,680.984375 314.149170,680.898560 
	C314.671356,680.636780 314.866058,680.384766 315.201294,680.032959 
	C315.440338,680.009216 315.920135,679.984375 316.149170,679.898560 
	C316.671356,679.636780 316.866058,679.384766 317.201294,679.032959 
	C317.440308,679.009216 317.920074,678.984375 318.150299,678.897278 
	C318.674683,678.631531 318.869629,678.376892 319.290985,678.032166 
	C320.051147,678.006775 320.485657,677.995605 321.149170,677.898560 
	C321.671356,677.636780 321.866058,677.384766 322.201935,677.031738 
	C322.441620,677.006714 322.922760,676.978516 323.270905,676.985840 
	C324.409912,676.653259 325.200806,676.313416 325.995850,675.986816 
	C326.000000,676.000000 325.979370,675.981201 326.320984,675.987305 
	C327.438934,675.653503 328.215240,675.313477 328.995789,674.986755 
	C329.000000,675.000000 328.979370,674.981201 329.320984,674.987305 
	C330.438934,674.653442 331.215240,674.313477 331.995789,673.986755 
	C332.000000,674.000000 331.979370,673.981201 332.320984,673.987305 
	C333.438934,673.653503 334.215240,673.313538 334.996094,672.986755 
	C335.000610,673.000000 334.979767,672.981506 335.348694,672.989014 
	C336.809204,672.655579 337.900787,672.314697 338.996399,671.986877 
	C339.000366,672.000000 338.980042,671.981750 339.399597,671.989014 
	C342.543579,671.322144 345.268005,670.647949 347.996704,669.986938 
	C348.001007,670.000000 347.980255,669.981934 348.431458,669.989136 
	C357.906494,669.330017 366.930756,668.136414 375.954071,668.143250 
	C385.309692,668.150391 394.664398,669.320557 404.009155,669.990967 
	C403.998779,670.000000 404.007599,669.973755 404.243164,670.264038 
	C407.325684,671.030151 410.172638,671.505981 413.009216,671.990906 
	C412.998779,672.000000 413.008423,671.973572 413.209259,672.245483 
	C414.286713,672.674561 415.163300,672.831726 416.442047,672.987061 
	C417.823151,673.121399 418.843048,673.125061 419.775146,673.412964 
	C441.203979,680.032043 459.995087,691.164062 476.140900,706.700134 
	C478.704803,709.167297 480.732361,712.191833 483.117493,715.193359 
	C483.511261,715.613770 483.795471,715.799316 484.351257,716.117249 
	C485.422729,717.139954 486.222656,718.030396 487.018188,719.287720 
	C487.704193,720.428955 488.394562,721.203308 489.291687,722.078735 
	C489.756409,722.367859 489.931091,722.614868 490.018188,723.287720 
	C490.704163,724.429016 491.394562,725.203308 492.292206,726.085205 
	C492.750366,726.396240 492.917816,726.653931 493.101318,727.190674 
	C493.391815,727.699097 493.651093,727.890076 494.086609,728.241211 
	C494.468231,728.969421 494.741821,729.444824 495.106140,730.154541 
	C495.457458,730.588684 495.718048,730.788452 495.993500,731.221252 
	C496.008362,731.454224 496.022461,731.920959 496.017822,732.284729 
	C496.684906,733.425964 497.356598,734.203430 498.019012,734.992065 
	C498.009705,735.003235 498.012054,734.977356 498.109497,735.200317 
	C498.396881,735.703430 498.654083,735.891785 498.992126,736.221069 
	C499.005676,736.453857 499.015411,736.920166 499.107300,737.156372 
	C499.460266,737.597473 499.721344,737.802429 499.995056,738.235413 
	C500.007629,738.463440 500.015442,738.920166 500.103455,739.151978 
	C500.372192,739.677734 500.626648,739.878052 500.976807,740.218323 
	C500.998779,740.452026 501.022430,740.920959 501.017639,741.302612 
	C502.322174,743.781189 503.631470,745.878052 505.099426,748.299194 
	C506.488647,751.513428 507.772858,754.381714 508.940826,757.296631 
	C515.269592,773.092102 520.897583,789.213745 528.101440,804.598206 
	C533.445190,816.010315 541.533997,825.816162 553.215576,832.306885 
	C553.950867,832.690552 554.514343,832.834473 555.312622,832.990112 
	C555.547363,833.001770 556.015442,833.045044 556.130249,833.263428 
	C556.462524,833.750183 556.740723,833.917725 557.319580,833.996948 
	C557.559570,834.009399 558.037781,834.056946 558.139893,834.269287 
	C558.443054,834.741516 558.703186,834.910278 559.009766,834.993774 
	C558.997131,834.999573 559.008301,834.973572 559.212158,835.247192 
	C560.302917,835.673401 561.189880,835.826050 562.317505,835.992798 
	C562.558228,836.006897 563.037781,836.056946 563.139893,836.269287 
	C563.443054,836.741516 563.703186,836.910278 564.009766,836.993713 
	C563.997131,836.999512 564.008423,836.973511 564.207886,837.244751 
	C565.278320,837.671021 566.149292,837.826172 567.010132,837.990601 
	C567.000000,838.000000 567.008423,837.973511 567.207886,838.244751 
	C568.278320,838.671082 569.149292,838.826172 570.010132,838.990601 
	C570.000000,839.000000 570.007690,838.973755 570.233093,839.254517 
	C571.645630,839.684143 572.832703,839.832947 574.009888,839.990845 
	C574.000000,840.000000 574.007690,839.973755 574.233093,840.254517 
	C575.645630,840.684143 576.832703,840.832947 578.009888,840.990845 
	C578.000000,841.000000 578.006836,840.974182 578.261597,841.265808 
	C580.350708,841.698975 582.185120,841.840454 584.009766,841.990967 
	C584.000000,842.000000 584.006165,841.974487 584.270630,842.270325 
	C592.415833,843.375000 600.297607,844.882690 608.177185,844.871094 
	C641.276978,844.822388 674.376709,844.366211 707.474243,843.899170 
	C710.322449,843.859009 713.154053,842.643738 715.996704,841.987183 
	C716.000000,842.000000 715.980225,841.981873 716.386841,841.989136 
	C718.526672,841.655579 720.259888,841.314880 721.996582,840.987183 
	C722.000000,841.000122 721.979919,840.981567 722.348816,840.989014 
	C723.809265,840.655579 724.900757,840.314636 725.996155,839.986877 
	C726.000000,840.000000 725.979919,839.981567 726.348816,839.989014 
	C727.809265,839.655579 728.900757,839.314636 729.996155,838.986816 
	C730.000000,839.000000 729.979431,838.981201 730.321045,838.987305 
	C731.439026,838.653503 732.215271,838.313477 732.995789,837.986755 
	C733.000000,838.000000 732.979431,837.981201 733.321045,837.987305 
	C734.438965,837.653442 735.215271,837.313477 735.997192,836.986572 
	C736.002808,836.999634 735.977356,836.987854 736.195068,836.895386 
	C736.689941,836.623474 736.873047,836.374756 737.201294,836.033081 
	C737.440308,836.009338 737.920166,835.984375 738.149170,835.898499 
	C738.671143,835.636597 738.865845,835.384644 739.201904,835.031738 
	C739.441589,835.006775 739.922729,834.978516 740.271973,834.985718 
	C741.411926,834.647217 742.202698,834.301575 743.190674,833.679382 
	C745.925293,832.268494 748.462646,831.134216 751.000000,830.000000 
z"/>
<path fill="#454545" opacity="1.000000" stroke="none" 
	d="
M0.999995,822.399963 
	C6.863950,825.008118 12.540852,828.483154 18.632336,830.923218 
	C29.948191,835.456055 41.886684,837.126770 54.825092,837.306946 
	C56.225391,837.736816 56.869419,837.978638 57.513611,837.979065 
	C86.784828,837.998718 116.056076,838.009155 145.327209,837.956543 
	C146.554443,837.954346 147.780563,837.341431 149.007202,837.013000 
	C167.065689,836.945618 184.183136,833.747620 199.546356,823.343262 
	C211.499405,815.248291 218.944305,803.967834 224.099869,790.932983 
	C229.770111,776.596680 234.629791,761.922424 240.726517,747.776306 
	C249.442322,727.553101 262.307922,710.302063 279.305573,696.005310 
	C301.826721,677.062805 327.769501,666.120056 356.623566,662.188232 
	C383.268036,658.557495 409.229828,662.265625 434.061188,672.608276 
	C464.825745,685.422241 488.351135,706.426758 504.881378,735.498291 
	C513.743652,751.084229 518.768677,768.105347 525.080322,784.668518 
	C529.781982,797.006714 535.596741,808.732422 545.451843,817.957336 
	C555.340454,827.213806 567.226868,832.523499 580.362671,834.875244 
	C587.496521,836.152405 594.827026,836.331726 602.825012,837.306885 
	C604.225342,837.736755 604.869385,837.978638 605.513550,837.979065 
	C634.784790,837.998718 664.056091,838.009216 693.327271,837.956543 
	C694.554443,837.954346 695.780640,837.341431 697.007263,837.013000 
	C715.279053,836.975647 732.682190,833.783020 748.022156,823.029358 
	C748.679382,822.568665 749.528564,822.381775 750.644165,822.033691 
	C751.000000,823.066711 751.000000,824.133362 750.642334,825.631104 
	C748.967834,826.750977 747.696228,827.550476 746.326538,828.110046 
	C738.980957,831.110962 731.819946,834.848755 724.205322,836.845459 
	C709.045349,840.820801 693.395203,841.315430 677.788513,840.957764 
	C645.249573,840.212097 612.556580,843.516907 580.204102,837.926392 
	C561.571899,834.706726 545.802124,826.369568 534.605225,810.406494 
	C525.170166,796.955383 520.546143,781.447693 515.297546,766.258606 
	C505.799194,738.771362 490.862732,715.186401 468.204071,696.639160 
	C442.438690,675.549194 412.627747,665.310791 379.728821,664.213013 
	C368.908569,663.851990 357.823273,665.089783 347.169708,667.179626 
	C302.044403,676.031250 268.255341,701.088196 247.040497,741.692444 
	C238.639786,757.770996 233.738068,775.656555 226.922348,792.590271 
	C220.011765,809.759644 209.176926,823.437805 191.947235,831.626160 
	C176.517960,838.958923 159.987244,840.398987 143.488388,840.809448 
	C115.840637,841.497375 88.155830,841.370789 60.502117,840.815369 
	C49.326511,840.590942 37.953804,839.321960 27.111824,836.702698 
	C18.073521,834.519104 9.679410,829.669067 0.999994,826.000000 
	C1.000000,824.933289 1.000000,823.866638 0.999995,822.399963 
z"/>
<path fill="#555555" opacity="1.000000" stroke="none" 
	d="
M0.999998,834.399963 
	C9.519771,837.106323 17.843479,841.058167 26.612068,843.091370 
	C36.210224,845.316833 46.205727,846.678284 56.051945,846.826294 
	C86.708946,847.286926 117.391800,847.543396 148.034164,846.730530 
	C160.632645,846.396301 173.482147,844.316589 185.639694,840.946594 
	C209.498535,834.332886 224.355423,817.545776 232.948441,794.757996 
	C239.153595,778.302429 244.395920,761.368103 252.009872,745.584106 
	C267.074860,714.353943 291.840057,692.967163 323.975006,680.154602 
	C338.723572,674.274231 354.067261,671.577148 369.990631,670.842590 
	C395.087952,669.684814 418.739532,674.619019 440.926727,686.046875 
	C473.085907,702.610962 494.637878,728.631348 507.227081,762.336121 
	C512.336731,776.015930 516.787781,790.003418 522.844177,803.254211 
	C533.509888,826.589661 552.521362,839.824951 577.595276,843.848999 
	C589.318115,845.730408 601.288452,846.644531 613.167236,846.859985 
	C637.823608,847.307190 662.493713,846.971680 687.158203,847.002197 
	C709.093018,847.029358 730.561096,844.837952 750.638672,834.033630 
	C751.000000,834.750000 751.000000,835.500000 750.684509,836.767700 
	C746.347168,839.203308 742.433716,841.405457 738.283813,842.987244 
	C724.480469,848.248108 709.878540,849.569092 695.370117,849.831299 
	C665.556030,850.370239 635.718445,850.361084 605.904907,849.807495 
	C594.411011,849.594055 582.812073,848.011536 571.516357,845.767517 
	C553.681213,842.224487 538.812988,833.250916 527.898926,818.344971 
	C519.942810,807.478882 515.762573,794.854065 510.934998,782.489746 
	C505.340332,768.160706 500.527863,753.320923 493.133026,739.942566 
	C477.531830,711.717590 453.550415,692.581238 423.217163,681.636414 
	C404.978546,675.055481 386.169189,671.502197 366.748108,674.091553 
	C354.837067,675.679626 342.658447,677.022644 331.307129,680.674072 
	C308.890320,687.884949 289.681000,700.527283 273.896088,718.405334 
	C263.209412,730.509155 254.766998,743.806885 248.987137,758.773682 
	C243.508652,772.959961 238.699875,787.405762 233.177139,801.573914 
	C225.184906,822.077454 210.535889,835.791626 189.790100,843.210449 
	C176.183960,848.076111 161.980789,849.543274 147.824860,849.812378 
	C117.012428,850.398010 86.179451,850.172180 55.358788,849.873840 
	C47.142700,849.794373 38.763020,849.026428 30.777065,847.189453 
	C20.680946,844.867249 10.910759,841.128052 0.999994,838.000000 
	C1.000000,836.933289 1.000000,835.866638 0.999998,834.399963 
z"/>
<path fill="#788080" opacity="1.000000" stroke="none" 
	d="
M0.999994,838.400024 
	C10.910759,841.128052 20.680946,844.867249 30.777065,847.189453 
	C38.763020,849.026428 47.142700,849.794373 55.358788,849.873840 
	C86.179451,850.172180 117.012428,850.398010 147.824860,849.812378 
	C161.980789,849.543274 176.183960,848.076111 189.790100,843.210449 
	C210.535889,835.791626 225.184906,822.077454 233.177139,801.573914 
	C238.699875,787.405762 243.508652,772.959961 248.987137,758.773682 
	C254.766998,743.806885 263.209412,730.509155 273.896088,718.405334 
	C289.681000,700.527283 308.890320,687.884949 331.307129,680.674072 
	C342.658447,677.022644 354.837067,675.679626 366.748108,674.091553 
	C386.169189,671.502197 404.978546,675.055481 423.217163,681.636414 
	C453.550415,692.581238 477.531830,711.717590 493.133026,739.942566 
	C500.527863,753.320923 505.340332,768.160706 510.934998,782.489746 
	C515.762573,794.854065 519.942810,807.478882 527.898926,818.344971 
	C538.812988,833.250916 553.681213,842.224487 571.516357,845.767517 
	C582.812073,848.011536 594.411011,849.594055 605.904907,849.807495 
	C635.718445,850.361084 665.556030,850.370239 695.370117,849.831299 
	C709.878540,849.569092 724.480469,848.248108 738.283813,842.987244 
	C742.433716,841.405457 746.347168,839.203308 750.684509,837.142700 
	C751.000000,838.388916 751.000000,839.777771 751.000000,841.583374 
	C747.643188,843.134583 744.279480,844.249023 740.930847,845.407410 
	C728.875061,849.577637 716.505249,851.906616 703.718689,852.021973 
	C670.789978,852.319153 637.858704,853.085571 604.934875,852.831665 
	C589.208008,852.710449 573.546448,850.920166 558.478088,845.264648 
	C539.772644,838.244141 526.952881,825.614990 517.944458,807.961365 
	C511.072113,794.493896 507.993500,779.939575 503.401581,765.810852 
	C498.169220,749.711548 489.379547,735.673035 478.510712,722.894592 
	C466.702850,709.012207 452.692444,697.763916 436.153229,690.029663 
	C420.119324,682.531677 403.344543,678.144897 385.469849,676.775757 
	C360.062347,674.829590 336.400238,679.896057 313.837067,691.004883 
	C290.466187,702.511475 272.724640,720.154968 259.203857,742.254333 
	C250.499756,756.480957 245.765259,772.090210 241.716568,788.161316 
	C239.541519,796.795105 235.053696,804.948364 230.914062,812.959045 
	C225.811752,822.832825 218.804886,831.263306 209.264603,837.339783 
	C196.633804,845.384766 182.732849,849.482788 167.936508,851.028992 
	C129.959579,854.997681 91.871391,852.688599 53.843304,852.762573 
	C35.945301,852.797424 18.123358,849.826294 1.354338,841.809326 
	C1.000000,840.933289 1.000000,839.866638 0.999994,838.400024 
z"/>
<path fill="#515959" opacity="1.000000" stroke="none" 
	d="
M0.999994,826.399963 
	C9.679410,829.669067 18.073521,834.519104 27.111824,836.702698 
	C37.953804,839.321960 49.326511,840.590942 60.502117,840.815369 
	C88.155830,841.370789 115.840637,841.497375 143.488388,840.809448 
	C159.987244,840.398987 176.517960,838.958923 191.947235,831.626160 
	C209.176926,823.437805 220.011765,809.759644 226.922348,792.590271 
	C233.738068,775.656555 238.639786,757.770996 247.040497,741.692444 
	C268.255341,701.088196 302.044403,676.031250 347.169708,667.179626 
	C357.823273,665.089783 368.908569,663.851990 379.728821,664.213013 
	C412.627747,665.310791 442.438690,675.549194 468.204071,696.639160 
	C490.862732,715.186401 505.799194,738.771362 515.297546,766.258606 
	C520.546143,781.447693 525.170166,796.955383 534.605225,810.406494 
	C545.802124,826.369568 561.571899,834.706726 580.204102,837.926392 
	C612.556580,843.516907 645.249573,840.212097 677.788513,840.957764 
	C693.395203,841.315430 709.045349,840.820801 724.205322,836.845459 
	C731.819946,834.848755 738.980957,831.110962 746.326538,828.110046 
	C747.696228,827.550476 748.967834,826.750977 750.642334,826.031067 
	C751.000000,827.066711 751.000000,828.133362 751.000000,829.599976 
	C748.462646,831.134216 745.925293,832.268494 742.849243,833.697693 
	C741.514587,834.321228 740.718689,834.649902 739.922729,834.978516 
	C739.922729,834.978516 739.441589,835.006775 738.980469,835.123901 
	C738.246277,835.429688 738.046570,835.677490 737.920166,835.984375 
	C737.920166,835.984375 737.440308,836.009338 736.983948,836.123413 
	C736.254150,836.421509 736.070740,836.671631 735.977356,836.987854 
	C735.977356,836.987854 736.002808,836.999634 735.659424,836.998413 
	C734.537170,837.325134 733.758301,837.653198 732.979431,837.981201 
	C732.979431,837.981201 733.000000,838.000000 732.658020,837.998535 
	C731.537170,838.325134 730.758301,838.653137 729.979431,838.981201 
	C729.979431,838.981201 730.000000,839.000000 729.631104,838.997253 
	C728.168091,839.323486 727.073975,839.652527 725.979919,839.981567 
	C725.979919,839.981567 726.000000,840.000000 725.630615,839.996704 
	C724.167480,840.322876 723.073669,840.652222 721.979919,840.981567 
	C721.979919,840.981567 722.000000,841.000122 721.592773,840.996826 
	C719.450439,841.322937 717.715332,841.652405 715.980225,841.981873 
	C715.980225,841.981873 716.000000,842.000000 715.542786,841.996887 
	C705.719971,842.335999 696.354309,842.678284 686.521362,843.015137 
	C661.706543,843.013367 637.359070,843.016907 612.542480,843.011780 
	C602.717590,842.660278 593.361877,842.317383 584.006165,841.974487 
	C584.006165,841.974487 584.000000,842.000000 583.750366,841.705078 
	C581.669495,841.264893 579.838135,841.119507 578.006836,840.974182 
	C578.006836,840.974182 578.000000,841.000000 577.777466,840.719360 
	C576.372559,840.283691 575.190125,840.128723 574.007690,839.973755 
	C574.007690,839.973755 574.000000,840.000000 573.777466,839.719360 
	C572.372559,839.283691 571.190125,839.128723 570.007690,838.973755 
	C570.007690,838.973755 570.000000,839.000000 569.804321,838.727905 
	C568.741882,838.295105 567.875183,838.134277 567.008423,837.973511 
	C567.008423,837.973511 567.000000,838.000000 566.804321,837.727905 
	C565.741882,837.295105 564.875183,837.134277 564.008423,836.973511 
	C564.008423,836.973511 563.997131,836.999512 563.905884,836.781311 
	C563.617859,836.298950 563.358887,836.130249 563.037781,836.056946 
	C563.037781,836.056946 562.558228,836.006897 562.096680,835.735901 
	C560.759583,835.301147 559.883911,835.137329 559.008301,834.973572 
	C559.008301,834.973572 558.997131,834.999573 558.905884,834.781372 
	C558.617859,834.298950 558.358887,834.130249 558.037781,834.056946 
	C558.037781,834.056946 557.559570,834.009399 557.195068,833.784241 
	C556.625610,833.281799 556.353943,833.110413 556.015442,833.045044 
	C556.015442,833.045044 555.547363,833.001770 555.133667,832.751160 
	C554.161194,832.356079 553.602539,832.211609 553.043823,832.067139 
	C541.533997,825.816162 533.445190,816.010315 528.101440,804.598206 
	C520.897583,789.213745 515.269592,773.092102 508.940826,757.296631 
	C507.772858,754.381714 506.488647,751.513428 505.081909,747.950317 
	C503.611267,745.158325 502.316864,743.039673 501.022430,740.920959 
	C501.022430,740.920959 500.998779,740.452026 500.888428,739.989502 
	C500.582428,739.251160 500.328217,739.048828 500.015442,738.920166 
	C500.015442,738.920166 500.007629,738.463440 499.905640,737.999634 
	C499.540924,737.330688 499.278168,737.125427 499.015381,736.920166 
	C499.015411,736.920166 499.005676,736.453857 498.898895,735.996216 
	C498.596741,735.261719 498.336700,735.074585 498.012054,734.977356 
	C498.012054,734.977356 498.009705,735.003235 497.984741,734.671997 
	C497.314026,733.534180 496.668243,732.727539 496.022461,731.920959 
	C496.022461,731.920959 496.008362,731.454224 495.898468,730.992249 
	C495.588531,730.253845 495.330811,730.050476 495.015442,729.920166 
	C494.741821,729.444824 494.468231,728.969421 493.990448,728.016235 
	C493.579987,727.271912 493.318512,727.081055 493.001862,726.965820 
	C492.917816,726.653931 492.750366,726.396240 492.237671,725.765991 
	C491.324738,724.533081 490.673645,723.726929 490.022522,722.920776 
	C489.931091,722.614868 489.756409,722.367859 489.237152,721.759521 
	C488.324768,720.533081 487.673645,719.726929 487.022552,718.920776 
	C486.222656,718.030396 485.422729,717.139954 484.222900,715.897583 
	C483.551270,715.349976 483.279572,715.154297 483.007874,714.958618 
	C480.732361,712.191833 478.704803,709.167297 476.140900,706.700134 
	C459.995087,691.164062 441.203979,680.032043 419.775146,673.412964 
	C418.843048,673.125061 417.823151,673.121399 416.232178,672.724487 
	C414.749603,672.300232 413.878998,672.136902 413.008423,671.973572 
	C413.008423,671.973572 412.998779,672.000000 412.760986,671.708008 
	C409.684662,670.935242 406.846130,670.454529 404.007599,669.973755 
	C404.007599,669.973755 403.998779,670.000000 403.745728,669.702515 
	C390.784668,668.615173 378.083160,667.420288 365.365845,667.218140 
	C359.586761,667.126221 353.776428,668.999878 347.980255,669.981934 
	C347.980255,669.981934 348.001007,670.000000 347.584839,669.996826 
	C344.439148,670.656311 341.709595,671.319031 338.980042,671.981750 
	C338.980042,671.981750 339.000366,672.000000 338.630646,671.997253 
	C337.167206,672.323486 336.073486,672.652527 334.979767,672.981506 
	C334.979767,672.981506 335.000610,673.000000 334.658325,672.998535 
	C333.537109,673.325073 332.758240,673.653137 331.979370,673.981201 
	C331.979370,673.981201 332.000000,674.000000 331.658020,673.998535 
	C330.537140,674.325134 329.758270,674.653198 328.979370,674.981201 
	C328.979370,674.981201 329.000000,675.000000 328.658020,674.998535 
	C327.537109,675.325073 326.758240,675.653137 325.979370,675.981201 
	C325.979370,675.981201 326.000000,676.000000 325.654236,675.998291 
	C324.513245,676.323914 323.717987,676.651245 322.922760,676.978516 
	C322.922760,676.978516 322.441620,677.006714 321.980469,677.123840 
	C321.246216,677.429626 321.046509,677.677429 320.920135,677.984375 
	C320.485657,677.995605 320.051147,678.006775 319.065643,678.121216 
	C318.244904,678.421814 318.046722,678.675110 317.920074,678.984375 
	C317.920074,678.984375 317.440308,679.009216 316.979797,679.125122 
	C316.246216,679.429626 316.046509,679.677429 315.920135,679.984375 
	C315.920135,679.984375 315.440338,680.009216 314.979797,680.125122 
	C314.246216,680.429626 314.046509,680.677429 313.920135,680.984375 
	C313.920135,680.984375 313.456085,681.002808 312.902771,681.031250 
	C311.539978,681.698975 310.730438,682.338257 309.920898,682.977539 
	C309.920898,682.977539 309.440704,683.006287 308.979980,683.123657 
	C308.246216,683.429626 308.046509,683.677429 307.920135,683.984375 
	C307.920135,683.984375 307.451782,684.003357 306.989532,684.112671 
	C306.251282,684.417419 306.048889,684.671631 305.920135,684.984497 
	C305.920135,684.984497 305.453888,684.994385 304.992065,685.102905 
	C304.253876,685.411560 304.050507,685.669250 303.920135,685.984558 
	C303.920135,685.984558 303.453888,685.994446 302.992065,686.102905 
	C302.253876,686.411560 302.050507,686.669250 301.920135,686.984558 
	C301.437592,687.265198 300.955048,687.545837 299.995911,688.033691 
	C299.246216,688.429626 299.046509,688.677429 298.920135,688.984375 
	C298.920135,688.984375 298.453888,688.994385 297.996124,689.104126 
	C297.271942,689.420044 297.081085,689.681519 296.965820,689.998169 
	C296.477722,690.265869 295.989624,690.533569 295.019958,691.007568 
	C294.271942,691.420044 294.081085,691.681519 293.965820,691.998169 
	C293.653748,692.082458 293.396851,692.250854 292.870422,692.840210 
	C292.349976,693.448730 292.154297,693.720398 291.958649,693.992065 
	C281.869690,699.421570 274.264160,707.627441 266.795471,716.731445 
	C266.333618,717.455872 266.126892,717.720337 265.920197,717.984802 
	C265.353058,718.460327 264.785889,718.935791 263.819763,719.831726 
	C262.918884,721.160645 262.416962,722.069153 261.915039,722.977661 
	C261.351837,723.451904 260.788666,723.926147 259.891418,724.782349 
	C259.277313,725.372986 259.098633,725.647644 259.021362,725.988281 
	C258.749329,726.464294 258.477325,726.940247 257.879944,727.793823 
	C257.275482,728.377502 257.097748,728.649841 257.021362,728.988281 
	C256.749329,729.464294 256.477325,729.940308 255.879913,730.793823 
	C255.275391,731.377502 255.097672,731.649841 255.021362,731.988281 
	C255.021362,731.988281 254.994278,732.453979 254.781204,732.809814 
	C254.303650,733.370850 254.133194,733.636353 254.056732,733.962158 
	C253.774994,734.444214 253.493240,734.926331 252.883011,735.789917 
	C252.275391,736.377502 252.097672,736.649841 252.021362,736.988281 
	C252.021362,736.988281 251.994324,737.453979 251.774429,737.812683 
	C251.275391,738.377502 251.097672,738.649841 251.021362,738.988281 
	C251.021362,738.988281 250.994278,739.453979 250.781204,739.809814 
	C250.303650,740.370850 250.133194,740.636353 250.056747,740.962158 
	C250.056747,740.962158 250.009308,741.440430 249.788727,741.803040 
	C249.303650,742.370850 249.133194,742.636353 249.056747,742.962158 
	C249.056747,742.962158 249.009308,743.440430 248.788727,743.803040 
	C248.303650,744.370850 248.133194,744.636353 248.056747,744.962158 
	C248.056747,744.962158 248.009308,745.440430 247.788727,745.803040 
	C247.303650,746.370850 247.133194,746.636353 247.056747,746.962158 
	C247.056747,746.962158 247.009308,747.440430 246.788727,747.803040 
	C246.303650,748.370850 246.133194,748.636353 246.056747,748.962158 
	C246.056747,748.962158 246.007019,749.441772 245.732941,749.901428 
	C245.291275,751.238525 245.123688,752.116028 244.956116,752.993469 
	C243.638794,756.063354 242.321487,759.133179 240.786285,762.691162 
	C240.302124,763.377686 240.131622,763.638672 240.056870,763.962219 
	C240.056870,763.962219 240.007111,764.441833 239.736023,764.903320 
	C239.301102,766.240479 239.137299,767.116089 238.973480,767.991699 
	C238.973495,767.991699 239.000610,768.000000 238.708344,768.205688 
	C236.939240,773.272461 235.462402,778.133667 233.985565,782.994812 
	C233.985565,782.994812 234.000000,783.000000 233.782898,783.094482 
	C233.299698,783.383240 233.130066,783.641052 233.056885,783.962280 
	C233.056885,783.962280 233.009338,784.440430 232.785751,784.802490 
	C232.284943,785.363647 232.112991,785.630493 232.046326,785.965149 
	C232.028229,786.400085 232.010132,786.835022 231.725800,787.802124 
	C230.992813,789.547607 230.526047,790.760986 230.059280,791.974304 
	C230.059280,791.974304 230.007889,792.447815 229.736404,792.906372 
	C229.301117,794.240479 229.137299,795.116089 228.973480,795.991699 
	C228.973495,795.991699 228.999435,796.002869 228.781250,796.094116 
	C228.298813,796.382080 228.130081,796.640991 228.056885,796.962219 
	C228.056885,796.962219 228.009338,797.440430 227.788727,797.803040 
	C227.303650,798.370850 227.133194,798.636353 227.056747,798.962158 
	C227.056747,798.962158 227.009308,799.440430 226.788727,799.803040 
	C226.303650,800.370850 226.133194,800.636353 226.056747,800.962158 
	C226.056747,800.962158 226.009308,801.440430 225.788727,801.803040 
	C225.303650,802.370850 225.133194,802.636353 225.056747,802.962158 
	C225.056747,802.962158 225.009308,803.440430 224.788727,803.803040 
	C224.303650,804.370850 224.133194,804.636353 224.056747,804.962158 
	C223.774979,805.444214 223.493210,805.926331 222.889786,806.786987 
	C222.303650,807.370850 222.133194,807.636353 222.056747,807.962158 
	C222.056747,807.962158 222.009308,808.440430 221.788727,808.803040 
	C221.303650,809.370850 221.133194,809.636353 221.056732,809.962158 
	C220.774963,810.444214 220.493195,810.926331 219.889771,811.786987 
	C219.303650,812.370850 219.133194,812.636353 219.056763,812.962158 
	C217.798294,814.425171 216.539825,815.888184 214.924744,817.758423 
	C214.303650,818.370850 214.133194,818.636353 214.056747,818.962158 
	C203.938644,830.274231 191.119049,837.210693 176.432388,839.719482 
	C164.418686,841.771729 152.087662,841.966309 138.962433,842.994629 
	C113.700081,843.004944 89.372612,843.005005 65.045135,843.005005 
	C49.088902,843.322327 33.238934,842.577454 18.053179,837.062866 
	C12.492520,835.043518 7.175508,832.353210 1.373674,829.984497 
	C1.000000,828.933289 1.000000,827.866638 0.999994,826.399963 
z"/>
<path fill="#FC8142" opacity="1.000000" stroke="none" 
	d="
M751.000000,697.531372 
	C743.324951,700.066711 736.315857,699.099976 730.169067,693.661255 
	C723.117798,687.422363 720.885376,676.716736 725.110596,668.839905 
	C730.286621,659.190735 739.200012,655.326660 750.584167,657.988525 
	C751.000000,671.020874 751.000000,684.041809 751.000000,697.531372 
z"/>
<path fill="#FC8143" opacity="1.000000" stroke="none" 
	d="
M451.048767,279.316040 
	C458.828308,263.791260 473.274353,257.455139 487.852875,262.834259 
	C503.059235,268.445038 510.736694,285.104187 505.073151,300.200165 
	C499.514221,315.017303 482.720184,322.720825 467.980988,317.103027 
	C454.569397,311.991241 444.494751,296.348114 451.048767,279.316040 
z"/>
<path fill="#FC8042" opacity="1.000000" stroke="none" 
	d="
M337.975128,260.640198 
	C334.974548,270.419342 324.710846,274.019958 318.142151,272.838531 
	C309.630646,271.307709 303.214050,264.273376 303.071167,255.953522 
	C302.945343,248.626266 305.800110,242.713852 312.611664,239.176361 
	C319.774658,235.456360 326.704437,236.323898 332.619659,241.352341 
	C338.349945,246.223557 340.481262,252.732224 337.975128,260.640198 
z"/>
<path fill="#FC8042" opacity="1.000000" stroke="none" 
	d="
M332.732300,448.740295 
	C333.322235,461.121857 324.272583,468.409027 314.616302,463.812469 
	C309.161652,461.215973 306.229126,455.871735 307.032715,449.992188 
	C307.735321,444.851532 312.249054,440.117249 317.417816,439.099731 
	C323.036469,437.993591 328.677551,440.783081 331.544220,446.104034 
	C331.937592,446.834137 332.252777,447.606384 332.732300,448.740295 
z"/>
<path fill="#FC7C3A" opacity="1.000000" stroke="none" 
	d="
M635.799011,322.846527 
	C633.746704,322.923584 632.132385,322.923584 630.550171,322.923584 
	C630.106445,314.002747 638.815369,305.435059 648.164124,305.003357 
	C658.277466,304.536316 667.184204,312.324402 667.698669,322.769470 
	C657.199463,322.769470 646.718201,322.769470 635.799011,322.846527 
z"/>
<path fill="#FD894F" opacity="1.000000" stroke="none" 
	d="
M43.992542,246.007080 
	C47.322369,223.159836 56.686440,203.081848 72.954224,186.715118 
	C90.296341,169.267471 111.285110,158.862183 135.988846,155.861710 
	C158.383301,153.141724 179.056976,157.780228 198.727829,168.291260 
	C202.037689,170.059860 202.515930,171.345184 200.065262,174.639130 
	C182.594788,198.121262 160.766144,216.362183 134.513397,229.124100 
	C117.289368,237.496994 99.224968,243.488953 79.943909,245.042801 
	C71.538094,245.720230 63.136055,246.507050 54.716396,246.918900 
	C51.452728,247.078568 48.145092,246.339401 44.421642,246.012253 
	C43.985798,246.014801 44.000000,246.000000 43.992542,246.007080 
z"/>
<path fill="#395656" opacity="1.000000" stroke="none" 
	d="
M696.537964,837.007324 
	C695.780640,837.341431 694.554443,837.954346 693.327271,837.956543 
	C664.056091,838.009216 634.784790,837.998718 605.513550,837.979065 
	C604.869385,837.978638 604.225342,837.736755 603.287109,837.310181 
	C634.018188,837.009094 665.043396,837.005371 696.537964,837.007324 
z"/>
<path fill="#395656" opacity="1.000000" stroke="none" 
	d="
M148.537918,837.007324 
	C147.780563,837.341431 146.554443,837.954346 145.327209,837.956543 
	C116.056076,838.009155 86.784828,837.998718 57.513611,837.979065 
	C56.869419,837.978638 56.225391,837.736816 55.287170,837.310181 
	C86.018250,837.009094 117.043442,837.005371 148.537918,837.007324 
z"/>
<path fill="#FC6011" opacity="1.000000" stroke="none" 
	d="
M626.988037,344.990875 
	C615.032288,353.136475 603.679565,361.965942 593.781128,372.626862 
	C582.756348,384.500824 573.497375,397.615051 565.686218,411.738007 
	C556.177246,428.930664 548.608887,446.967224 543.093384,465.855347 
	C542.737305,467.074768 541.225403,468.831970 540.221191,468.852203 
	C529.427185,469.069427 518.627136,468.987518 506.639404,468.987518 
	C509.120636,461.472626 511.023804,454.519531 513.682068,447.868256 
	C523.834778,422.464874 538.955688,400.393799 559.407654,382.188751 
	C578.110291,365.540924 599.471924,353.318298 623.270569,345.435974 
	C624.195435,345.129669 625.224548,345.138123 626.602539,345.000000 
	C627.000000,345.000122 626.988037,344.990875 626.988037,344.990875 
z"/>
<path fill="#FC6011" opacity="1.000000" stroke="none" 
	d="
M627.004822,345.006165 
	C627.097839,344.970428 627.185974,344.928650 627.131104,344.938873 
	C626.988037,344.990875 627.000000,345.000122 627.004822,345.006165 
z"/>
<path fill="#333333" opacity="1.000000" stroke="none" 
	d="
M686.988708,843.020630 
	C696.354309,842.678284 705.719971,842.335999 715.539429,841.984009 
	C713.154053,842.643738 710.322449,843.859009 707.474243,843.899170 
	C674.376709,844.366211 641.276978,844.822388 608.177185,844.871094 
	C600.297607,844.882690 592.415833,843.375000 584.270630,842.270325 
	C593.361877,842.317383 602.717590,842.660278 612.825317,843.318481 
	C614.223938,843.753784 614.870422,843.978027 615.517090,843.978638 
	C638.119141,843.998718 660.721313,844.012817 683.323181,843.957947 
	C684.545776,843.955017 685.766907,843.346985 686.988708,843.020630 
z"/>
<path fill="#336666" opacity="1.000000" stroke="none" 
	d="
M65.324310,843.311096 
	C89.372612,843.005005 113.700081,843.004944 138.491211,843.004944 
	C137.734894,843.330872 136.515610,843.937988 135.294830,843.940979 
	C112.710297,843.995972 90.125557,843.981934 67.540878,843.961975 
	C66.894981,843.961426 66.249283,843.737122 65.324310,843.311096 
z"/>
<path fill="#333333" opacity="1.000000" stroke="none" 
	d="
M348.431458,669.989136 
	C353.776428,668.999878 359.586761,667.126221 365.365845,667.218140 
	C378.083160,667.420288 390.784668,668.615173 403.756073,669.693481 
	C394.664398,669.320557 385.309692,668.150391 375.954071,668.143250 
	C366.930756,668.136414 357.906494,669.330017 348.431458,669.989136 
z"/>
<path fill="#333333" opacity="1.000000" stroke="none" 
	d="
M234.273407,782.785889 
	C235.462402,778.133667 236.939240,773.272461 238.698700,768.195435 
	C237.507965,772.845398 236.034592,777.711121 234.273407,782.785889 
z"/>
<path fill="#333333" opacity="1.000000" stroke="none" 
	d="
M501.017639,741.302612 
	C502.316864,743.039673 503.611267,745.158325 504.923218,747.625977 
	C503.631470,745.878052 502.322174,743.781189 501.017639,741.302612 
z"/>
<path fill="#333333" opacity="1.000000" stroke="none" 
	d="
M339.399597,671.989014 
	C341.709595,671.319031 344.439148,670.656311 347.580566,669.983704 
	C345.268005,670.647949 342.543579,671.322144 339.399597,671.989014 
z"/>
<path fill="#333333" opacity="1.000000" stroke="none" 
	d="
M404.243164,670.264038 
	C406.846130,670.454529 409.684662,670.935242 412.771423,671.698853 
	C410.172638,671.505981 407.325684,671.030151 404.243164,670.264038 
z"/>
<path fill="#333333" opacity="1.000000" stroke="none" 
	d="
M578.261597,841.265808 
	C579.838135,841.119507 581.669495,841.264893 583.760132,841.696045 
	C582.185120,841.840454 580.350708,841.698975 578.261597,841.265808 
z"/>
<path fill="#333333" opacity="1.000000" stroke="none" 
	d="
M716.386841,841.989136 
	C717.715332,841.652405 719.450439,841.322937 721.589355,840.983887 
	C720.259888,841.314880 718.526672,841.655579 716.386841,841.989136 
z"/>
<path fill="#333333" opacity="1.000000" stroke="none" 
	d="
M230.415512,791.913940 
	C230.526047,790.760986 230.992813,789.547607 231.719009,788.128540 
	C231.576202,789.232971 231.173965,790.543274 230.415512,791.913940 
z"/>
<path fill="#333333" opacity="1.000000" stroke="none" 
	d="
M490.018158,723.287720 
	C490.673645,723.726929 491.324738,724.533081 492.030396,725.658447 
	C491.394562,725.203308 490.704163,724.429016 490.018158,723.287720 
z"/>
<path fill="#333333" opacity="1.000000" stroke="none" 
	d="
M262.274170,722.937622 
	C262.416962,722.069153 262.918884,721.160645 263.699219,720.086670 
	C263.529510,720.913330 263.081421,721.905457 262.274170,722.937622 
z"/>
<path fill="#333333" opacity="1.000000" stroke="none" 
	d="
M487.018188,719.287720 
	C487.673645,719.726929 488.324768,720.533081 489.030396,721.658447 
	C488.394562,721.203308 487.704193,720.428955 487.018188,719.287720 
z"/>
<path fill="#333333" opacity="1.000000" stroke="none" 
	d="
M496.017822,732.284729 
	C496.668243,732.727539 497.314026,733.534180 497.994080,734.660889 
	C497.356598,734.203430 496.684906,733.425964 496.017822,732.284729 
z"/>
<path fill="#333333" opacity="1.000000" stroke="none" 
	d="
M310.280701,682.982544 
	C310.730438,682.338257 311.539978,681.698975 312.671448,681.051636 
	C312.209137,681.691528 311.424805,682.339478 310.280701,682.982544 
z"/>
<path fill="#333333" opacity="1.000000" stroke="none" 
	d="
M570.233093,839.254578 
	C571.190125,839.128723 572.372559,839.283691 573.787415,839.710205 
	C572.832703,839.832947 571.645630,839.684143 570.233093,839.254578 
z"/>
<path fill="#333333" opacity="1.000000" stroke="none" 
	d="
M726.348816,839.989014 
	C727.073975,839.652527 728.168091,839.323486 729.627197,838.984131 
	C728.900757,839.314636 727.809265,839.655579 726.348816,839.989014 
z"/>
<path fill="#333333" opacity="1.000000" stroke="none" 
	d="
M335.348694,672.989014 
	C336.073486,672.652527 337.167206,672.323486 338.626648,671.984131 
	C337.900787,672.314697 336.809204,672.655579 335.348694,672.989014 
z"/>
<path fill="#333333" opacity="1.000000" stroke="none" 
	d="
M722.348816,840.989014 
	C723.073669,840.652222 724.167480,840.322876 725.626770,839.983643 
	C724.900757,840.314636 723.809265,840.655579 722.348816,840.989014 
z"/>
<path fill="#333333" opacity="1.000000" stroke="none" 
	d="
M574.233093,840.254578 
	C575.190125,840.128723 576.372559,840.283691 577.787415,840.710205 
	C576.832703,840.832947 575.645630,840.684143 574.233093,840.254578 
z"/>
<path fill="#333333" opacity="1.000000" stroke="none" 
	d="
M740.271973,834.985718 
	C740.718689,834.649902 741.514587,834.321228 742.651978,833.974243 
	C742.202698,834.301575 741.411926,834.647217 740.271973,834.985718 
z"/>
<path fill="#333333" opacity="1.000000" stroke="none" 
	d="
M239.247070,767.787842 
	C239.137299,767.116089 239.301102,766.240479 239.721771,765.144043 
	C239.825974,765.810120 239.673309,766.697083 239.247070,767.787842 
z"/>
<path fill="#333333" opacity="1.000000" stroke="none" 
	d="
M323.270905,676.985840 
	C323.717987,676.651245 324.513245,676.323914 325.650085,675.985107 
	C325.200806,676.313416 324.409912,676.653259 323.270905,676.985840 
z"/>
<path fill="#333333" opacity="1.000000" stroke="none" 
	d="
M245.233154,752.791626 
	C245.123688,752.116028 245.291275,751.238525 245.718719,750.142090 
	C245.822449,750.811951 245.666336,751.700867 245.233154,752.791626 
z"/>
<path fill="#333333" opacity="1.000000" stroke="none" 
	d="
M332.320984,673.987305 
	C332.758240,673.653137 333.537109,673.325073 334.653778,672.985291 
	C334.215240,673.313538 333.438934,673.653503 332.320984,673.987305 
z"/>
<path fill="#333333" opacity="1.000000" stroke="none" 
	d="
M413.209259,672.245483 
	C413.878998,672.136902 414.749603,672.300232 415.830048,672.726196 
	C415.163300,672.831726 414.286713,672.674561 413.209259,672.245483 
z"/>
<path fill="#333333" opacity="1.000000" stroke="none" 
	d="
M329.321014,674.987366 
	C329.758270,674.653198 330.537140,674.325134 331.653809,673.985352 
	C331.215240,674.313477 330.438934,674.653442 329.321014,674.987366 
z"/>
<path fill="#333333" opacity="1.000000" stroke="none" 
	d="
M559.212158,835.247192 
	C559.883911,835.137329 560.759583,835.301147 561.856018,835.721802 
	C561.189880,835.826050 560.302917,835.673401 559.212158,835.247192 
z"/>
<path fill="#333333" opacity="1.000000" stroke="none" 
	d="
M229.247070,795.787842 
	C229.137299,795.116089 229.301117,794.240479 229.721771,793.144043 
	C229.825974,793.810120 229.673309,794.697083 229.247070,795.787842 
z"/>
<path fill="#333333" opacity="1.000000" stroke="none" 
	d="
M567.207886,838.244751 
	C567.875183,838.134277 568.741882,838.295105 569.814453,838.718567 
	C569.149292,838.826172 568.278320,838.671082 567.207886,838.244751 
z"/>
<path fill="#333333" opacity="1.000000" stroke="none" 
	d="
M564.207886,837.244751 
	C564.875183,837.134277 565.741882,837.295105 566.814453,837.718567 
	C566.149292,837.826172 565.278320,837.671021 564.207886,837.244751 
z"/>
<path fill="#333333" opacity="1.000000" stroke="none" 
	d="
M733.321045,837.987305 
	C733.758301,837.653198 734.537170,837.325134 735.653809,836.985291 
	C735.215271,837.313477 734.438965,837.653442 733.321045,837.987305 
z"/>
<path fill="#333333" opacity="1.000000" stroke="none" 
	d="
M730.321045,838.987305 
	C730.758301,838.653137 731.537170,838.325134 732.653809,837.985291 
	C732.215271,838.313477 731.439026,838.653503 730.321045,838.987305 
z"/>
<path fill="#333333" opacity="1.000000" stroke="none" 
	d="
M326.320984,675.987305 
	C326.758240,675.653137 327.537109,675.325073 328.653778,674.985291 
	C328.215240,675.313477 327.438934,675.653503 326.320984,675.987305 
z"/>
<path fill="#333333" opacity="1.000000" stroke="none" 
	d="
M553.215576,832.306885 
	C553.602539,832.211609 554.161194,832.356079 554.898926,832.739502 
	C554.514343,832.834473 553.950867,832.690552 553.215576,832.306885 
z"/>
<path fill="#333333" opacity="1.000000" stroke="none" 
	d="
M224.274017,804.853271 
	C224.133194,804.636353 224.303650,804.370850 224.776306,804.042969 
	C224.920212,804.255005 224.755829,804.529663 224.274017,804.853271 
z"/>
<path fill="#333333" opacity="1.000000" stroke="none" 
	d="
M219.274017,812.853271 
	C219.133194,812.636353 219.303650,812.370850 219.776306,812.042969 
	C219.920212,812.255005 219.755829,812.529663 219.274017,812.853271 
z"/>
<path fill="#333333" opacity="1.000000" stroke="none" 
	d="
M221.274017,809.853271 
	C221.133194,809.636353 221.303650,809.370850 221.776306,809.042969 
	C221.920212,809.255005 221.755829,809.529663 221.274017,809.853271 
z"/>
<path fill="#333333" opacity="1.000000" stroke="none" 
	d="
M222.274017,807.853271 
	C222.133194,807.636353 222.303650,807.370850 222.776306,807.042969 
	C222.920212,807.255005 222.755829,807.529663 222.274017,807.853271 
z"/>
<path fill="#333333" opacity="1.000000" stroke="none" 
	d="
M214.274017,818.853271 
	C214.133194,818.636353 214.303650,818.370850 214.776306,818.042969 
	C214.920212,818.255005 214.755829,818.529663 214.274017,818.853271 
z"/>
<path fill="#333333" opacity="1.000000" stroke="none" 
	d="
M556.130249,833.263428 
	C556.353943,833.110413 556.625610,833.281799 556.955078,833.771851 
	C556.740723,833.917725 556.462524,833.750183 556.130249,833.263428 
z"/>
<path fill="#333333" opacity="1.000000" stroke="none" 
	d="
M558.139893,834.269287 
	C558.358887,834.130249 558.617859,834.298950 558.918579,834.775513 
	C558.703186,834.910278 558.443054,834.741516 558.139893,834.269287 
z"/>
<path fill="#333333" opacity="1.000000" stroke="none" 
	d="
M738.149170,835.898499 
	C738.046570,835.677490 738.246277,835.429688 738.740723,835.148865 
	C738.865845,835.384644 738.671143,835.636597 738.149170,835.898499 
z"/>
<path fill="#333333" opacity="1.000000" stroke="none" 
	d="
M563.139893,836.269287 
	C563.358887,836.130249 563.617859,836.298950 563.918579,836.775513 
	C563.703186,836.910278 563.443054,836.741516 563.139893,836.269287 
z"/>
<path fill="#333333" opacity="1.000000" stroke="none" 
	d="
M233.268280,783.860962 
	C233.130066,783.641052 233.299698,783.383240 233.779480,783.088379 
	C233.907349,783.301880 233.736191,783.559143 233.268280,783.860962 
z"/>
<path fill="#333333" opacity="1.000000" stroke="none" 
	d="
M736.195068,836.895386 
	C736.070740,836.671631 736.254150,836.421509 736.744873,836.147217 
	C736.873047,836.374756 736.689941,836.623474 736.195068,836.895386 
z"/>
<path fill="#333333" opacity="1.000000" stroke="none" 
	d="
M299.149170,688.898560 
	C299.046509,688.677429 299.246216,688.429626 299.740784,688.148804 
	C299.866058,688.384766 299.671356,688.636780 299.149170,688.898560 
z"/>
<path fill="#333333" opacity="1.000000" stroke="none" 
	d="
M257.244507,728.874878 
	C257.097748,728.649841 257.275482,728.377502 257.769592,728.045898 
	C257.812317,728.200745 257.639984,728.481079 257.244507,728.874878 
z"/>
<path fill="#333333" opacity="1.000000" stroke="none" 
	d="
M493.101318,727.190674 
	C493.318512,727.081055 493.579987,727.271912 493.882446,727.763306 
	C493.651093,727.890076 493.391815,727.699097 493.101318,727.190674 
z"/>
<path fill="#333333" opacity="1.000000" stroke="none" 
	d="
M259.245850,725.873291 
	C259.098633,725.647644 259.277313,725.372986 259.773621,725.036621 
	C259.816711,725.192139 259.643494,725.475220 259.245850,725.873291 
z"/>
<path fill="#333333" opacity="1.000000" stroke="none" 
	d="
M266.160278,717.886719 
	C266.126892,717.720337 266.333618,717.455872 266.766235,717.075073 
	C266.794830,717.235413 266.597565,717.511963 266.160278,717.886719 
z"/>
<path fill="#333333" opacity="1.000000" stroke="none" 
	d="
M483.117462,715.193359 
	C483.279572,715.154297 483.551270,715.349976 483.951294,715.765259 
	C483.795471,715.799316 483.511261,715.613770 483.117462,715.193359 
z"/>
<path fill="#333333" opacity="1.000000" stroke="none" 
	d="
M292.193359,693.882446 
	C292.154297,693.720398 292.349976,693.448730 292.765289,693.048706 
	C292.799316,693.204529 292.613708,693.488647 292.193359,693.882446 
z"/>
<path fill="#333333" opacity="1.000000" stroke="none" 
	d="
M294.190643,691.898682 
	C294.081085,691.681519 294.271942,691.420044 294.763367,691.117615 
	C294.889984,691.348938 294.699036,691.608154 294.190643,691.898682 
z"/>
<path fill="#333333" opacity="1.000000" stroke="none" 
	d="
M297.190643,689.898682 
	C297.081085,689.681519 297.271942,689.420044 297.763367,689.117615 
	C297.889984,689.348938 297.699036,689.608154 297.190643,689.898682 
z"/>
<path fill="#333333" opacity="1.000000" stroke="none" 
	d="
M495.106140,730.154541 
	C495.330811,730.050476 495.588531,730.253845 495.883606,730.759277 
	C495.718048,730.788452 495.457458,730.588684 495.106140,730.154541 
z"/>
<path fill="#333333" opacity="1.000000" stroke="none" 
	d="
M302.154480,686.893860 
	C302.050507,686.669250 302.253876,686.411560 302.759277,686.116455 
	C302.788513,686.282043 302.588684,686.542603 302.154480,686.893860 
z"/>
<path fill="#333333" opacity="1.000000" stroke="none" 
	d="
M304.154480,685.893860 
	C304.050507,685.669250 304.253876,685.411560 304.759277,685.116455 
	C304.788483,685.281982 304.588654,685.542603 304.154480,685.893860 
z"/>
<path fill="#333333" opacity="1.000000" stroke="none" 
	d="
M306.151978,684.896545 
	C306.048889,684.671631 306.251282,684.417419 306.756104,684.133545 
	C306.878265,684.373352 306.677887,684.627869 306.151978,684.896545 
z"/>
<path fill="#333333" opacity="1.000000" stroke="none" 
	d="
M308.149170,683.898560 
	C308.046509,683.677429 308.246216,683.429626 308.740784,683.148804 
	C308.866058,683.384766 308.671356,683.636780 308.149170,683.898560 
z"/>
<path fill="#333333" opacity="1.000000" stroke="none" 
	d="
M314.149170,680.898560 
	C314.046509,680.677429 314.246216,680.429626 314.740784,680.148804 
	C314.866058,680.384766 314.671356,680.636780 314.149170,680.898560 
z"/>
<path fill="#333333" opacity="1.000000" stroke="none" 
	d="
M316.149170,679.898560 
	C316.046509,679.677429 316.246216,679.429626 316.740784,679.148804 
	C316.866058,679.384766 316.671356,679.636780 316.149170,679.898560 
z"/>
<path fill="#333333" opacity="1.000000" stroke="none" 
	d="
M318.150299,678.897278 
	C318.046722,678.675110 318.244904,678.421814 318.739960,678.135376 
	C318.869629,678.376892 318.674683,678.631531 318.150299,678.897278 
z"/>
<path fill="#333333" opacity="1.000000" stroke="none" 
	d="
M321.149170,677.898560 
	C321.046509,677.677429 321.246216,677.429626 321.740784,677.148804 
	C321.866058,677.384766 321.671356,677.636780 321.149170,677.898560 
z"/>
<path fill="#333333" opacity="1.000000" stroke="none" 
	d="
M249.274017,742.853271 
	C249.133194,742.636353 249.303650,742.370850 249.776306,742.042969 
	C249.920212,742.255005 249.755829,742.529663 249.274017,742.853271 
z"/>
<path fill="#333333" opacity="1.000000" stroke="none" 
	d="
M226.274017,800.853271 
	C226.133194,800.636353 226.303650,800.370850 226.776306,800.042969 
	C226.920212,800.255005 226.755829,800.529663 226.274017,800.853271 
z"/>
<path fill="#333333" opacity="1.000000" stroke="none" 
	d="
M227.274017,798.853271 
	C227.133194,798.636353 227.303650,798.370850 227.776306,798.042969 
	C227.920212,798.255005 227.755829,798.529663 227.274017,798.853271 
z"/>
<path fill="#333333" opacity="1.000000" stroke="none" 
	d="
M228.269226,796.860107 
	C228.130081,796.640991 228.298813,796.382080 228.775452,796.081421 
	C228.910248,796.296814 228.741470,796.556946 228.269226,796.860107 
z"/>
<path fill="#333333" opacity="1.000000" stroke="none" 
	d="
M232.265610,785.856445 
	C232.112991,785.630493 232.284943,785.363647 232.773315,785.042480 
	C232.919113,785.257263 232.752594,785.533081 232.265610,785.856445 
z"/>
<path fill="#333333" opacity="1.000000" stroke="none" 
	d="
M240.270767,763.857422 
	C240.131622,763.638672 240.302124,763.377686 240.780106,763.068970 
	C240.912659,763.280823 240.743607,763.545532 240.270767,763.857422 
z"/>
<path fill="#333333" opacity="1.000000" stroke="none" 
	d="
M246.274017,748.853271 
	C246.133194,748.636353 246.303650,748.370850 246.776306,748.042969 
	C246.920212,748.255005 246.755829,748.529663 246.274017,748.853271 
z"/>
<path fill="#333333" opacity="1.000000" stroke="none" 
	d="
M247.274017,746.853271 
	C247.133194,746.636353 247.303650,746.370850 247.776306,746.042969 
	C247.920212,746.255005 247.755829,746.529663 247.274017,746.853271 
z"/>
<path fill="#333333" opacity="1.000000" stroke="none" 
	d="
M248.274017,744.853271 
	C248.133194,744.636353 248.303650,744.370850 248.776306,744.042969 
	C248.920212,744.255005 248.755829,744.529663 248.274017,744.853271 
z"/>
<path fill="#333333" opacity="1.000000" stroke="none" 
	d="
M225.274017,802.853271 
	C225.133194,802.636353 225.303650,802.370850 225.776306,802.042969 
	C225.920212,802.255005 225.755829,802.529663 225.274017,802.853271 
z"/>
<path fill="#333333" opacity="1.000000" stroke="none" 
	d="
M250.274017,740.853271 
	C250.133194,740.636353 250.303650,740.370850 250.776306,740.042969 
	C250.920212,740.255005 250.755829,740.529663 250.274017,740.853271 
z"/>
<path fill="#333333" opacity="1.000000" stroke="none" 
	d="
M500.103455,739.151978 
	C500.328217,739.048828 500.582428,739.251160 500.866455,739.755859 
	C500.626648,739.878052 500.372192,739.677734 500.103455,739.151978 
z"/>
<path fill="#333333" opacity="1.000000" stroke="none" 
	d="
M251.244476,738.874817 
	C251.097672,738.649841 251.275391,738.377502 251.769562,738.045898 
	C251.812271,738.200684 251.639938,738.481018 251.244476,738.874817 
z"/>
<path fill="#333333" opacity="1.000000" stroke="none" 
	d="
M499.107269,737.156372 
	C499.278168,737.125427 499.540924,737.330688 499.893066,737.771606 
	C499.721344,737.802429 499.460266,737.597473 499.107269,737.156372 
z"/>
<path fill="#333333" opacity="1.000000" stroke="none" 
	d="
M252.244476,736.874817 
	C252.097672,736.649841 252.275391,736.377502 252.769562,736.045898 
	C252.812271,736.200684 252.639938,736.481018 252.244476,736.874817 
z"/>
<path fill="#333333" opacity="1.000000" stroke="none" 
	d="
M498.109497,735.200317 
	C498.336700,735.074585 498.596741,735.261719 498.885345,735.763489 
	C498.654083,735.891785 498.396881,735.703430 498.109497,735.200317 
z"/>
<path fill="#333333" opacity="1.000000" stroke="none" 
	d="
M254.274017,733.853271 
	C254.133194,733.636353 254.303650,733.370850 254.776306,733.042969 
	C254.920212,733.255005 254.755829,733.529663 254.274017,733.853271 
z"/>
<path fill="#333333" opacity="1.000000" stroke="none" 
	d="
M255.244476,731.874817 
	C255.097672,731.649841 255.275391,731.377502 255.769562,731.045898 
	C255.812241,731.200684 255.639908,731.481018 255.244476,731.874817 
z"/>
<path fill="#336666" opacity="1.000000" stroke="none" 
	d="
M686.521362,843.015198 
	C685.766907,843.346985 684.545776,843.955017 683.323181,843.957947 
	C660.721313,844.012817 638.119141,843.998718 615.517090,843.978638 
	C614.870422,843.978027 614.223938,843.753784 613.294556,843.327148 
	C637.359070,843.016907 661.706543,843.013367 686.521362,843.015198 
z"/>
</svg>