<?xml version="1.0" encoding="UTF-8"?>
<svg version="1.1" xmlns="http://www.w3.org/2000/svg" width="91" height="93">
<path d="M0 0 C10.50495945 6.02160765 22.78868441 15.17065557 26.45166016 27.25024414 C28.441008 34.74155974 27.68150545 41.75667847 23.84228516 48.51586914 C14.07525973 63.34727812 -4.36522704 73.90324107 -21.47021484 78.00024414 C-29.50433204 79.19048372 -39.64513522 80.33711129 -46.81787109 75.82446289 C-52.63975905 70.79582487 -55.64195234 64.82283406 -57.42333984 57.43774414 C-57.62830078 56.58954102 -57.83326172 55.74133789 -58.04443359 54.86743164 C-61.64493159 37.03875882 -60.94443245 14.53739378 -51.33740234 -1.35913086 C-38.97877278 -18.11378301 -14.70746461 -7.9017407 0 0 Z " fill="#020203" transform="translate(61.42333984375,11.562255859375)"/>
<path d="M0 0 C0.99 0.33 1.98 0.66 3 1 C2.67 10.24 2.34 19.48 2 29 C2.99 29 3.98 29 5 29 C5 28.34 5 27.68 5 27 C6.32 27.33 7.64 27.66 9 28 C8.34 28.928125 7.68 29.85625 7 30.8125 C4.73425446 33.79636556 4.73425446 33.79636556 5 37 C5.61875 36.01 6.2375 35.02 6.875 34 C7.57625 33.01 8.2775 32.02 9 31 C9.66 31 10.32 31 11 31 C11.495 29.515 11.495 29.515 12 28 C15.63 28 19.26 28 23 28 C22.67 30.31 22.34 32.62 22 35 C20.35 35 18.7 35 17 35 C17.46921875 35.83144531 17.9384375 36.66289063 18.421875 37.51953125 C20.14834534 41.32716757 20.73916315 44.54724975 21.25 48.6875 C21.42015625 49.99074219 21.5903125 51.29398438 21.765625 52.63671875 C22 56 22 56 21 59 C18 60 18 60 15 59 C13.10529184 58.9314505 11.2083166 58.91519628 9.3125 58.9375 C7.82169922 58.95103516 7.82169922 58.95103516 6.30078125 58.96484375 C5.54152344 58.97644531 4.78226563 58.98804688 4 59 C3.34 60.65 2.68 62.3 2 64 C1.34 63.67 0.68 63.34 0 63 C-0.281765 60.67616498 -0.45171684 58.33823176 -0.5625 56 C-0.38416046 51.67859865 -0.38416046 51.67859865 -2 48 C-2.33 51.96 -2.66 55.92 -3 60 C-5.64 60 -8.28 60 -11 60 C-10.67 61.65 -10.34 63.3 -10 65 C-4.06 65 1.88 65 8 65 C5.17120714 67.82879286 3.20075802 67.3142666 -0.7578125 67.4140625 C-1.42086395 67.43342865 -2.08391541 67.4527948 -2.76705933 67.4727478 C-4.88624177 67.53255954 -7.0054785 67.57893388 -9.125 67.625 C-10.56122169 67.66317845 -11.99742045 67.70223011 -13.43359375 67.7421875 C-16.95551936 67.83826125 -20.47761608 67.92228642 -24 68 C-24.66 66.68 -25.32 65.36 -26 64 C-24.68 63.34 -23.36 62.68 -22 62 C-24.31 61.34 -26.62 60.68 -29 60 C-29.33 58.35 -29.66 56.7 -30 55 C-26.37 55 -22.74 55 -19 55 C-19 55.66 -19 56.32 -19 57 C-19.66 57 -20.32 57 -21 57 C-20.67 58.65 -20.34 60.3 -20 62 C-17.36 62.66 -14.72 63.32 -12 64 C-12.33 62.68 -12.66 61.36 -13 60 C-14.485 59.505 -14.485 59.505 -16 59 C-17.577322 55.84535601 -16.90932351 52.55870631 -16.6875 49.125 C-16.65205078 48.40441406 -16.61660156 47.68382812 -16.58007812 46.94140625 C-16.3334549 42.94390148 -15.82857275 40.65714549 -14 37 C-18.29 37 -22.58 37 -27 37 C-28 32 -28 32 -27 30 C-22.03101333 28.6758661 -16.92343898 28.62306842 -11.8125 28.375 C-10.44061523 28.29765625 -10.44061523 28.29765625 -9.04101562 28.21875 C-8.16767578 28.17492187 -7.29433594 28.13109375 -6.39453125 28.0859375 C-5.59893799 28.0451709 -4.80334473 28.0044043 -3.98364258 27.96240234 C-2 28 -2 28 0 29 C0 19.43 0 9.86 0 0 Z " fill="#AD6B06" transform="translate(42,10)"/>
<path d="M0 0 C13.73053058 2.28842176 26.01023917 12.2231302 34.3828125 23.09375 C36 26 36 26 35.25 29.875 C34.63125 31.421875 34.63125 31.421875 34 33 C30.84493858 33.93619813 28.03413498 34.1057123 24.75 34.0625 C23.85796875 34.05347656 22.9659375 34.04445312 22.046875 34.03515625 C21.37140625 34.02355469 20.6959375 34.01195312 20 34 C20.33 31.69 20.66 29.38 21 27 C13.41858873 26.95202778 13.41858873 26.95202778 7 30.5 C4.46197686 34.28396177 3.1921898 38.63833002 2 43 C1.67 43 1.34 43 1 43 C1.25786427 36.47603393 1.82167521 32.12181749 6 27 C5.01 26.67 4.02 26.34 3 26 C3 26.66 3 27.32 3 28 C2.01 28 1.02 28 0 28 C0 18.76 0 9.52 0 0 Z " fill="#0B0908" transform="translate(44,11)"/>
<path d="M0 0 C3.63 0 7.26 0 11 0 C10.67 2.31 10.34 4.62 10 7 C8.35 7 6.7 7 5 7 C5.70382813 8.24716797 5.70382813 8.24716797 6.421875 9.51953125 C8.14834534 13.32716757 8.73916315 16.54724975 9.25 20.6875 C9.42015625 21.99074219 9.5903125 23.29398438 9.765625 24.63671875 C10 28 10 28 9 31 C6 32 6 32 3 31 C1.10529184 30.9314505 -0.7916834 30.91519628 -2.6875 30.9375 C-3.68136719 30.94652344 -4.67523438 30.95554687 -5.69921875 30.96484375 C-6.45847656 30.97644531 -7.21773437 30.98804687 -8 31 C-8.99 33.475 -8.99 33.475 -10 36 C-10.66 35.67 -11.32 35.34 -12 35 C-12.05410687 33.22950311 -12.09284119 31.45853151 -12.125 29.6875 C-12.14820313 28.70136719 -12.17140625 27.71523437 -12.1953125 26.69921875 C-12 24 -12 24 -10 21 C-7.67451993 20.30643577 -5.34119555 19.63850788 -3 19 C-2.67 18.34 -2.34 17.68 -2 17 C-2.99 16.67 -3.98 16.34 -5 16 C-5 15.34 -5 14.68 -5 14 C-5.66 13.67 -6.32 13.34 -7 13 C-6.52651586 8.8333396 -5.95303159 6.07115285 -3 3 C-2.34 3 -1.68 3 -1 3 C-0.67 2.01 -0.34 1.02 0 0 Z " fill="#B6ACA8" transform="translate(54,38)"/>
<path d="M0 0 C1.0625 1.8125 1.0625 1.8125 2 4 C1.67 4.99 1.34 5.98 1 7 C0.34 6.67 -0.32 6.34 -1 6 C-1.33 11.94 -1.66 17.88 -2 24 C-4.64 24 -7.28 24 -10 24 C-9.67 25.65 -9.34 27.3 -9 29 C-3.06 29 2.88 29 9 29 C6.17120714 31.82879286 4.20075802 31.3142666 0.2421875 31.4140625 C-0.75238968 31.44311172 -0.75238968 31.44311172 -1.76705933 31.4727478 C-3.88624177 31.53255954 -6.0054785 31.57893388 -8.125 31.625 C-9.56122169 31.66317845 -10.99742045 31.70223011 -12.43359375 31.7421875 C-15.95551936 31.83826125 -19.47761608 31.92228642 -23 32 C-23.66 30.68 -24.32 29.36 -25 28 C-23.68 27.34 -22.36 26.68 -21 26 C-23.31 25.34 -25.62 24.68 -28 24 C-28.33 22.35 -28.66 20.7 -29 19 C-25.37 19 -21.74 19 -18 19 C-18 19.66 -18 20.32 -18 21 C-18.66 21 -19.32 21 -20 21 C-19.67 22.65 -19.34 24.3 -19 26 C-16.36 26.66 -13.72 27.32 -11 28 C-11.33 26.68 -11.66 25.36 -12 24 C-12.99 23.67 -13.98 23.34 -15 23 C-16.36623674 20.26752652 -16.128426 18.01801098 -16 15 C-15.67 14.67 -15.34 14.34 -15 14 C-14.72046781 11.9412232 -14.55265649 9.88271568 -14.37890625 7.8125 C-14.25386719 7.214375 -14.12882812 6.61625 -14 6 C-13.34 5.67 -12.68 5.34 -12 5 C-12.33 9.29 -12.66 13.58 -13 18 C-12.01 17.67 -11.02 17.34 -10 17 C-8.81497333 14.08288802 -8.81497333 14.08288802 -7.9375 10.625 C-6.90780208 6.89492963 -6.15486251 4.23229376 -4 1 C-2.68 1.33 -1.36 1.66 0 2 C0 1.34 0 0.68 0 0 Z " fill="#ECE7DF" transform="translate(41,46)"/>
<path d="M0 0 C0.66 0 1.32 0 2 0 C3.52658879 6.34121496 2.75111187 9.91340104 -0.4140625 15.60546875 C-4.58313105 21.90014615 -9.48561499 25.40853714 -16 29 C-16.12117188 27.84242187 -16.24234375 26.68484375 -16.3671875 25.4921875 C-16.53611316 23.95308708 -16.70540332 22.41402663 -16.875 20.875 C-16.95363281 20.11445312 -17.03226563 19.35390625 -17.11328125 18.5703125 C-17.60973665 14.14040279 -18.40400079 10.19788029 -20 6 C-18.02 6 -16.04 6 -14 6 C-13.67 5.34 -13.34 4.68 -13 4 C-13 4.66 -13 5.32 -13 6 C-9.04 5.34 -5.08 4.68 -1 4 C-0.67 2.68 -0.34 1.36 0 0 Z " fill="#060606" transform="translate(79,39)"/>
<path d="M0 0 C0.66 0 1.32 0 2 0 C2.36075949 4.44936709 2.36075949 4.44936709 0.8125 6.8125 C-1.55982525 8.36678206 -3.22041345 8.22537188 -6 8 C-6 8.66 -6 9.32 -6 10 C-4.35 9.67 -2.7 9.34 -1 9 C-1 9.66 -1 10.32 -1 11 C-1.84304687 11.08636719 -2.68609375 11.17273438 -3.5546875 11.26171875 C-4.65039062 11.40222656 -5.74609375 11.54273437 -6.875 11.6875 C-7.96554688 11.81511719 -9.05609375 11.94273438 -10.1796875 12.07421875 C-13.2302512 12.71612757 -13.2302512 12.71612757 -14.3828125 15.58203125 C-14.58648437 16.37996094 -14.79015625 17.17789063 -15 18 C-15.66 17.67 -16.32 17.34 -17 17 C-17.05410687 15.22950311 -17.09284119 13.45853151 -17.125 11.6875 C-17.14820313 10.70136719 -17.17140625 9.71523437 -17.1953125 8.69921875 C-17 6 -17 6 -15 3 C-12.390379 2.61588725 -9.9941926 2.39706803 -7.375 2.3125 C-6.66859375 2.27833984 -5.9621875 2.24417969 -5.234375 2.20898438 C-3.49014312 2.12648692 -1.74509605 2.06156665 0 2 C0 1.34 0 0.68 0 0 Z " fill="#CFC9C5" transform="translate(59,56)"/>
<path d="M0 0 C0.33 0 0.66 0 1 0 C1.22786458 2.05078125 1.45572917 4.1015625 1.68359375 6.15234375 C1.81886614 8.01140229 1.81886614 8.01140229 3 9 C3.23527773 11.34987262 3.41386417 13.70556039 3.5625 16.0625 C3.64628906 17.35285156 3.73007812 18.64320312 3.81640625 19.97265625 C3.87699219 20.97167969 3.93757813 21.97070312 4 23 C4.309375 22.360625 4.61875 21.72125 4.9375 21.0625 C6 19 6 19 7 18 C8.99958364 17.95919217 11.00045254 17.95745644 13 18 C13.33 18.99 13.66 19.98 14 21 C14.99 20.67 15.98 20.34 17 20 C17.66 20.66 18.32 21.32 19 22 C13.51470259 25.47159188 8.88506464 25.36163875 2.625 25.1875 C1.69816406 25.17396484 0.77132812 25.16042969 -0.18359375 25.14648438 C-2.45633998 25.11133881 -4.72785847 25.06214132 -7 25 C-7.33 23.35 -7.66 21.7 -8 20 C-5.36 20 -2.72 20 0 20 C0 13.4 0 6.8 0 0 Z " fill="#4D2F30" transform="translate(39,50)"/>
<path d="M0 0 C3.63 0 7.26 0 11 0 C11 0.66 11 1.32 11 2 C10.34 2 9.68 2 9 2 C9.33 3.65 9.66 5.3 10 7 C12.64 7.66 15.28 8.32 18 9 C18.33 7.68 18.66 6.36 19 5 C19.33 6.65 19.66 8.3 20 10 C25.94 10 31.88 10 38 10 C35.17120714 12.82879286 33.20075802 12.3142666 29.2421875 12.4140625 C28.57913605 12.43342865 27.91608459 12.4527948 27.23294067 12.4727478 C25.11375823 12.53255954 22.9945215 12.57893388 20.875 12.625 C19.43877831 12.66317845 18.00257955 12.70223011 16.56640625 12.7421875 C13.04448064 12.83826125 9.52238392 12.92228642 6 13 C5.34 11.68 4.68 10.36 4 9 C5.32 8.34 6.64 7.68 8 7 C5.69 6.34 3.38 5.68 1 5 C0.67 3.35 0.34 1.7 0 0 Z " fill="#CBCCD0" transform="translate(12,65)"/>
<path d="M0 0 C4.95 0 9.9 0 15 0 C14.67 1.65 14.34 3.3 14 5 C14.99 5 15.98 5 17 5 C16.25 9.75 16.25 9.75 14 12 C13.67 12 13.34 12 13 12 C12.67 14.64 12.34 17.28 12 20 C11.67 20 11.34 20 11 20 C10.94552953 18.58376784 10.90699492 17.16691809 10.875 15.75 C10.85179687 14.96109375 10.82859375 14.1721875 10.8046875 13.359375 C11 11 11 11 13 7 C8.71 7 4.42 7 0 7 C-1 2 -1 2 0 0 Z " fill="#C9A87A" transform="translate(15,40)"/>
<path d="M0 0 C-0.33 2.31 -0.66 4.62 -1 7 C-2.32 6.67 -3.64 6.34 -5 6 C-5.18175781 6.64066406 -5.36351562 7.28132813 -5.55078125 7.94140625 C-7.06270045 13.14395897 -8.75000671 18.07144327 -11 23 C-11.99 23 -12.98 23 -14 23 C-14.35553789 17.0743685 -14.03868239 13.25925799 -11 8 C-10.731875 6.9275 -10.46375 5.855 -10.1875 4.75 C-9 2 -9 2 -6.0625 0.625 C-3 0 -3 0 0 0 Z " fill="#7D3F24" transform="translate(42,41)"/>
<path d="M0 0 C3.63 0 7.26 0 11 0 C10.67 2.31 10.34 4.62 10 7 C8.35 7 6.7 7 5 7 C5.66 8.98 6.32 10.96 7 13 C5.6078125 12.7215625 5.6078125 12.7215625 4.1875 12.4375 C0.98656229 11.75876119 0.98656229 11.75876119 -2 13 C-0.125 7.25 -0.125 7.25 1 5 C-0.98 5.33 -2.96 5.66 -5 6 C-4.34 5.01 -3.68 4.02 -3 3 C-2.34 3 -1.68 3 -1 3 C-0.67 2.01 -0.34 1.02 0 0 Z " fill="#6B4C33" transform="translate(54,38)"/>
<path d="M0 0 C-4.24860632 5.2042199 -8.36629298 9.32084439 -14 13 C-15.06700419 9.01890872 -15.52281995 5.09011471 -16 1 C-13.8973294 0.63705686 -11.79278943 0.28493028 -9.6875 -0.0625 C-8.51574219 -0.25972656 -7.34398438 -0.45695312 -6.13671875 -0.66015625 C-3 -1 -3 -1 0 0 Z " fill="#1D1C1C" transform="translate(78,55)"/>
<path d="M0 0 C0.68707555 2.49064888 1 4.37886292 1 7 C2.32 6.67 3.64 6.34 5 6 C5 6.99 5 7.98 5 9 C5.66 9.33 6.32 9.66 7 10 C6.375 11.9375 6.375 11.9375 5 14 C2 14.625 2 14.625 -1 15 C-1.66 15.66 -2.32 16.32 -3 17 C-5.09350689 13.5980513 -5.17942163 10.94727588 -5 7 C-4.34 7 -3.68 7 -3 7 C-2.67 5.35 -2.34 3.7 -2 2 C-1.34 2 -0.68 2 0 2 C0 1.34 0 0.68 0 0 Z " fill="#CE6110" transform="translate(45,45)"/>
<path d="M0 0 C8.58 0 17.16 0 26 0 C20.93058418 3.37961055 16.42019565 4.27831473 10.375 4.25 C9.26898438 4.25515625 8.16296875 4.2603125 7.0234375 4.265625 C4.11933089 4.01048385 2.45515157 3.50901999 0 2 C0 1.34 0 0.68 0 0 Z " fill="#2B2B2D" transform="translate(19,77)"/>
<path d="M0 0 C0.96661363 3.12180401 0.98988909 5.52083795 0.5625 8.75 C0.40974609 9.94882812 0.40974609 9.94882812 0.25390625 11.171875 C0.12822266 12.07679687 0.12822266 12.07679687 0 13 C0.66 13 1.32 13 2 13 C2.33 13.66 2.66 14.32 3 15 C5.31 15 7.62 15 10 15 C10 15.66 10 16.32 10 17 C8.56496445 17.36402369 7.12683494 17.71586591 5.6875 18.0625 C4.48673828 18.35833984 4.48673828 18.35833984 3.26171875 18.66015625 C1 19 1 19 -2 18 C-3.36623674 15.26752652 -3.128426 13.01801098 -3 10 C-2.67 9.67 -2.34 9.34 -2 9 C-1.79395915 7.67218122 -1.6337041 6.33704105 -1.5 5 C-1.11111111 1.11111111 -1.11111111 1.11111111 0 0 Z " fill="#EFECE8" transform="translate(28,51)"/>
<path d="M0 0 C0.33 0.99 0.66 1.98 1 3 C4.96 3 8.92 3 13 3 C13.33 2.34 13.66 1.68 14 1 C14.33 3.31 14.66 5.62 15 8 C16.32 8.33 17.64 8.66 19 9 C19 10.32 19 11.64 19 13 C13.25 12.125 13.25 12.125 11 11 C10.375 8.4375 10.375 8.4375 10 6 C10.66 6 11.32 6 12 6 C12 5.34 12 4.68 12 4 C8.04 4 4.08 4 0 4 C0 2.68 0 1.36 0 0 Z " fill="#534A48" transform="translate(11,61)"/>
<path d="M0 0 C0.375 2.25 0.375 2.25 0 5 C-1.97321053 6.3726682 -3.97543152 7.70427617 -6 9 C-7.41190564 11.60437233 -7.41190564 11.60437233 -8 14 C-8.66 13.67 -9.32 13.34 -10 13 C-10.31385643 4.83973289 -10.31385643 4.83973289 -8 2 C-5.2520429 0.85501787 -2.989803 0 0 0 Z " fill="#D1CFCE" transform="translate(52,60)"/>
<path d="M0 0 C0.33 0 0.66 0 1 0 C1.36262997 2.43651378 1.71538964 4.87376977 2.0625 7.3125 C2.16626953 8.00279297 2.27003906 8.69308594 2.37695312 9.40429688 C2.83808836 12.69584836 3.06594625 14.80216124 2 18 C-2.25061356 19.41687119 -4.71851625 18.19320039 -9 17 C-9 16.67 -9 16.34 -9 16 C-7.02 16 -5.04 16 -3 16 C-3 15.34 -3 14.68 -3 14 C-4.65 14.33 -6.3 14.66 -8 15 C-8 14.34 -8 13.68 -8 13 C-7.030625 12.690625 -6.06125 12.38125 -5.0625 12.0625 C-2.15934208 11.30476658 -2.15934208 11.30476658 -1 10 C-0.76712992 8.31816052 -0.58735834 6.6287584 -0.4375 4.9375 C-0.35371094 4.01839844 -0.26992188 3.09929688 -0.18359375 2.15234375 C-0.12300781 1.44207031 -0.06242187 0.73179688 0 0 Z " fill="#908175" transform="translate(61,51)"/>
<path d="M0 0 C0.33 0 0.66 0 1 0 C1 6.6 1 13.2 1 20 C-1.64 20 -4.28 20 -7 20 C-6.67 19.34 -6.34 18.68 -6 18 C-4.02 18 -2.04 18 0 18 C0 17.34 0 16.68 0 16 C-3.96 16.495 -3.96 16.495 -8 17 C-7.34 14.03 -6.68 11.06 -6 8 C-5.67 9.32 -5.34 10.64 -5 12 C-3.35 12 -1.7 12 0 12 C0 8.04 0 4.08 0 0 Z " fill="#DAD0CA" transform="translate(38,50)"/>
<path d="M0 0 C0 3.5026964 -0.77986789 6.25938784 -1.75 9.625 C-2.07484375 10.79289062 -2.3996875 11.96078125 -2.734375 13.1640625 C-3.36085938 14.56785156 -3.36085938 14.56785156 -4 16 C-5.32 16.33 -6.64 16.66 -8 17 C-8 14.03 -8 11.06 -8 8 C-7.01 7.67 -6.02 7.34 -5 7 C-4.7834375 6.071875 -4.7834375 6.071875 -4.5625 5.125 C-3.8127546 2.2926285 -2.40269349 1.55012483 0 0 Z " fill="#C74A03" transform="translate(36,47)"/>
<path d="M0 0 C3.3 0 6.6 0 10 0 C10 0.66 10 1.32 10 2 C9.34 2 8.68 2 8 2 C8.66 3.32 9.32 4.64 10 6 C6.52674819 7.1577506 3.63932552 7.06866652 0 7 C0 4.69 0 2.38 0 0 Z " fill="#AC9478" transform="translate(67,38)"/>
<path d="M0 0 C0.33 0 0.66 0 1 0 C1 1.65 1 3.3 1 5 C1.804375 4.814375 2.60875 4.62875 3.4375 4.4375 C7.78253084 3.90389972 11.68989724 4.3774296 16 5 C15.34 6.32 14.68 7.64 14 9 C10.04 9 6.08 9 2 9 C2 8.01 2 7.02 2 6 C1.34 6 0.68 6 0 6 C0 4.02 0 2.04 0 0 Z " fill="#1D1E1E" transform="translate(10,55)"/>
<path d="M0 0 C-1.875 5.75 -1.875 5.75 -3 8 C-1.35 7.34 0.3 6.68 2 6 C1.67 6.99 1.34 7.98 1 9 C-2.5625 10.1875 -2.5625 10.1875 -6 11 C-6 10.34 -6 9.68 -6 9 C-6.66 8.67 -7.32 8.34 -8 8 C-7.6875 5.125 -7.6875 5.125 -7 2 C-4 0 -4 0 0 0 Z " fill="#A89385" transform="translate(55,43)"/>
<path d="M0 0 C1.32 0.33 2.64 0.66 4 1 C1 5.5 1 5.5 -2 10 C-2.66 10 -3.32 10 -4 10 C-4.33 10.99 -4.66 11.98 -5 13 C-5.08159574 8.83861737 -4.98248524 5.0527516 -4 1 C-2.02 1.495 -2.02 1.495 0 2 C0 1.34 0 0.68 0 0 Z " fill="#F49F13" transform="translate(47,37)"/>
<path d="M0 0 C2.64 0 5.28 0 8 0 C8 0.66 8 1.32 8 2 C6.68 2 5.36 2 4 2 C4.66 3.98 5.32 5.96 6 8 C4.6078125 7.7215625 4.6078125 7.7215625 3.1875 7.4375 C-0.01343771 6.75876119 -0.01343771 6.75876119 -3 8 C-1.125 2.25 -1.125 2.25 0 0 Z " fill="#958171" transform="translate(55,43)"/>
<path d="M0 0 C4.95 0 9.9 0 15 0 C14.67 0.66 14.34 1.32 14 2 C10.04 2 6.08 2 2 2 C2 2.99 2 3.98 2 5 C3.32 5.33 4.64 5.66 6 6 C3.69 6 1.38 6 -1 6 C-0.67 4.02 -0.34 2.04 0 0 Z " fill="#EFD1AD" transform="translate(15,40)"/>
<path d="M0 0 C2.31 0 4.62 0 7 0 C7 0.99 7 1.98 7 3 C9.97 3.495 9.97 3.495 13 4 C12.01 5.485 12.01 5.485 11 7 C11 6.34 11 5.68 11 5 C6.71 5 2.42 5 -2 5 C-1.34 4.34 -0.68 3.68 0 3 C0 2.01 0 1.02 0 0 Z " fill="#7B5532" transform="translate(17,42)"/>
<path d="M0 0 C0.99 0.33 1.98 0.66 3 1 C3 1.66 3 2.32 3 3 C3.66 3.33 4.32 3.66 5 4 C4.34 5.32 3.68 6.64 3 8 C1.35 8 -0.3 8 -2 8 C-1.125 1.125 -1.125 1.125 0 0 Z " fill="#82665C" transform="translate(47,51)"/>
<path d="M0 0 C1.0625 1.8125 1.0625 1.8125 2 4 C1.67 4.99 1.34 5.98 1 7 C0.34 6.67 -0.32 6.34 -1 6 C-1 5.34 -1 4.68 -1 4 C-1.66 4 -2.32 4 -3 4 C-3 5.65 -3 7.3 -3 9 C-3.99 8.67 -4.98 8.34 -6 8 C-5.125 3.25 -5.125 3.25 -4 1 C-2.68 1.33 -1.36 1.66 0 2 C0 1.34 0 0.68 0 0 Z " fill="#EDDED0" transform="translate(41,46)"/>
<path d="M0 0 C3.63 0 7.26 0 11 0 C11 0.99 11 1.98 11 3 C13.97 2.34 16.94 1.68 20 1 C17.13888288 3.86111712 15.7184603 4.7915004 12 6 C11.01 6 10.02 6 9 6 C9 4.68 9 3.36 9 2 C6.03 1.67 3.06 1.34 0 1 C0 0.67 0 0.34 0 0 Z " fill="#A15623" transform="translate(20,39)"/>
<path d="M0 0 C1.4540625 0.0309375 1.4540625 0.0309375 2.9375 0.0625 C3.2675 1.0525 3.5975 2.0425 3.9375 3.0625 C4.9275 2.7325 5.9175 2.4025 6.9375 2.0625 C7.5975 2.7225 8.2575 3.3825 8.9375 4.0625 C3.1875 7.0625 3.1875 7.0625 0.9375 7.0625 C0.6075 5.4125 0.2775 3.7625 -0.0625 2.0625 C-1.3825 1.7325 -2.7025 1.4025 -4.0625 1.0625 C-3.0625 0.0625 -3.0625 0.0625 0 0 Z " fill="#513227" transform="translate(49.0625,67.9375)"/>
<path d="M0 0 C2.64 0 5.28 0 8 0 C8.33 1.32 8.66 2.64 9 4 C6.36 4 3.72 4 1 4 C0.67 2.68 0.34 1.36 0 0 Z " fill="#22130E" transform="translate(31,70)"/>
<path d="M0 0 C0.99 0.99 1.98 1.98 3 3 C2.34 5.31 1.68 7.62 1 10 C0.01 9.34 -0.98 8.68 -2 8 C-2 7.34 -2 6.68 -2 6 C-1.34 6 -0.68 6 0 6 C0 5.34 0 4.68 0 4 C-3.3 4 -6.6 4 -10 4 C-10 3.67 -10 3.34 -10 3 C-6.7 2.67 -3.4 2.34 0 2 C0 1.34 0 0.68 0 0 Z " fill="#574E42" transform="translate(77,34)"/>
<path d="M0 0 C3.63 0 7.26 0 11 0 C10.67 0.99 10.34 1.98 10 3 C6.7 3 3.4 3 0 3 C0 2.01 0 1.02 0 0 Z " fill="#D1AF86" transform="translate(54,38)"/>
<path d="M0 0 C-0.3125 1.875 -0.3125 1.875 -1 4 C-4 6 -4 6 -7 6 C-6.625 3.5625 -6.625 3.5625 -6 1 C-4 0 -4 0 0 0 Z " fill="#E2D7CC" transform="translate(55,43)"/>
<path d="M0 0 C2 3 2 3 2 5 C-5.92 5.495 -5.92 5.495 -14 6 C-14 5.34 -14 4.68 -14 4 C-8.48727081 2.28915301 -5.46809845 1.5393557 0 4 C0 2.68 0 1.36 0 0 Z " fill="#9C908E" transform="translate(30,70)"/>
<path d="M0 0 C2.875 -0.125 2.875 -0.125 6 0 C8 2 8 2 8 4 C6.02 4.33 4.04 4.66 2 5 C1.34 3.35 0.68 1.7 0 0 Z " fill="#4D3F38" transform="translate(13,70)"/>
<path d="M0 0 C0.99 0.33 1.98 0.66 3 1 C3 2.65 3 4.3 3 6 C1.35 6 -0.3 6 -2 6 C-2 4.35 -2 2.7 -2 1 C-1.34 0.67 -0.68 0.34 0 0 Z " fill="#150A08" transform="translate(47,69)"/>
<path d="M0 0 C1.4540625 0.0309375 1.4540625 0.0309375 2.9375 0.0625 C2.6075 1.0525 2.2775 2.0425 1.9375 3.0625 C-0.04973268 3.76631157 -2.05027953 4.4336811 -4.0625 5.0625 C-4.3925 5.7225 -4.7225 6.3825 -5.0625 7.0625 C-4.02286585 0.0820993 -4.02286585 0.0820993 0 0 Z " fill="#B6ACAB" transform="translate(47.0625,58.9375)"/>
<path d="M0 0 C0.66 0.66 1.32 1.32 2 2 C5.58343976 2.16677282 5.58343976 2.16677282 9 2 C9 2.66 9 3.32 9 4 C6.03 4.66 3.06 5.32 0 6 C0 4.02 0 2.04 0 0 Z " fill="#EEE9E2" transform="translate(29,64)"/>
<path d="M0 0 C-0.33 0.66 -0.66 1.32 -1 2 C-3.06640625 2.4140625 -3.06640625 2.4140625 -5.5625 2.625 C-6.38878906 2.69976562 -7.21507812 2.77453125 -8.06640625 2.8515625 C-9.02353516 2.92503906 -9.02353516 2.92503906 -10 3 C-10 2.01 -10 1.02 -10 0 C-6.30458414 -0.95024979 -3.69541586 -0.95024979 0 0 Z " fill="#EF8E0B" transform="translate(41,39)"/>
<path d="M0 0 C0.33 0 0.66 0 1 0 C1.22786458 2.05078125 1.45572917 4.1015625 1.68359375 6.15234375 C1.81886614 8.01140229 1.81886614 8.01140229 3 9 C3.04063832 10.66617115 3.042721 12.33388095 3 14 C2.01 13.67 1.02 13.34 0 13 C0 8.71 0 4.42 0 0 Z " fill="#401A15" transform="translate(39,50)"/>
<path d="M0 0 C1.65 0 3.3 0 5 0 C4.67 0.99 4.34 1.98 4 3 C3.34 3 2.68 3 2 3 C1.67 4.32 1.34 5.64 1 7 C0.34 6.67 -0.32 6.34 -1 6 C-0.34 5.01 0.32 4.02 1 3 C0.34 3 -0.32 3 -1 3 C-0.67 2.01 -0.34 1.02 0 0 Z " fill="#AAA09D" transform="translate(51,52)"/>
<path d="M0 0 C0.99 0 1.98 0 3 0 C2.67 1.65 2.34 3.3 2 5 C3.32 5.33 4.64 5.66 6 6 C3.69 6 1.38 6 -1 6 C-0.67 4.02 -0.34 2.04 0 0 Z " fill="#C79B73" transform="translate(15,40)"/>
<path d="M0 0 C1.65 0 3.3 0 5 0 C5.33 1.32 5.66 2.64 6 4 C3.69 4 1.38 4 -1 4 C-0.67 2.68 -0.34 1.36 0 0 Z " fill="#BE8A54" transform="translate(24,42)"/>
<path d="M0 0 C0 2.95274099 -0.43891831 4.49058403 -1.5 7.1875 C-1.7784375 7.90292969 -2.056875 8.61835937 -2.34375 9.35546875 C-2.5603125 9.89816406 -2.776875 10.44085938 -3 11 C-4.15392455 8.6921509 -4.53437166 6.52769669 -5 4 C-3.35 2.68 -1.7 1.36 0 0 Z " fill="#BE7741" transform="translate(36,47)"/>
<path d="M0 0 C1.32 0.33 2.64 0.66 4 1 C2.02 3.97 2.02 3.97 0 7 C-0.33 6.01 -0.66 5.02 -1 4 C-1.66 3.67 -2.32 3.34 -3 3 C-2.01 3 -1.02 3 0 3 C0 2.01 0 1.02 0 0 Z " fill="#CF6504" transform="translate(47,37)"/>
<path d="M0 0 C2.64 0.33 5.28 0.66 8 1 C8 1.66 8 2.32 8 3 C5.03 2.505 5.03 2.505 2 2 C1.67 2.66 1.34 3.32 1 4 C0.67 2.68 0.34 1.36 0 0 Z " fill="#271610" transform="translate(52,68)"/>
<path d="M0 0 C0.33 0.66 0.66 1.32 1 2 C2.98 2 4.96 2 7 2 C4.63707344 4.52588702 3.33537489 5.88820837 0 7 C0 4.69 0 2.38 0 0 Z " fill="#3E2D27" transform="translate(63,61)"/>
<path d="M0 0 C1.54046762 4.10791365 0.75996191 7.78566579 0 12 C-0.99 12.495 -0.99 12.495 -2 13 C-2.33 12.01 -2.66 11.02 -3 10 C-2.67 9.67 -2.34 9.34 -2 9 C-1.79395915 7.67218122 -1.6337041 6.33704105 -1.5 5 C-1.11111111 1.11111111 -1.11111111 1.11111111 0 0 Z " fill="#E3D3BF" transform="translate(28,51)"/>
<path d="M0 0 C-1.24546405 3.73639216 -2.63404953 4.18756513 -6 6 C-6 4.35 -6 2.7 -6 1 C-3 0 -3 0 0 0 Z " fill="#531703" transform="translate(39,44)"/>
<path d="M0 0 C0.33 0 0.66 0 1 0 C1.33 1.65 1.66 3.3 2 5 C2.66 4.67 3.32 4.34 4 4 C3.67 5.65 3.34 7.3 3 9 C2.01 9 1.02 9 0 9 C0 6.03 0 3.06 0 0 Z " fill="#ED8835" transform="translate(28,55)"/>
<path d="M0 0 C2.31 0.66 4.62 1.32 7 2 C6.67 2.99 6.34 3.98 6 5 C4.68 5 3.36 5 2 5 C2 4.34 2 3.68 2 3 C1.34 3 0.68 3 0 3 C0 2.01 0 1.02 0 0 Z " fill="#0D0A08" transform="translate(62,58)"/>
<path d="M0 0 C2.0625 0.4375 2.0625 0.4375 4 1 C4 1.66 4 2.32 4 3 C-0.29 3 -4.58 3 -9 3 C-9 2.67 -9 2.34 -9 2 C-6.94921875 1.77213542 -4.8984375 1.54427083 -2.84765625 1.31640625 C-0.98859771 1.18113386 -0.98859771 1.18113386 0 0 Z " fill="#2F2625" transform="translate(41,72)"/>
<path d="M0 0 C0.99 0.33 1.98 0.66 3 1 C2.6875 2.9375 2.6875 2.9375 2 5 C1.01 5.33 0.02 5.66 -1 6 C-1.33 4.35 -1.66 2.7 -2 1 C-1.34 0.67 -0.68 0.34 0 0 Z " fill="#573224" transform="translate(23,66)"/>
<path d="M0 0 C0 0.66 0 1.32 0 2 C-3.63 2.33 -7.26 2.66 -11 3 C-6.577168 -0.317124 -5.28089024 -0.30466674 0 0 Z " fill="#B8ACA6" transform="translate(58,65)"/>
<path d="M0 0 C0.66 0.66 1.32 1.32 2 2 C1.01 4.97 0.02 7.94 -1 11 C-1.33 11 -1.66 11 -2 11 C-1.85957123 9.35369672 -1.71250671 7.70795821 -1.5625 6.0625 C-1.48128906 5.14597656 -1.40007813 4.22945312 -1.31640625 3.28515625 C-1 1 -1 1 0 0 Z " fill="#651F0E" transform="translate(47,43)"/>
<path d="M0 0 C0.33 0 0.66 0 1 0 C1 1.65 1 3.3 1 5 C1.99 5.33 2.98 5.66 4 6 C3.195625 6.12375 2.39125 6.2475 1.5625 6.375 C0.2940625 6.684375 0.2940625 6.684375 -1 7 C-1.33 7.66 -1.66 8.32 -2 9 C-1.34 6.03 -0.68 3.06 0 0 Z " fill="#D0B193" transform="translate(32,58)"/>
<path d="M0 0 C1.65 0 3.3 0 5 0 C5.66 1.32 6.32 2.64 7 4 C5.35 4 3.7 4 2 4 C2 3.34 2 2.68 2 2 C1.34 2 0.68 2 0 2 C0 1.34 0 0.68 0 0 Z " fill="#AA8E70" transform="translate(70,40)"/>
</svg>
