<svg width="217" height="184" viewBox="0 0 217 184" fill="none" xmlns="http://www.w3.org/2000/svg">
<g clip-path="url(#clip0_13_216)">
<path d="M97.587 45.572C97.587 44.63 97.3077 43.7091 96.7843 42.9259C96.261 42.1426 95.5171 41.5321 94.6468 41.1716C93.7764 40.8111 92.8187 40.7167 91.8948 40.9005C90.9709 41.0843 90.1222 41.5379 89.4561 42.2041C88.79 42.8702 88.3363 43.7189 88.1526 44.6428C87.9688 45.5668 88.0631 46.5244 88.4236 47.3947C88.7841 48.2651 89.3946 49.0089 90.1778 49.5323C90.9611 50.0557 91.882 50.335 92.824 50.335C94.0872 50.335 95.2987 49.8332 96.192 48.94C97.0852 48.0467 97.587 46.8353 97.587 45.572ZM91.287 46.44C90.8553 46.44 90.4332 46.312 90.0742 46.0722C89.7152 45.8323 89.4354 45.4913 89.2702 45.0924C89.1049 44.6935 89.0617 44.2546 89.146 43.8311C89.2302 43.4077 89.4381 43.0187 89.7434 42.7134C90.0487 42.4081 90.4376 42.2002 90.8611 42.116C91.2846 42.0318 91.7235 42.075 92.1224 42.2402C92.5213 42.4054 92.8623 42.6852 93.1021 43.0442C93.342 43.4032 93.47 43.8253 93.47 44.257C93.4701 44.5437 93.4138 44.8276 93.3042 45.0925C93.1946 45.3574 93.0339 45.5981 92.8313 45.8009C92.6287 46.0037 92.3881 46.1647 92.1233 46.2745C91.8585 46.3843 91.5747 46.4409 91.288 46.4411L91.287 46.44Z" fill="#4A4B4D"/>
<path d="M122.282 40.809C121.34 40.809 120.419 41.0884 119.636 41.6117C118.853 42.1351 118.242 42.879 117.882 43.7493C117.521 44.6196 117.427 45.5773 117.611 46.5012C117.794 47.4251 118.248 48.2738 118.914 48.9399C119.58 49.606 120.429 50.0597 121.353 50.2435C122.277 50.4273 123.234 50.333 124.105 49.9725C124.975 49.612 125.719 49.0015 126.242 48.2182C126.766 47.4349 127.045 46.514 127.045 45.572C127.045 44.3088 126.543 43.0973 125.65 42.204C124.757 41.3108 123.545 40.809 122.282 40.809ZM120.746 46.441C120.314 46.441 119.892 46.313 119.533 46.0731C119.174 45.8332 118.894 45.4923 118.729 45.0934C118.564 44.6945 118.521 44.2556 118.605 43.8321C118.689 43.4087 118.897 43.0197 119.202 42.7144C119.508 42.4091 119.897 42.2012 120.32 42.1169C120.744 42.0327 121.183 42.076 121.581 42.2412C121.98 42.4064 122.321 42.6862 122.561 43.0452C122.801 43.4042 122.929 43.8262 122.929 44.258C122.929 44.837 122.699 45.3922 122.29 45.8016C121.88 46.211 121.325 46.441 120.746 46.441Z" fill="#4A4B4D"/>
<path d="M114.265 71.834C114.265 68.127 111.26 62.734 107.553 62.734C103.846 62.734 100.841 68.128 100.841 71.834C100.841 75.54 103.841 75.689 107.553 75.689C111.265 75.689 114.265 75.541 114.265 71.834Z" fill="#4A4B4D"/>
<path d="M108.282 92.388C119.361 92.388 128.342 87.631 128.342 81.762C128.342 79.503 127.008 77.41 124.742 75.689C125.57 76.7772 126.03 78.1008 126.056 79.468C126.056 85.336 117.075 90.093 105.995 90.093C99.181 90.093 93.164 88.293 89.538 85.541C92.415 89.545 99.72 92.388 108.282 92.388Z" fill="#4A4B4D"/>
<path d="M72.687 45.404C73.087 49.237 74.387 52.175 76.081 52.749C78.2824 53.3994 80.5645 53.736 82.86 53.749C82.5364 53.0134 82.2611 52.2575 82.036 51.486C80.336 45.626 81.722 39.738 85.16 36.073C83.683 35.939 82.191 35.864 80.737 35.864C78.9763 35.7293 77.2064 35.944 75.529 36.496C75.0301 36.7713 74.6003 37.1563 74.272 37.622C74.9415 37.8693 75.5694 38.2173 76.134 38.654C76.093 38.728 76.047 38.798 76.002 38.873C74.7671 40.9816 73.6601 43.1625 72.687 45.404Z" fill="#4A4B4D"/>
<path d="M132.938 51.156C132.691 52.0452 132.377 52.9143 131.998 53.756C134.375 53.7566 136.74 53.4162 139.021 52.745C140.709 52.171 142.011 49.2451 142.413 45.4131C141.397 43.1058 140.239 40.8635 138.946 38.699C139.522 38.254 140.156 37.8899 140.831 37.617C140.502 37.1506 140.072 36.765 139.573 36.489C137.896 35.9376 136.126 35.7231 134.365 35.858C132.897 35.858 131.392 35.935 129.903 36.071C133.188 39.716 134.521 45.436 132.938 51.156Z" fill="#4A4B4D"/>
<path d="M157.842 43.55C156.784 40.4615 155.043 37.6517 152.748 35.33C152.695 35.567 152.628 35.8008 152.548 36.03C152.122 37.0716 151.32 37.9148 150.301 38.392C149.613 38.786 149.521 38.862 149.451 39.292L149.37 39.792C150.981 41.3 152.196 43.1813 152.908 45.27C154.948 51.112 152.908 57.143 148.345 58.734C147.803 58.9232 147.239 59.0439 146.667 59.093C146.651 59.01 146.639 58.928 146.622 58.841C146.303 57.135 145.901 55.427 145.422 53.729C144.475 55.494 142.929 56.8626 141.062 57.588C137.547 58.6522 133.886 59.1583 130.214 59.088C129.58 59.088 128.948 59.074 128.321 59.05C128.266 59.103 128.216 59.16 128.161 59.212C134.261 63.454 138.108 69.571 138.154 76.398C138.236 89.334 124.654 99.908 107.805 100.02C90.956 100.132 77.238 89.73 77.151 76.794C77.11 69.967 80.874 63.801 86.917 59.481C86.771 59.346 86.632 59.2 86.49 59.059C85.96 59.077 85.427 59.089 84.89 59.089C81.2181 59.1592 77.5579 58.6531 74.0429 57.589C72.1928 56.872 70.6573 55.5215 69.7099 53.778C69.2009 55.629 68.777 57.492 68.454 59.353C68.0698 61.527 67.8234 63.723 67.716 65.928C67.666 66.823 67.65 67.713 67.654 68.595C67.802 91.577 84.8539 105.242 107.835 105.095C130.816 104.948 147.686 91.059 147.535 68.076C147.535 67.276 147.502 66.476 147.453 65.665C148.51 65.6118 149.554 65.4077 150.553 65.059C157.837 62.517 161.102 52.887 157.842 43.55Z" fill="#4A4B4D"/>
<path d="M99.036 33.049C99.4933 33.2127 99.941 33.402 100.377 33.616C104.869 34.4899 109.484 34.5285 113.99 33.73C115.087 33.1241 116.266 32.6802 117.49 32.412C121.92 30.6231 126.549 29.3744 131.277 28.693C131.126 28.54 130.977 28.383 130.826 28.232C128.759 26.185 120.71 19.888 119.841 19.132C116.83 16.514 108.741 9.90503 106.848 3.05176e-05C105.249 2.06151 104.37 4.59097 104.348 7.19998C104.314 9.9546 104.962 12.6749 106.235 15.118C104.053 13.829 100.235 7.36301 99.435 2.74301C96.677 6.75701 97.511 15.243 98.686 17.608C95.472 16.275 92.872 10.521 92.817 8.13101C91.203 10.156 89.299 16.886 92.255 21.931C89.1177 23.7846 86.2456 26.0542 83.717 28.678C89.0034 29.4076 94.1606 30.8791 99.036 33.049Z" fill="#4A4B4D"/>
<path d="M68.469 59.099C67.8868 59.0518 67.3132 58.9301 66.762 58.737C62.199 57.146 60.162 51.115 62.199 45.273C62.9107 43.1842 64.1257 41.3028 65.737 39.795L65.657 39.295C65.587 38.864 65.495 38.789 64.807 38.395C63.7879 37.9179 62.9857 37.0746 62.56 36.033C62.4795 35.8038 62.4128 35.5701 62.36 35.333C60.0645 37.6543 58.3231 40.4643 57.266 43.553C54.005 52.89 57.266 62.52 64.554 65.064C65.5646 65.418 66.6213 65.6235 67.691 65.674C67.8119 63.4682 68.0717 61.2721 68.469 59.099Z" fill="#4A4B4D"/>
<path d="M149.701 29.836C147.001 28.825 134.539 30.168 134.539 30.168C127.377 30.798 119.757 33.089 115.745 35.294C115.563 35.33 115.352 35.373 115.095 35.422C110.092 36.3995 104.947 36.3995 99.944 35.422C99.732 35.381 99.544 35.345 99.388 35.313C95.388 33.103 87.744 30.8 80.561 30.169C80.561 30.169 68.103 28.826 65.398 29.837C63.626 30.5 63.823 34.111 64.298 35.395C64.905 37.051 67.098 36.633 67.484 38.995C68.264 43.782 69.606 54.122 74.64 55.835C77.9628 56.8338 81.4211 57.3079 84.89 57.24C89.156 57.3074 93.4029 56.6566 97.453 55.3151C102.953 53.2651 104.294 47.477 104.208 43.143C104.201 42.6978 104.351 42.2644 104.632 41.9194C104.914 41.5744 105.308 41.3401 105.746 41.258C106.329 41.1314 106.923 41.0594 107.519 41.043C108.136 41.061 108.749 41.1374 109.351 41.271C109.789 41.3529 110.184 41.587 110.466 41.932C110.747 42.277 110.898 42.7106 110.891 43.156C110.808 47.489 112.147 53.268 117.647 55.316C121.697 56.6577 125.945 57.3084 130.211 57.241C133.68 57.3088 137.138 56.8348 140.461 55.836C145.495 54.123 146.836 43.782 147.617 38.996C148.002 36.631 150.196 37.05 150.803 35.396C151.276 34.11 151.474 30.499 149.701 29.836ZM96.568 53.843C90.93 55.792 80.837 56.326 75.483 54.504C72.383 53.45 70.702 48.529 70.702 42.904C70.702 38.779 72.988 35.587 74.778 34.796C76.6886 34.1258 78.7168 33.8569 80.736 34.006C87.307 34.006 95.05 35.426 98.73 37.688C99.5389 38.1319 100.234 38.7569 100.761 39.5141C101.289 40.2714 101.633 41.1403 101.769 42.053C101.95 44.675 102.286 51.866 96.568 53.843ZM139.622 54.504C134.269 56.325 124.175 55.791 118.537 53.843C112.819 51.866 113.155 44.675 113.337 42.056C113.473 41.1434 113.817 40.2744 114.345 39.5172C114.872 38.76 115.567 38.1349 116.376 37.691C120.056 35.429 127.799 34.009 134.37 34.009C136.389 33.86 138.417 34.1289 140.328 34.799C142.118 35.59 144.403 38.782 144.403 42.907C144.403 48.53 142.722 53.45 139.622 54.504Z" fill="#FC6011"/>
<path d="M75.1257 130.273V155H72.2762V130.273H75.1257Z" fill="#FC6011"/>
<path d="M58.5755 155.435C57.4003 155.435 56.3337 155.213 55.3759 154.771C54.418 154.32 53.6574 153.672 53.0939 152.827C52.5305 151.973 52.2487 150.943 52.2487 149.736C52.2487 148.673 52.458 147.812 52.8766 147.152C53.2952 146.484 53.8546 145.961 54.5549 145.582C55.2551 145.204 56.0279 144.922 56.873 144.737C57.7263 144.544 58.5835 144.391 59.4448 144.278C60.5717 144.134 61.4853 144.025 62.1855 143.952C62.8939 143.872 63.409 143.739 63.731 143.554C64.061 143.369 64.226 143.047 64.226 142.588V142.491C64.226 141.3 63.9 140.375 63.248 139.714C62.6041 139.054 61.6261 138.724 60.3141 138.724C58.9538 138.724 57.8872 139.022 57.1145 139.618C56.3418 140.214 55.7985 140.849 55.4845 141.526L52.78 140.56C53.263 139.433 53.9069 138.555 54.7118 137.928C55.5248 137.292 56.4102 136.849 57.3681 136.599C58.334 136.342 59.2838 136.213 60.2175 136.213C60.8131 136.213 61.4973 136.286 62.2701 136.43C63.0508 136.567 63.8034 136.853 64.5279 137.288C65.2603 137.722 65.8681 138.378 66.351 139.256C66.834 140.133 67.0755 141.308 67.0755 142.781V155H64.226V152.489H64.0811C63.888 152.891 63.566 153.322 63.1152 153.781C62.6645 154.239 62.0648 154.63 61.3162 154.952C60.5676 155.274 59.6541 155.435 58.5755 155.435ZM59.0101 152.875C60.137 152.875 61.0868 152.654 61.8595 152.211C62.6403 151.768 63.2279 151.197 63.6223 150.496C64.0248 149.796 64.226 149.06 64.226 148.287V145.679C64.1053 145.824 63.8397 145.957 63.4291 146.077C63.0267 146.19 62.5598 146.291 62.0286 146.379C61.5054 146.46 60.9943 146.532 60.4952 146.597C60.0042 146.653 59.6058 146.701 59.2999 146.741C58.5594 146.838 57.8671 146.995 57.2232 147.212C56.5873 147.422 56.0721 147.74 55.6777 148.166C55.2914 148.585 55.0982 149.156 55.0982 149.881C55.0982 150.871 55.4644 151.619 56.1969 152.126C56.9374 152.625 57.8752 152.875 59.0101 152.875Z" fill="#FC6011"/>
<path d="M41.1046 155.386C39.3176 155.386 37.7762 154.992 36.4803 154.203C35.1924 153.406 34.1983 152.295 33.498 150.871C32.8058 149.438 32.4597 147.772 32.4597 145.872C32.4597 143.973 32.8058 142.298 33.498 140.849C34.1983 139.393 35.1723 138.258 36.4199 137.445C37.6756 136.624 39.1406 136.213 40.8148 136.213C41.7807 136.213 42.7345 136.374 43.6763 136.696C44.6181 137.018 45.4753 137.541 46.248 138.266C47.0208 138.982 47.6365 139.932 48.0953 141.115C48.5541 142.298 48.7836 143.755 48.7836 145.486V146.693H34.4881V144.23H45.8858C45.8858 143.184 45.6765 142.25 45.258 141.429C44.8475 140.608 44.2599 139.96 43.4952 139.485C42.7386 139.01 41.8451 138.773 40.8148 138.773C39.6799 138.773 38.6979 139.054 37.8688 139.618C37.0478 140.173 36.4159 140.898 35.9732 141.791C35.5305 142.685 35.3091 143.643 35.3091 144.665V146.307C35.3091 147.707 35.5506 148.895 36.0336 149.869C36.5246 150.835 37.2047 151.571 38.074 152.078C38.9434 152.577 39.9535 152.827 41.1046 152.827C41.8532 152.827 42.5293 152.722 43.133 152.513C43.7447 152.295 44.2719 151.973 44.7147 151.547C45.1574 151.112 45.4995 150.573 45.7409 149.929L48.4938 150.702C48.204 151.635 47.717 152.456 47.0328 153.165C46.3487 153.865 45.5035 154.412 44.4973 154.807C43.4912 155.193 42.3603 155.386 41.1046 155.386Z" fill="#FC6011"/>
<path d="M3.46732 130.273H7.04118L15.4446 150.798H15.7344L24.1378 130.273H27.7116V155H24.9105V136.213H24.669L16.9417 155H14.2372L6.50993 136.213H6.26845V155H3.46732V130.273Z" fill="#FC6011"/>
<path d="M195.639 161.955C195.156 161.955 194.725 161.914 194.347 161.834C193.969 161.761 193.707 161.689 193.562 161.616L194.287 159.105C194.979 159.282 195.591 159.347 196.122 159.298C196.653 159.25 197.124 159.013 197.535 158.586C197.953 158.167 198.336 157.487 198.682 156.545L199.213 155.097L192.355 136.455H195.446L200.565 151.233H200.758L205.878 136.455H208.969L201.096 157.705C200.742 158.662 200.304 159.455 199.78 160.083C199.257 160.719 198.649 161.19 197.957 161.496C197.273 161.802 196.5 161.955 195.639 161.955Z" fill="#4A4B4D"/>
<path d="M182.355 155.386C180.568 155.386 179.026 154.992 177.731 154.203C176.443 153.406 175.449 152.295 174.748 150.871C174.056 149.438 173.71 147.772 173.71 145.872C173.71 143.973 174.056 142.298 174.748 140.849C175.449 139.393 176.423 138.258 177.67 137.445C178.926 136.624 180.391 136.213 182.065 136.213C183.031 136.213 183.985 136.374 184.927 136.696C185.868 137.018 186.726 137.541 187.498 138.266C188.271 138.982 188.887 139.932 189.346 141.115C189.804 142.298 190.034 143.755 190.034 145.486V146.693H175.738V144.23H187.136C187.136 143.184 186.927 142.25 186.508 141.429C186.098 140.608 185.51 139.96 184.745 139.485C183.989 139.01 183.095 138.773 182.065 138.773C180.93 138.773 179.948 139.054 179.119 139.618C178.298 140.173 177.666 140.898 177.223 141.791C176.781 142.685 176.559 143.643 176.559 144.665V146.307C176.559 147.707 176.801 148.895 177.284 149.869C177.775 150.835 178.455 151.571 179.324 152.078C180.194 152.577 181.204 152.827 182.355 152.827C183.103 152.827 183.78 152.722 184.383 152.513C184.995 152.295 185.522 151.973 185.965 151.547C186.408 151.112 186.75 150.573 186.991 149.929L189.744 150.702C189.454 151.635 188.967 152.456 188.283 153.165C187.599 153.865 186.754 154.412 185.748 154.807C184.741 155.193 183.61 155.386 182.355 155.386Z" fill="#4A4B4D"/>
<path d="M159.505 148.239L159.457 144.713H160.036L168.15 136.455H171.675L163.031 145.196H162.789L159.505 148.239ZM156.849 155V130.273H159.698V155H156.849ZM168.633 155L161.389 145.824L163.417 143.844L172.255 155H168.633Z" fill="#4A4B4D"/>
<path d="M139.81 143.844V155H136.96V136.455H139.713V139.352H139.954C140.389 138.411 141.049 137.654 141.935 137.082C142.82 136.503 143.963 136.213 145.364 136.213C146.619 136.213 147.718 136.471 148.66 136.986C149.601 137.493 150.334 138.266 150.857 139.304C151.38 140.334 151.642 141.638 151.642 143.216V155H148.792V143.409C148.792 141.952 148.414 140.817 147.658 140.004C146.901 139.183 145.863 138.773 144.542 138.773C143.633 138.773 142.82 138.97 142.104 139.364C141.395 139.759 140.836 140.334 140.425 141.091C140.015 141.848 139.81 142.765 139.81 143.844Z" fill="#4A4B4D"/>
<path d="M124.207 155.386C122.533 155.386 121.064 154.988 119.8 154.191C118.544 153.394 117.562 152.279 116.854 150.847C116.154 149.414 115.804 147.74 115.804 145.824C115.804 143.892 116.154 142.206 116.854 140.765C117.562 139.324 118.544 138.205 119.8 137.408C121.064 136.611 122.533 136.213 124.207 136.213C125.881 136.213 127.346 136.611 128.602 137.408C129.866 138.205 130.848 139.324 131.548 140.765C132.256 142.206 132.611 143.892 132.611 145.824C132.611 147.74 132.256 149.414 131.548 150.847C130.848 152.279 129.866 153.394 128.602 154.191C127.346 154.988 125.881 155.386 124.207 155.386ZM124.207 152.827C125.479 152.827 126.525 152.501 127.346 151.849C128.167 151.197 128.775 150.339 129.169 149.277C129.564 148.214 129.761 147.063 129.761 145.824C129.761 144.584 129.564 143.429 129.169 142.359C128.775 141.288 128.167 140.423 127.346 139.763C126.525 139.103 125.479 138.773 124.207 138.773C122.935 138.773 121.889 139.103 121.068 139.763C120.247 140.423 119.639 141.288 119.245 142.359C118.85 143.429 118.653 144.584 118.653 145.824C118.653 147.063 118.85 148.214 119.245 149.277C119.639 150.339 120.247 151.197 121.068 151.849C121.889 152.501 122.935 152.827 124.207 152.827Z" fill="#4A4B4D"/>
<path d="M86.8113 130.273H90.3852L98.7886 150.798H99.0784L107.482 130.273H111.056V155H108.254V136.213H108.013L100.286 155H97.5812L89.8539 136.213H89.6124V155H86.8113V130.273Z" fill="#4A4B4D"/>
<path d="M139.801 177.099H140.809L142.826 180.494H142.912L144.929 177.099H145.937L143.309 181.375V184.372H142.429V181.375L139.801 177.099Z" fill="#4A4B4D"/>
<path d="M134.273 184.372V177.099H136.731C137.299 177.099 137.765 177.197 138.13 177.391C138.495 177.582 138.764 177.846 138.94 178.183C139.115 178.519 139.202 178.901 139.202 179.33C139.202 179.758 139.115 180.138 138.94 180.469C138.764 180.801 138.496 181.061 138.134 181.251C137.771 181.438 137.308 181.531 136.745 181.531H134.756V180.736H136.717C137.105 180.736 137.417 180.679 137.654 180.565C137.893 180.452 138.066 180.291 138.173 180.082C138.281 179.872 138.336 179.621 138.336 179.33C138.336 179.038 138.281 178.784 138.173 178.566C138.064 178.348 137.89 178.18 137.651 178.062C137.411 177.941 137.095 177.881 136.702 177.881H135.154V184.372H134.273ZM137.697 181.105L139.487 184.372H138.464L136.702 181.105H137.697Z" fill="#4A4B4D"/>
<path d="M128.297 184.372V177.099H132.686V177.881H129.178V180.338H132.459V181.119H129.178V183.591H132.743V184.372H128.297Z" fill="#4A4B4D"/>
<path d="M121.837 177.099L123.996 183.222H124.082L126.241 177.099H127.164L124.494 184.372H123.585L120.914 177.099H121.837Z" fill="#4A4B4D"/>
<path d="M119.773 177.099V184.372H118.893V177.099H119.773Z" fill="#4A4B4D"/>
<path d="M113.268 184.372V177.099H114.148V183.591H117.529V184.372H113.268Z" fill="#4A4B4D"/>
<path d="M107.291 184.372V177.099H111.68V177.881H108.172V180.338H111.453V181.119H108.172V183.591H111.737V184.372H107.291Z" fill="#4A4B4D"/>
<path d="M102.348 184.372H100.104V177.099H102.447C103.153 177.099 103.756 177.245 104.258 177.536C104.76 177.825 105.145 178.241 105.412 178.783C105.68 179.322 105.814 179.969 105.814 180.722C105.814 181.479 105.679 182.131 105.409 182.678C105.139 183.223 104.746 183.642 104.23 183.935C103.714 184.227 103.086 184.372 102.348 184.372ZM100.984 183.591H102.291C102.892 183.591 103.391 183.475 103.786 183.243C104.181 183.011 104.476 182.681 104.67 182.252C104.864 181.824 104.961 181.313 104.961 180.722C104.961 180.134 104.866 179.629 104.674 179.205C104.482 178.779 104.196 178.452 103.814 178.225C103.433 177.996 102.959 177.881 102.39 177.881H100.984V183.591Z" fill="#4A4B4D"/>
<path d="M92.3478 184.372H90.1035V177.099H92.4473C93.1528 177.099 93.7565 177.245 94.2583 177.536C94.7602 177.825 95.1449 178.241 95.4125 178.783C95.68 179.322 95.8137 179.969 95.8137 180.722C95.8137 181.479 95.6788 182.131 95.4089 182.678C95.139 183.223 94.746 183.642 94.2299 183.935C93.7138 184.227 93.0865 184.372 92.3478 184.372ZM90.9842 183.591H92.291C92.8923 183.591 93.3907 183.475 93.786 183.243C94.1814 183.011 94.4761 182.681 94.6703 182.252C94.8644 181.824 94.9615 181.313 94.9615 180.722C94.9615 180.134 94.8656 179.629 94.6738 179.205C94.4821 178.779 94.1956 178.452 93.8145 178.225C93.4333 177.996 92.9586 177.881 92.3904 177.881H90.9842V183.591Z" fill="#4A4B4D"/>
<path d="M88.6227 180.736C88.6227 181.503 88.4842 182.166 88.2072 182.724C87.9302 183.283 87.5503 183.714 87.0673 184.017C86.5843 184.32 86.0327 184.472 85.4125 184.472C84.7922 184.472 84.2406 184.32 83.7576 184.017C83.2747 183.714 82.8947 183.283 82.6177 182.724C82.3407 182.166 82.2022 181.503 82.2022 180.736C82.2022 179.969 82.3407 179.306 82.6177 178.747C82.8947 178.188 83.2747 177.758 83.7576 177.455C84.2406 177.152 84.7922 177 85.4125 177C86.0327 177 86.5843 177.152 87.0673 177.455C87.5503 177.758 87.9302 178.188 88.2072 178.747C88.4842 179.306 88.6227 179.969 88.6227 180.736ZM87.7704 180.736C87.7704 180.106 87.6651 179.575 87.4544 179.141C87.246 178.708 86.9631 178.38 86.6056 178.158C86.2505 177.935 85.8528 177.824 85.4125 177.824C84.9721 177.824 84.5732 177.935 84.2157 178.158C83.8606 178.38 83.5777 178.708 83.367 179.141C83.1587 179.575 83.0545 180.106 83.0545 180.736C83.0545 181.366 83.1587 181.897 83.367 182.33C83.5777 182.763 83.8606 183.091 84.2157 183.314C84.5732 183.536 84.9721 183.648 85.4125 183.648C85.8528 183.648 86.2505 183.536 86.6056 183.314C86.9631 183.091 87.246 182.763 87.4544 182.33C87.6651 181.897 87.7704 181.366 87.7704 180.736Z" fill="#4A4B4D"/>
<path d="M81.0055 180.736C81.0055 181.503 80.867 182.166 80.59 182.724C80.313 183.283 79.9331 183.714 79.4501 184.017C78.9672 184.32 78.4155 184.472 77.7953 184.472C77.175 184.472 76.6234 184.32 76.1405 184.017C75.6575 183.714 75.2775 183.283 75.0005 182.724C74.7235 182.166 74.5851 181.503 74.5851 180.736C74.5851 179.969 74.7235 179.306 75.0005 178.747C75.2775 178.188 75.6575 177.758 76.1405 177.455C76.6234 177.152 77.175 177 77.7953 177C78.4155 177 78.9672 177.152 79.4501 177.455C79.9331 177.758 80.313 178.188 80.59 178.747C80.867 179.306 81.0055 179.969 81.0055 180.736ZM80.1532 180.736C80.1532 180.106 80.0479 179.575 79.8372 179.141C79.6288 178.708 79.3459 178.38 78.9885 178.158C78.6333 177.935 78.2356 177.824 77.7953 177.824C77.3549 177.824 76.956 177.935 76.5985 178.158C76.2434 178.38 75.9605 178.708 75.7498 179.141C75.5415 179.575 75.4373 180.106 75.4373 180.736C75.4373 181.366 75.5415 181.897 75.7498 182.33C75.9605 182.763 76.2434 183.091 76.5985 183.314C76.956 183.536 77.3549 183.648 77.7953 183.648C78.2356 183.648 78.6333 183.536 78.9885 183.314C79.3459 183.091 79.6288 182.763 79.8372 182.33C80.0479 181.897 80.1532 181.366 80.1532 180.736Z" fill="#4A4B4D"/>
<path d="M69 184.372V177.099H73.3608V177.881H69.8807V180.338H73.0341V181.119H69.8807V184.372H69Z" fill="#4A4B4D"/>
</g>
<defs>
<clipPath id="clip0_13_216">
<rect width="217" height="184" fill="white"/>
</clipPath>
</defs>
</svg>
