<?xml version="1.0" encoding="UTF-8"?>
<svg version="1.1" xmlns="http://www.w3.org/2000/svg" width="750" height="1000">
<path d="M0 0 C247.5 0 495 0 750 0 C750 280.5 750 561 750 850 C738.7385639 854.50457444 738.7385639 854.50457444 734.66796875 855.23046875 C733.31541992 855.47506836 733.31541992 855.47506836 731.93554688 855.72460938 C731.02869141 855.87736328 730.12183594 856.03011719 729.1875 856.1875 C728.29224609 856.35185547 727.39699219 856.51621094 726.47460938 856.68554688 C710.96591842 859.41198578 695.40612596 859.16313164 679.71484375 859.16796875 C677.24784832 859.17118909 674.78085308 859.17455372 672.31385803 859.17805481 C667.15560464 859.18402045 661.99736793 859.18589741 656.83911133 859.18530273 C650.28242295 859.18520138 643.72584351 859.19883752 637.16918087 859.21607494 C632.07541936 859.22728446 626.98168342 859.2292192 621.88791084 859.22869301 C619.47340076 859.2298603 617.05888973 859.23421027 614.64439201 859.24202538 C585.76912092 859.32672668 553.68712735 858.87912571 530 840 C529.35933594 839.51015625 528.71867188 839.0203125 528.05859375 838.515625 C526.6533606 837.40708841 525.31650936 836.21257441 524 835 C524 834.34 524 833.68 524 833 C523.34 833 522.68 833 522 833 C509.60444587 819.06337698 503.38809252 799.28661295 498.625 781.6875 C492.71766214 760.10036787 483.09311935 741.72548666 468 725 C467.13246094 724.03835938 466.26492188 723.07671875 465.37109375 722.0859375 C449.25366136 704.84760841 428.56700168 693.32964356 406 687 C404.80890625 686.65839844 403.6178125 686.31679688 402.390625 685.96484375 C382.8184299 681.37093333 359.18966548 682.05881355 340 688 C339.32549805 688.20367188 338.65099609 688.40734375 337.95605469 688.6171875 C318.70026786 694.63056093 301.04443632 705.57598432 287 720 C286.34 720 285.68 720 285 720 C284.76152344 720.56460938 284.52304687 721.12921875 284.27734375 721.7109375 C282.72650177 724.49012221 280.80492587 726.36463472 278.5625 728.625 C264.35389164 744.02450328 255.12097015 764.269241 250.15234375 784.44140625 C246.57947475 798.77928315 241.68654393 813.89148422 233 826 C232.40703125 826.8353125 231.8140625 827.670625 231.203125 828.53125 C217.33446996 846.94882389 196.73159943 853.91276007 174.75 857.38671875 C160.43735646 859.3196507 146.1294507 859.1635252 131.71484375 859.16796875 C129.24784832 859.17118909 126.78085308 859.17455372 124.31385803 859.17805481 C119.15560464 859.18402045 113.99736793 859.18589741 108.83911133 859.18530273 C102.28242295 859.18520138 95.72584351 859.19883752 89.16918087 859.21607494 C84.07541936 859.22728446 78.98168342 859.2292192 73.88791084 859.22869301 C71.47340076 859.2298603 69.05888973 859.23421027 66.64439201 859.24202538 C43.98804525 859.30848439 21.13074578 859.05603391 0 850 C0 569.5 0 289 0 0 Z " fill="#FB6011" transform="translate(0,0)"/>
<path d="M0 0 C137.28 0 274.56 0 416 0 C416 75.9 416 151.8 416 230 C390.50951822 241.58658263 390.50951822 241.58658263 380.125 244.875 C378.41389038 245.43030396 378.41389038 245.43030396 376.66821289 245.99682617 C368.18012827 248.71486989 359.70023821 251.06963465 351 253 C349.52049876 253.34884449 348.04134708 253.69917392 346.5625 254.05078125 C327.64059015 258.48673089 308.76620829 260.1829717 289.35253906 260.13037109 C287.0031896 260.12500728 284.65403124 260.13035329 282.3046875 260.13671875 C268.64635392 260.14534053 255.47083072 259.13245347 242 256.75 C240.73760498 256.52820068 239.47520996 256.30640137 238.17456055 256.07788086 C186.57632458 246.81565234 135.86370775 225.02678506 97.13671875 188.98828125 C95.23815339 187.22160891 93.2954721 185.54509377 91.3125 183.875 C80.95315165 174.82109798 71.43176463 164.86254363 63 154 C62.12292873 152.91127961 61.24392032 151.82411777 60.36328125 150.73828125 C53.71160359 142.48940645 47.65355108 133.96140799 42 125 C41.59958496 124.36819824 41.19916992 123.73639648 40.78662109 123.08544922 C28.01362799 102.7196499 18.4256022 80.82515875 11 58 C10.70899414 57.10893555 10.41798828 56.21787109 10.11816406 55.29980469 C6.69762017 44.61916646 4.22113138 33.82690789 2.125 22.8125 C1.9094043 21.6898877 1.69380859 20.56727539 1.47167969 19.41064453 C1.18019043 17.79391846 1.18019043 17.79391846 0.8828125 16.14453125 C0.62588623 14.72684448 0.62588623 14.72684448 0.36376953 13.28051758 C-0.1243057 8.87899614 0 4.42849956 0 0 Z " fill="#FC7531" transform="translate(334,0)"/>
<path d="M0 0 C1.81784394 0.03161468 3.63600286 0.04417862 5.45410156 0.05273438 C30.84778308 0.94374074 55.99336268 10.04058205 78.13378906 22.03710938 C79.20242188 22.61332031 80.27105469 23.18953125 81.37207031 23.78320312 C91.83091676 29.65697811 101.09212714 36.85766753 109.89160156 44.98242188 C111.82485219 46.75400694 113.7966824 48.43493279 115.82128906 50.09960938 C143.19793175 73.52892219 157.42402844 109.85810532 165.29443359 143.9206543 C168.05407535 155.71248003 171.59058492 165.96835781 182.13378906 172.84960938 C187.3621848 176.04110927 192.38528628 177.28574689 198.48933411 177.30453491 C199.74669876 177.31306488 201.00406342 177.32159485 202.29953003 177.3303833 C203.68023694 177.32968438 205.06094376 177.32876137 206.44165039 177.32763672 C207.90574993 177.33362565 209.36984633 177.34043203 210.8339386 177.34799194 C214.8010202 177.36562268 218.76801546 177.3703461 222.73513246 177.37162352 C225.21673299 177.3730474 227.69831173 177.3773215 230.17990685 177.38261795 C238.84627037 177.40110895 247.51257247 177.40928978 256.17895508 177.40771484 C264.2428696 177.40651388 272.30651629 177.42760964 280.37036306 177.45920217 C287.30561189 177.48539973 294.24077344 177.49608068 301.17607135 177.49480402 C305.31288401 177.49429539 309.44945855 177.49992384 313.58622169 177.52116013 C317.47941801 177.54060126 321.3721505 177.54062732 325.26536369 177.52612686 C326.68870857 177.52404487 328.11208292 177.52870318 329.5353775 177.54084778 C341.560705 177.63675588 350.16954321 175.21673852 359.13378906 167.03710938 C363.19752317 162.55116912 365.23435474 157.73541233 367.13378906 152.03710938 C367.46378906 152.03710938 367.79378906 152.03710938 368.13378906 152.03710938 C368.13378906 188.99710938 368.13378906 225.95710938 368.13378906 264.03710938 C356.87235297 268.54168381 356.87235297 268.54168381 352.80175781 269.26757812 C351.90005859 269.43064453 350.99835937 269.59371094 350.06933594 269.76171875 C349.16248047 269.91447266 348.255625 270.06722656 347.32128906 270.22460938 C345.9784082 270.47114258 345.9784082 270.47114258 344.60839844 270.72265625 C329.09970749 273.44909516 313.53991503 273.20024101 297.84863281 273.20507812 C295.38163738 273.20829846 292.91464214 273.2116631 290.44764709 273.21516418 C285.2893937 273.22112983 280.13115699 273.22300678 274.97290039 273.22241211 C268.41621202 273.22231076 261.85963258 273.23594689 255.30296993 273.25318432 C250.20920842 273.26439384 245.11547248 273.26632857 240.02169991 273.26580238 C237.60718982 273.26696968 235.19267879 273.27131965 232.77818108 273.27913475 C203.90290998 273.36383606 171.82091641 272.91623508 148.13378906 254.03710938 C147.493125 253.54726563 146.85246094 253.05742188 146.19238281 252.55273438 C144.78714966 251.44419778 143.45029842 250.24968379 142.13378906 249.03710938 C142.13378906 248.37710938 142.13378906 247.71710938 142.13378906 247.03710938 C141.47378906 247.03710938 140.81378906 247.03710938 140.13378906 247.03710938 C127.73823494 233.10048636 121.52188158 213.32372232 116.75878906 195.72460938 C110.85145121 174.13747725 101.22690841 155.76259604 86.13378906 139.03710938 C84.83248047 137.59464844 84.83248047 137.59464844 83.50488281 136.12304688 C67.38745042 118.88471778 46.70079075 107.36675293 24.13378906 101.03710938 C22.34714844 100.52470703 22.34714844 100.52470703 20.52441406 100.00195312 C0.95221896 95.4080427 -22.67654545 96.09592293 -41.86621094 102.03710938 C-42.87796387 102.34261719 -42.87796387 102.34261719 -43.91015625 102.65429688 C-63.16594308 108.6676703 -80.82177462 119.6130937 -94.86621094 134.03710938 C-95.52621094 134.03710938 -96.18621094 134.03710938 -96.86621094 134.03710938 C-97.22392578 134.88402344 -97.22392578 134.88402344 -97.58886719 135.74804688 C-99.13970917 138.52723159 -101.06128507 140.4017441 -103.30371094 142.66210938 C-117.5123193 158.06161266 -126.74524079 178.30635038 -131.71386719 198.47851562 C-135.28673619 212.81639252 -140.17966701 227.9285936 -148.86621094 240.03710938 C-149.45917969 240.87242187 -150.05214844 241.70773437 -150.66308594 242.56835938 C-164.53174097 260.98593326 -185.13461151 267.94986944 -207.11621094 271.42382812 C-221.42885448 273.35676008 -235.73676024 273.20063457 -250.15136719 273.20507812 C-252.61836262 273.20829846 -255.08535786 273.2116631 -257.55235291 273.21516418 C-262.7106063 273.22112983 -267.86884301 273.22300678 -273.02709961 273.22241211 C-279.58378798 273.22231076 -286.14036742 273.23594689 -292.69703007 273.25318432 C-297.79079158 273.26439384 -302.88452752 273.26632857 -307.97830009 273.26580238 C-310.39281018 273.26696968 -312.80732121 273.27131965 -315.22181892 273.27913475 C-337.87816568 273.34559377 -360.73546515 273.09314328 -381.86621094 264.03710938 C-381.86621094 227.07710937 -381.86621094 190.11710937 -381.86621094 152.03710938 C-380.14634336 154.61691074 -379.03704213 156.90872419 -377.80371094 159.72460938 C-373.65779935 168.02855509 -367.43183295 172.84751738 -358.90260506 176.17506409 C-353.06838182 177.83142504 -347.12281686 177.59244005 -341.10424805 177.5546875 C-339.63955493 177.56011821 -338.17486728 177.56724617 -336.71018982 177.57592773 C-332.75975228 177.59404992 -328.809736 177.58714044 -324.85929179 177.57441139 C-320.71018451 177.56422763 -316.56111138 177.57369173 -312.41200256 177.57995605 C-305.44769874 177.58721609 -298.48356506 177.57768726 -291.51928711 177.55859375 C-283.48480032 177.53681954 -275.45071953 177.54388685 -267.41624254 177.56589937 C-260.49787562 177.58409019 -253.57963044 177.58659402 -246.66124731 177.5761447 C-242.53793632 177.56993103 -238.41481577 177.56901533 -234.29151726 177.58229065 C-230.41464042 177.59390273 -226.53828382 177.58572677 -222.66146278 177.56271362 C-221.24458044 177.55745531 -219.8276538 177.55889066 -218.41078949 177.56776428 C-206.38420914 177.63610255 -197.84784716 175.17179306 -188.86621094 167.03710938 C-181.64967901 159.57106969 -179.98696857 148.92515442 -178.05371094 139.09960938 C-169.1450841 94.56539274 -142.7241755 55.38996186 -105.22949219 29.89257812 C-73.64177479 8.94390111 -37.81872183 -0.67105463 0 0 Z " fill="#484B4B" transform="translate(381.8662109375,585.962890625)"/>
<path d="M0 0 C72.93 0 145.86 0 221 0 C228.09498748 18.9199666 228.09498748 18.9199666 229.75 26.4375 C229.95262451 27.34435547 230.15524902 28.25121094 230.36401367 29.18554688 C232.69811935 40.34676413 233.44566325 51.63189707 234 63 C234.0721875 64.23492187 234.144375 65.46984375 234.21875 66.7421875 C234.77234109 85.24135638 231.9925432 104.50058889 226 122 C225.77441406 122.67530762 225.54882812 123.35061523 225.31640625 124.04638672 C220.38334379 138.62609462 213.29009443 152.03384949 205.56640625 165.3046875 C204.67018336 166.84681667 203.79766883 168.40466233 203 170 C203.67804688 170.47308594 204.35609375 170.94617188 205.0546875 171.43359375 C229.27044512 188.63952679 246.02245349 212.17390539 251.3046875 241.77734375 C255.30367697 268.44579652 249.86477735 296.219776 234.0546875 318.3046875 C233.03761719 319.63886719 233.03761719 319.63886719 232 321 C231.30132812 321.93070312 230.60265625 322.86140625 229.8828125 323.8203125 C213.07494595 345.29370785 189.52914879 358.66416177 162.8203125 363.5859375 C134.03744301 366.70555321 105.83543065 360.45391555 82.80078125 342.30078125 C81.87652344 341.54152344 80.95226562 340.78226562 80 340 C79.14792969 339.31292969 78.29585938 338.62585938 77.41796875 337.91796875 C57.45139393 320.96996272 44.91033306 295.93080535 42 270 C41.86283784 266.24888212 41.86014547 262.50324502 41.875 258.75 C41.86919922 257.26113281 41.86919922 257.26113281 41.86328125 255.7421875 C41.86457031 254.79085937 41.86585937 253.83953125 41.8671875 252.859375 C41.86831543 251.99795898 41.86944336 251.13654297 41.87060547 250.24902344 C42 248 42 248 43 245 C41.700625 245.061875 40.40125 245.12375 39.0625 245.1875 C30.07498123 245.17480576 6.7140097 243.7140097 0 237 C-0.09802498 233.95335309 -0.12990985 230.92936239 -0.12025452 227.88230896 C-0.12110894 226.91365263 -0.12196337 225.94499629 -0.12284368 224.94698673 C-0.12450143 221.67484456 -0.11897231 218.40275275 -0.11352539 215.13061523 C-0.11324356 212.79552207 -0.11340118 210.46042881 -0.1139679 208.12533569 C-0.11425602 201.76401984 -0.10835694 195.40272266 -0.10139394 189.04141116 C-0.09579343 183.07360839 -0.09477212 177.10580638 -0.09374207 171.13800133 C-0.09155124 159.31440946 -0.08489032 147.49082446 -0.07543945 135.66723633 C-0.06626613 124.17895542 -0.05919637 112.6906764 -0.05493164 101.20239258 C-0.05466364 100.48751236 -0.05439565 99.77263214 -0.05411953 99.03608888 C-0.05180681 92.81805579 -0.04965395 86.60002264 -0.04751682 80.38198948 C-0.0381003 53.58798651 -0.01818186 26.79400177 0 0 Z " fill="#FC7531" transform="translate(0,0)"/>
<path d="M0 0 C1.44149414 0.41282227 1.44149414 0.41282227 2.91210938 0.83398438 C27.16454318 7.97057347 51.26352592 18.36742998 72 33 C72.66241699 33.46615723 73.32483398 33.93231445 74.00732422 34.41259766 C82.26782093 40.29081748 90.00102265 46.54538398 97.3515625 53.52734375 C99.2455343 55.29560946 101.12767624 56.95121273 103.12890625 58.5859375 C105.44845234 60.53624973 107.3755072 62.38012614 109.3125 64.6875 C111.15524919 66.85873927 112.99861199 68.99852871 114.953125 71.0703125 C135.99530841 93.43737413 150.6991512 120.85007882 160.9375 149.625 C161.36156128 150.81428101 161.36156128 150.81428101 161.79418945 152.02758789 C163.70404303 157.60595433 164.9698836 163.19749388 166 169 C165.15179688 169.58265625 164.30359375 170.1653125 163.4296875 170.765625 C154.47432162 176.99443632 146.0997132 183.6944812 138 191 C137.25105469 191.67546875 136.50210938 192.3509375 135.73046875 193.046875 C125.47262978 202.82420421 117.18208437 214.84447403 110 227 C109.62633301 227.63212402 109.25266602 228.26424805 108.86767578 228.91552734 C99.06897312 245.78433871 92.92959569 263.95210759 89 283 C86.47515634 295.11924958 83.55882107 306.20114181 72.72265625 313.54296875 C70.51130495 314.79766225 68.31316779 315.94558783 66 317 C65.25786349 317.34527048 64.51572699 317.69054096 63.75110149 318.04627419 C60.59937187 319.13888597 58.10489465 319.25716174 54.7714386 319.26742554 C52.88962135 319.28022049 52.88962135 319.28022049 50.9697876 319.29327393 C49.58703601 319.29257495 48.20428451 319.29165192 46.8215332 319.29052734 C45.35920367 319.29651458 43.89687729 319.30332057 42.43455505 319.31088257 C38.46734713 319.32853412 34.50022551 319.3332377 30.53298211 319.33451414 C28.05121165 319.33593725 25.56946302 319.34020998 23.08769798 319.34550858 C14.42018622 319.36400899 5.75273593 319.37217954 -2.91479492 319.37060547 C-10.97810081 319.36940541 -19.04113844 319.39048105 -27.10437649 319.4220928 C-34.03877155 319.44830432 -40.97307928 319.45897066 -47.90752345 319.45769465 C-52.04382402 319.45718627 -56.17988634 319.46280005 -60.31613731 319.48405075 C-64.21096486 319.50351455 -68.10532901 319.50350262 -72.00017357 319.48901749 C-73.42309756 319.48693803 -74.84605116 319.49157844 -76.26892471 319.5037384 C-88.94684987 319.60499448 -97.51254479 317.3328191 -106.796875 308.515625 C-111.84163635 302.75529466 -115.12633188 295.74292807 -115.12304783 288.05496693 C-115.12503888 287.02835888 -115.12702993 286.00175083 -115.12908131 284.94403344 C-115.12616847 283.81272412 -115.12325563 282.68141479 -115.12025452 281.51582336 C-115.12110894 280.31677925 -115.12196337 279.11773513 -115.12284368 277.88235635 C-115.12420892 274.54845148 -115.12107258 271.21460497 -115.11606562 267.88070714 C-115.11175584 264.28767927 -115.11320792 260.69465327 -115.1139679 257.10162354 C-115.11449279 250.87454614 -115.11134954 244.6474792 -115.10573006 238.42040443 C-115.09761046 229.4170485 -115.09499936 220.41369763 -115.09374207 211.41033842 C-115.09155227 196.80374814 -115.08489414 182.19716343 -115.07543945 167.59057617 C-115.06626347 153.39982125 -115.05918354 139.20906784 -115.05493164 125.01831055 C-115.05466892 124.14390901 -115.05440619 123.26950748 -115.05413551 122.36860893 C-115.05283049 117.98208796 -115.05156678 113.59556699 -115.05032361 109.20904601 C-115.03995325 72.80602673 -115.0223369 36.4030138 -115 0 C-113.39843061 -0.48654003 -111.79637802 -0.97148968 -110.19412231 -1.45576477 C-108.85598575 -1.86110427 -108.85598575 -1.86110427 -107.49081612 -2.27463245 C-74.63103988 -11.84395196 -32.59734058 -9.36883185 0 0 Z " fill="#FB7531" transform="translate(115,445)"/>
<path d="M0 0 C0.86302734 0.19867676 1.72605469 0.39735352 2.61523438 0.60205078 C15.75820164 3.68893701 27.92428024 7.97780807 40 14 C41.00716064 14.49935059 41.00716064 14.49935059 42.03466797 15.00878906 C50.84870301 19.42768533 58.72402612 24.48268408 67 30 C67 70.59 67 111.18 67 153 C-22.43 153 -111.86 153 -204 153 C-204 111.99410325 -181.36891218 73.23543529 -153.6875 44.375 C-132.35463992 23.64840237 -104.78628094 8.37172485 -76 1 C-75.29214355 0.81663086 -74.58428711 0.63326172 -73.85498047 0.44433594 C-50.63351833 -5.31353447 -23.28583072 -5.59040759 0 0 Z " fill="#FC7B3A" transform="translate(683,331)"/>
<path d="M0 0 C23.05422915 20.77726825 37.87672803 44.63762292 48.04675293 73.88909912 C56.12734417 97.0321315 64.7986494 120.7943894 88.27856445 132.19311523 C107.34903153 140.88637157 128.24884044 140.87758656 148.78515625 140.83203125 C150.96215864 140.83338295 153.13916074 140.83532765 155.31616211 140.83782959 C159.85110381 140.84075714 164.38596606 140.83656024 168.92089844 140.82714844 C174.68635893 140.81575545 180.4516331 140.82232773 186.21708679 140.83429337 C190.70423749 140.84157643 195.1913452 140.83919469 199.67849731 140.83403778 C201.80241926 140.83271904 203.92634532 140.83428544 206.05026245 140.83899689 C231.84547529 140.88368335 255.20646917 139.02439702 276.84765625 123.56640625 C276.84765625 134.78640625 276.84765625 146.00640625 276.84765625 157.56640625 C265.58622015 162.07098069 265.58622015 162.07098069 261.515625 162.796875 C260.61392578 162.95994141 259.71222656 163.12300781 258.78320312 163.29101562 C257.87634766 163.44376953 256.96949219 163.59652344 256.03515625 163.75390625 C255.13990234 163.91826172 254.24464844 164.08261719 253.32226562 164.25195312 C237.81357467 166.97839203 222.25378221 166.72953789 206.5625 166.734375 C204.09550457 166.73759534 201.62850933 166.74095997 199.16151428 166.74446106 C194.00326089 166.7504267 188.84502418 166.75230366 183.68676758 166.75170898 C177.1300792 166.75160763 170.57349976 166.76524377 164.01683712 166.78248119 C158.92307561 166.79369071 153.82933967 166.79562545 148.73556709 166.79509926 C146.32105701 166.79626655 143.90654598 166.80061652 141.49204826 166.80843163 C112.61677717 166.89313293 80.5347836 166.44553196 56.84765625 147.56640625 C56.20699219 147.0765625 55.56632813 146.58671875 54.90625 146.08203125 C53.50101685 144.97349466 52.16416561 143.77898066 50.84765625 142.56640625 C50.84765625 141.90640625 50.84765625 141.24640625 50.84765625 140.56640625 C50.18765625 140.56640625 49.52765625 140.56640625 48.84765625 140.56640625 C36.45210212 126.62978323 30.23574877 106.8530192 25.47265625 89.25390625 C19.56531839 67.66677412 9.9407756 49.29189291 -5.15234375 32.56640625 C-6.45365234 31.12394531 -6.45365234 31.12394531 -7.78125 29.65234375 C-23.89868239 12.41401466 -44.58534207 0.89604981 -67.15234375 -5.43359375 C-68.93898438 -5.94599609 -68.93898438 -5.94599609 -70.76171875 -6.46875 C-90.33391385 -11.06266042 -113.96267827 -10.3747802 -133.15234375 -4.43359375 C-133.8268457 -4.22992187 -134.50134766 -4.02625 -135.19628906 -3.81640625 C-154.45207589 2.19696718 -172.10790743 13.14239057 -186.15234375 27.56640625 C-186.81234375 27.56640625 -187.47234375 27.56640625 -188.15234375 27.56640625 C-188.51005859 28.41332031 -188.51005859 28.41332031 -188.875 29.27734375 C-190.42584198 32.05652846 -192.34741788 33.93104097 -194.58984375 36.19140625 C-208.79845211 51.59090953 -218.0313736 71.83564725 -223 92.0078125 C-226.572869 106.3456894 -231.46579982 121.45789047 -240.15234375 133.56640625 C-240.7453125 134.40171875 -241.33828125 135.23703125 -241.94921875 136.09765625 C-255.81787379 154.51523014 -276.42074432 161.47916632 -298.40234375 164.953125 C-312.71498729 166.88605695 -327.02289305 166.72993145 -341.4375 166.734375 C-343.90449543 166.73759534 -346.37149067 166.74095997 -348.83848572 166.74446106 C-353.99673911 166.7504267 -359.15497582 166.75230366 -364.31323242 166.75170898 C-370.8699208 166.75160763 -377.42650024 166.76524377 -383.98316288 166.78248119 C-389.07692439 166.79369071 -394.17066033 166.79562545 -399.26443291 166.79509926 C-401.67894299 166.79626655 -404.09345402 166.80061652 -406.50795174 166.80843163 C-429.1642985 166.87489064 -452.02159797 166.62244016 -473.15234375 157.56640625 C-473.15234375 146.34640625 -473.15234375 135.12640625 -473.15234375 123.56640625 C-470.18234375 125.54640625 -467.21234375 127.52640625 -464.15234375 129.56640625 C-444.21487335 140.88226783 -421.50446308 140.88147588 -399.21484375 140.83203125 C-397.03784136 140.83338295 -394.86083926 140.83532765 -392.68383789 140.83782959 C-388.14889619 140.84075714 -383.61403394 140.83656024 -379.07910156 140.82714844 C-373.31364107 140.81575545 -367.5483669 140.82232773 -361.78291321 140.83429337 C-357.29576251 140.84157643 -352.8086548 140.83919469 -348.32150269 140.83403778 C-346.19758074 140.83271904 -344.07365468 140.83428544 -341.94973755 140.83899689 C-315.93105671 140.88407048 -287.94674827 139.83990539 -268.15234375 120.56640625 C-258.05230944 109.13742006 -252.23862262 95.71834829 -247.43844604 81.40408325 C-239.41363346 57.58006204 -229.92093237 35.61114349 -213.15234375 16.56640625 C-212.36085938 15.64214844 -211.569375 14.71789062 -210.75390625 13.765625 C-205.06778625 7.28129572 -199.02044334 1.77170278 -192.15234375 -3.43359375 C-191.62125 -3.83964844 -191.09015625 -4.24570312 -190.54296875 -4.6640625 C-134.80576434 -46.98787426 -53.60246765 -45.39236951 0 0 Z " fill="#484B4B" transform="translate(473.15234375,692.43359375)"/>
<path d="M0 0 C1.19106558 -0.00427212 2.38213117 -0.00854425 3.60928965 -0.01294583 C6.89804238 -0.01973508 10.18579927 -0.00419782 13.47443438 0.02094448 C17.02715459 0.04260412 20.57983118 0.03522518 24.13259888 0.03143311 C30.28221035 0.02881557 36.43155588 0.04445849 42.58110046 0.0726223 C51.47218359 0.11331529 60.36313856 0.12628543 69.25430471 0.13256226 C83.6807177 0.14349636 98.10698907 0.17674652 112.5333252 0.22407532 C126.54438571 0.26999382 140.55540772 0.3053745 154.56652832 0.32661438 C155.86271871 0.32858481 155.86271871 0.32858481 157.18509477 0.33059504 C161.52031012 0.33712038 165.85552574 0.34343889 170.19074154 0.34965456 C206.13674583 0.40146004 242.08257379 0.49088049 278.02844238 0.60127258 C278.02844238 10.50127258 278.02844238 20.40127258 278.02844238 30.60127258 C241.22035031 30.69170461 204.41228745 30.76331456 167.60410663 30.8055339 C163.25824701 30.81053671 158.91238761 30.815714 154.56652832 30.82099915 C153.26875862 30.82257301 153.26875862 30.82257301 151.94477135 30.82417867 C137.93717816 30.84158236 123.92965066 30.87311986 109.92209643 30.90988377 C95.54830417 30.94729417 81.17454629 30.96950865 66.80070734 30.97762656 C57.93175604 30.98311413 49.06299041 31.0004441 40.19409627 31.03293845 C34.11178155 31.05408757 28.02956277 31.06047173 21.94721395 31.05527809 C18.43833382 31.05271691 14.92977806 31.05663395 11.42095566 31.07809448 C7.61371123 31.09798103 3.80726266 31.09321539 0 31.08229065 C-1.10507227 31.09394202 -2.21014455 31.10559338 -3.34870386 31.11759782 C-9.6448227 31.06873039 -14.80999593 30.45775526 -19.97155762 26.60127258 C-22.86812266 23.21419395 -24.19865566 19.999014 -24.47155762 15.53877258 C-23.81908974 10.40058807 -22.34959127 7.63770738 -18.39829206 4.25400287 C-12.40028163 0.03382434 -7.17902208 -0.09461532 0 0 Z " fill="#FC7B3A" transform="translate(471.9715576171875,496.3987274169922)"/>
<path d="M0 0 C1.06863281 0.2784375 2.13726562 0.556875 3.23828125 0.84375 C11.47886514 3.13334936 19.82650116 6.27295452 27 11 C28.09375 12.9375 28.09375 12.9375 28 15 C26.734375 17.15625 26.734375 17.15625 24.75 19.5 C24.00492188 20.38042969 23.25984375 21.26085937 22.4921875 22.16796875 C21.25855469 23.56982422 21.25855469 23.56982422 20 25 C18.76636719 26.41732422 18.76636719 26.41732422 17.5078125 27.86328125 C-12.99838283 62.03565138 -54.85737248 85.34810395 -101.03564453 88.62597656 C-110.67818459 89.16604386 -120.34626065 89.10269935 -130 89 C-127.43886226 68.40980055 -120.25543626 50.97508612 -107 35 C-106.31421875 34.15050781 -105.6284375 33.30101562 -104.921875 32.42578125 C-80.13410606 3.18539455 -37.02323309 -10.88642595 0 0 Z " fill="#FC884E" transform="translate(173,157)"/>
<path d="M0 0 C0.78761719 0.65484375 1.57523437 1.3096875 2.38671875 1.984375 C6.54791806 5.49924493 6.54791806 5.49924493 8 7 C8 7.66 8 8.32 8 9 C8.99 9.33 9.98 9.66 11 10 C16 15.46511628 16 15.46511628 16 18 C16.66 18 17.32 18 18 18 C19.49345586 19.88583021 20.84972514 21.75718834 22.1875 23.75 C22.78751831 24.63582764 22.78751831 24.63582764 23.3996582 25.53955078 C32.44558957 39.0318485 38.51901777 52.34756933 42.75976562 67.98046875 C47.83461969 86.658334 54.11846392 104.21550972 67 119 C67.53625 119.65742187 68.0725 120.31484375 68.625 120.9921875 C81.45622938 135.42732056 103.64826469 140.86051191 122 143 C122.74635208 143.08773682 123.49270416 143.17547363 124.26167297 143.26586914 C135.1346921 144.34832948 146.05071333 144.16426187 156.96484375 144.16796875 C159.20667033 144.17118978 161.44849671 144.17455446 163.69032288 144.17805481 C168.37957241 144.18402095 173.06880358 144.18589743 177.75805664 144.18530273 C183.70821734 144.18520154 189.65825757 144.19882121 195.60838985 144.21607494 C200.238963 144.2273066 204.8695081 144.22921851 209.50009346 144.22869301 C211.69049047 144.22985764 213.88088858 144.23419186 216.0712719 144.24202538 C226.87948602 144.27704708 237.60443223 144.12418164 248.37329102 143.1340332 C249.19665671 143.05959834 250.02002241 142.98516348 250.86833858 142.90847301 C263.33131173 141.621022 275.5613221 138.06302137 287 133 C287 136.3 287 139.6 287 143 C280.07738985 145.98291332 273.60790051 147.93758179 266.1875 149.1875 C265.29224609 149.35185547 264.39699219 149.51621094 263.47460938 149.68554688 C247.96591842 152.41198578 232.40612596 152.16313164 216.71484375 152.16796875 C214.24784832 152.17118909 211.78085308 152.17455372 209.31385803 152.17805481 C204.15560464 152.18402045 198.99736793 152.18589741 193.83911133 152.18530273 C187.28242295 152.18520138 180.72584351 152.19883752 174.16918087 152.21607494 C169.07541936 152.22728446 163.98168342 152.2292192 158.88791084 152.22869301 C156.47340076 152.2298603 154.05888973 152.23421027 151.64439201 152.24202538 C122.76912092 152.32672668 90.68712735 151.87912571 67 133 C66.35933594 132.51015625 65.71867188 132.0203125 65.05859375 131.515625 C63.6533606 130.40708841 62.31650936 129.21257441 61 128 C61 127.34 61 126.68 61 126 C60.34 126 59.68 126 59 126 C46.60444587 112.06337698 40.38809252 92.28661295 35.625 74.6875 C29.71766214 53.10036787 20.09311935 34.72548666 5 18 C3.69869141 16.55753906 3.69869141 16.55753906 2.37109375 15.0859375 C-13.74633864 -2.15239159 -34.43299832 -13.67035644 -57 -20 C-58.78664063 -20.51240234 -58.78664063 -20.51240234 -60.609375 -21.03515625 C-80.1815701 -25.62906667 -103.81033452 -24.94118645 -123 -19 C-123.67450195 -18.79632812 -124.34900391 -18.59265625 -125.04394531 -18.3828125 C-144.29973214 -12.36943907 -161.95556368 -1.42401568 -176 13 C-176.66 13 -177.32 13 -178 13 C-178.35771484 13.84691406 -178.35771484 13.84691406 -178.72265625 14.7109375 C-180.27349823 17.49012221 -182.19507413 19.36463472 -184.4375 21.625 C-198.64610836 37.02450328 -207.87902985 57.269241 -212.84765625 77.44140625 C-216.42052525 91.77928315 -221.31345607 106.89148422 -230 119 C-230.59296875 119.8353125 -231.1859375 120.670625 -231.796875 121.53125 C-245.66553004 139.94882389 -266.26840057 146.91276007 -288.25 150.38671875 C-302.56264354 152.3196507 -316.8705493 152.1635252 -331.28515625 152.16796875 C-333.75215168 152.17118909 -336.21914692 152.17455372 -338.68614197 152.17805481 C-343.84439536 152.18402045 -349.00263207 152.18589741 -354.16088867 152.18530273 C-360.71757705 152.18520138 -367.27415649 152.19883752 -373.83081913 152.21607494 C-378.92458064 152.22728446 -384.01831658 152.2292192 -389.11208916 152.22869301 C-391.52659924 152.2298603 -393.94111027 152.23421027 -396.35560799 152.24202538 C-442.34935744 152.37694119 -442.34935744 152.37694119 -463 143 C-463 139.7 -463 136.4 -463 133 C-461.83726562 133.47050781 -460.67453125 133.94101562 -459.4765625 134.42578125 C-448.41716686 138.77499487 -437.80870839 141.67745596 -426 143 C-425.25704681 143.08660385 -424.51409363 143.1732077 -423.74862671 143.26243591 C-412.87222744 144.34887161 -401.95294644 144.16426063 -391.03515625 144.16796875 C-388.79332967 144.17118978 -386.55150329 144.17455446 -384.30967712 144.17805481 C-379.62042759 144.18402095 -374.93119642 144.18589743 -370.24194336 144.18530273 C-364.29178266 144.18520154 -358.34174243 144.19882121 -352.39161015 144.21607494 C-347.761037 144.2273066 -343.1304919 144.22921851 -338.49990654 144.22869301 C-336.30950953 144.22985764 -334.11911142 144.23419186 -331.9287281 144.24202538 C-321.11065522 144.27707903 -310.3810029 144.12101618 -299.60327148 143.1184082 C-298.7767637 143.04187861 -297.95025591 142.96534903 -297.09870243 142.88650036 C-283.14711743 141.43325988 -270.62368021 137.43773134 -258.3203125 130.76953125 C-255.57716757 129.30759636 -252.90922003 128.07851313 -250 127 C-250 126.34 -250 125.68 -250 125 C-248.85423404 123.95244255 -247.6560644 122.96190283 -246.4375 122 C-237.63803029 114.45538424 -232.82707935 104.34041817 -228 94 C-227.55785156 93.09121094 -227.11570313 92.18242188 -226.66015625 91.24609375 C-223.63242488 84.60056197 -221.87513387 77.81102265 -220.125 70.75 C-211.47598145 36.12608859 -189.30201697 5.78404935 -158.74609375 -12.83984375 C-142.64291201 -22.29753807 -124.61078124 -28.88326417 -106 -31 C-104.67548828 -31.16435547 -104.67548828 -31.16435547 -103.32421875 -31.33203125 C-66.2575794 -35.35518313 -28.33517181 -24.4148941 0 0 Z " fill="#000000" transform="translate(463,707)"/>
<path d="M0 0 C5.07215778 4.71532256 9.34540616 9.95835618 13.5625 15.4375 C14.20703125 16.2315625 14.8515625 17.025625 15.515625 17.84375 C28.12687146 34.04356252 34.93072025 53.0055822 41.43994141 72.22753906 C46.4746195 86.97677192 52.34980991 103.48616282 63.765625 114.578125 C65.5625 116.4375 65.5625 116.4375 65.5625 118.4375 C66.11035156 118.68886719 66.65820312 118.94023438 67.22265625 119.19921875 C69.99570521 120.66675885 72.44130422 122.43426337 75 124.25 C92.58348455 135.96526139 114.4789023 138.57338382 135.19262695 138.59863281 C136.19277328 138.60359772 137.19291962 138.60856262 138.22337341 138.61367798 C141.49918332 138.62815923 144.77494472 138.63508002 148.05078125 138.640625 C149.74863801 138.64486607 149.74863801 138.64486607 151.48079491 138.64919281 C157.4778402 138.66413268 163.47486179 138.67339347 169.47192383 138.67773438 C175.60254488 138.68319379 181.73294103 138.70718343 187.86349201 138.73570633 C192.6330779 138.75452443 197.40261183 138.75954851 202.17223167 138.76107025 C204.42879648 138.76405716 206.68536127 138.77194758 208.94188881 138.78525543 C232.20139751 138.91257692 255.69503753 137.70592973 276.5625 126.4375 C277.2225 126.4375 277.8825 126.4375 278.5625 126.4375 C278.5625 128.7475 278.5625 131.0575 278.5625 133.4375 C266.95924101 140.44718088 253.28729204 143.3520682 239.91821289 144.56542969 C239.01929101 144.64824062 238.12036913 144.73105156 237.19420719 144.81637192 C226.3651524 145.73039269 215.54364738 145.72680396 204.68359375 145.703125 C202.45223448 145.70447786 200.22087549 145.70642351 197.98951721 145.70892334 C193.34983468 145.71184483 188.71023 145.70767369 184.07055664 145.69824219 C178.18219784 145.68684287 172.29402138 145.69342946 166.40566921 145.70538712 C161.80946019 145.71268118 157.21329302 145.71028363 152.6170826 145.70513153 C150.44819173 145.70381614 148.27929681 145.70536681 146.11041069 145.71009064 C116.5244164 145.76042595 83.24868285 144.44060516 60.375 122.875 C54.81516116 116.96822722 50.52035036 110.47387987 46.5625 103.4375 C46.21977051 102.83147949 45.87704102 102.22545898 45.52392578 101.60107422 C39.7594426 91.11793798 36.58345147 80.10842777 33.41943359 68.61401367 C28.66274089 51.36954172 21.93821157 35.82556867 10.55859375 21.85546875 C9.5625 20.4375 9.5625 20.4375 9.5625 18.4375 C8.9025 18.4375 8.2425 18.4375 7.5625 18.4375 C6.3359375 16.93359375 6.3359375 16.93359375 4.9375 14.875 C1.65072684 10.3437205 -2.15425819 6.99875597 -6.4375 3.4375 C-7.73046254 2.27226965 -9.0221282 1.10559867 -10.3125 -0.0625 C-36.19976156 -22.54486062 -71.59427708 -32.50184126 -105.48193359 -30.43798828 C-134.24771852 -28.397723 -162.78522071 -17.85761047 -184.4375 1.4375 C-185.69626953 2.49904297 -185.69626953 2.49904297 -186.98046875 3.58203125 C-208.37279089 21.98937821 -222.57640096 47.9197241 -228.79516602 75.26464844 C-232.98814131 93.56699686 -241.64171308 111.44379371 -255.4375 124.4375 C-256.4275 124.7675 -257.4175 125.0975 -258.4375 125.4375 C-258.4375 126.0975 -258.4375 126.7575 -258.4375 127.4375 C-285.38946267 143.72181927 -312.45579463 145.77041264 -343.31640625 145.703125 C-345.54776552 145.70447786 -347.77912451 145.70642351 -350.01048279 145.70892334 C-354.65016532 145.71184483 -359.28977 145.70767369 -363.92944336 145.69824219 C-369.81780216 145.68684287 -375.70597862 145.69342946 -381.59433079 145.70538712 C-386.19053981 145.71268118 -390.78670698 145.71028363 -395.3829174 145.70513153 C-397.55180827 145.70381614 -399.72070319 145.70536681 -401.88958931 145.71009064 C-425.45558515 145.75018399 -448.83802289 144.94429809 -470.4375 134.4375 C-471.4375 133.4375 -471.4375 133.4375 -471.5 129.875 C-471.479375 128.740625 -471.45875 127.60625 -471.4375 126.4375 C-468.86786873 127.45600839 -466.31190279 128.49164308 -463.7734375 129.5859375 C-457.20386457 132.30737009 -450.75972063 134.21818693 -443.8125 135.6875 C-442.6685376 135.93185791 -442.6685376 135.93185791 -441.50146484 136.18115234 C-432.00361091 138.08639228 -422.47506506 138.58684838 -412.80737305 138.59863281 C-411.80722672 138.60359772 -410.80708038 138.60856262 -409.77662659 138.61367798 C-406.50081668 138.62815923 -403.22505528 138.63508002 -399.94921875 138.640625 C-398.25136199 138.64486607 -398.25136199 138.64486607 -396.51920509 138.64919281 C-390.5221598 138.66413268 -384.52513821 138.67339347 -378.52807617 138.67773438 C-372.39745512 138.68319379 -366.26705897 138.70718343 -360.13650799 138.73570633 C-355.3669221 138.75452443 -350.59738817 138.75954851 -345.82776833 138.76107025 C-343.57120352 138.76405716 -341.31463873 138.77194758 -339.05811119 138.78525543 C-310.76940657 138.94010651 -280.11968841 137.31826325 -258.57421875 116.60546875 C-257.86910156 115.89003906 -257.16398438 115.17460938 -256.4375 114.4375 C-255.88707031 113.89738281 -255.33664063 113.35726562 -254.76953125 112.80078125 C-244.01307815 101.35222393 -239.47183829 85.99014414 -234.48828125 71.49072266 C-227.81896305 52.11189054 -220.51092457 34.12561115 -208.4375 17.4375 C-207.38755859 15.98537109 -207.38755859 15.98537109 -206.31640625 14.50390625 C-202.96881296 10.04276842 -202.96881296 10.04276842 -201.4375 8.4375 C-200.7775 8.4375 -200.1175 8.4375 -199.4375 8.4375 C-199.22480469 7.89351562 -199.01210938 7.34953125 -198.79296875 6.7890625 C-187.54720198 -12.72088446 -157.01993897 -26.2214397 -136.31738281 -32.171875 C-87.08570885 -45.38963055 -38.23082052 -32.97998251 0 0 Z " fill="#555555" transform="translate(471.4375,706.5625)"/>
<path d="M0 0 C-0.88300781 0.54527344 -1.76601563 1.09054687 -2.67578125 1.65234375 C-44.35474695 27.69585665 -71.52951654 72.33439657 -85 119 C-85.33 120.65 -85.66 122.3 -86 124 C-97.88 124 -109.76 124 -122 124 C-120.59904953 116.99524763 -119.15848556 111.04920478 -116.5 104.5625 C-116.15179199 103.7070459 -115.80358398 102.8515918 -115.44482422 101.97021484 C-109.29682485 87.21339206 -101.77895828 73.64302212 -92 61 C-91.30648437 60.08347656 -90.61296875 59.16695313 -89.8984375 58.22265625 C-75.74869969 40.1777659 -26.34319855 -8.78106618 0 0 Z " fill="#FC6011" transform="translate(628,344)"/>
<path d="M0 0 C0.91910156 0.67546875 1.83820313 1.3509375 2.78515625 2.046875 C7.35452425 5.46507301 7.35452425 5.46507301 9 7 C9 7.66 9 8.32 9 9 C9.59683594 9.27328125 10.19367188 9.5465625 10.80859375 9.828125 C36.38059314 23.50299099 48.18267768 64.40697179 56.6875 89.8125 C63.4644975 109.87454772 74.06045078 127.49890708 93.28125 137.75 C120.83019788 150.38713205 152.45483832 148.17140749 182.02636719 148.13037109 C186.16774675 148.12467428 190.30906208 148.12806439 194.45043945 148.13380337 C224.33521852 148.60849793 224.33521852 148.60849793 254 145.6875 C254.78068848 145.55706299 255.56137695 145.42662598 256.36572266 145.29223633 C267.69223254 143.29047776 277.68133556 138.99290215 288 134 C288 135.65 288 137.3 288 139 C264.7903989 150.87157758 241.46300814 152.31922704 215.75 152.265625 C213.43847615 152.26697634 211.12695258 152.26892075 208.81542969 152.27142334 C203.99801903 152.27435254 199.18068313 152.27014851 194.36328125 152.26074219 C188.23461962 152.24934911 182.10613326 152.25592048 175.97747803 152.26788712 C171.21238927 152.27516561 166.44734105 152.27279049 161.68225098 152.26763153 C159.42435688 152.26631154 157.16645892 152.26788378 154.90856934 152.27259064 C138.82453895 152.29877398 122.80626015 152.08132658 107.1875 147.75 C106.39472656 147.53384033 105.60195313 147.31768066 104.78515625 147.0949707 C85.15887299 141.49117138 70.94652833 129.55944149 60.94628906 111.87182617 C55.36782779 101.42948849 51.70461796 90.00198325 47.8828125 78.83203125 C41.62769534 60.69106898 34.32531075 42.9472405 22 28 C21.56075195 27.4529541 21.12150391 26.9059082 20.66894531 26.34228516 C14.14228565 18.23588221 7.43340012 11.18837085 -1 5 C-2.00675781 4.25234375 -3.01351563 3.5046875 -4.05078125 2.734375 C-35.2110888 -19.63712786 -73.16341595 -27.91218413 -111 -22 C-141.15461092 -16.7778476 -167.32222293 -2.53055956 -189 19 C-189.33 19.66 -189.66 20.32 -190 21 C-190.66 21 -191.32 21 -192 21 C-192.24621094 21.55171875 -192.49242187 22.1034375 -192.74609375 22.671875 C-194.24902201 25.46235863 -196.09436391 27.76466412 -198.0625 30.25 C-210.5541398 46.5813144 -217.85171528 65.44247916 -224.35632324 84.77493286 C-229.35395947 99.62449005 -234.29547359 114.19286142 -245 126 C-245.64195312 126.74507812 -246.28390625 127.49015625 -246.9453125 128.2578125 C-253.02282472 134.87355458 -260.08425793 138.99191376 -268 143 C-268.79792969 143.41121094 -269.59585938 143.82242188 -270.41796875 144.24609375 C-284.95241082 150.85733554 -302.83837732 152.15295454 -318.59594727 152.14526367 C-320.10799492 152.15030159 -320.10799492 152.15030159 -321.65058899 152.15544128 C-324.95587424 152.16487507 -328.2611084 152.1668908 -331.56640625 152.16796875 C-333.88793457 152.17118738 -336.20946269 152.1745519 -338.5309906 152.17805481 C-343.3902127 152.18402776 -348.24941707 152.18589668 -353.10864258 152.18530273 C-359.2924216 152.1852014 -365.47608505 152.19883203 -371.65983677 152.21607494 C-376.45495613 152.22727273 -381.25004828 152.22921954 -386.04517937 152.22869301 C-388.32261489 152.22986226 -390.60005137 152.23422375 -392.87747383 152.24202538 C-409.04390399 152.29220849 -425.11050249 152.09566256 -440.8125 147.75 C-441.98969604 147.43446167 -441.98969604 147.43446167 -443.19067383 147.11254883 C-449.92081395 145.21441041 -455.94196421 142.51873935 -462 139 C-462 137.35 -462 135.7 -462 134 C-461.07960938 134.45890625 -460.15921875 134.9178125 -459.2109375 135.390625 C-429.83053507 149.75585641 -397.90161896 148.17471473 -365.97363281 148.13037109 C-361.83225421 148.12467428 -357.69093983 148.12806374 -353.54956341 148.13380432 C-299.18947727 150.00440415 -299.18947727 150.00440415 -251.859375 126.98046875 C-241.54762209 115.9971521 -235.27693141 102.31561941 -230.49291992 88.20068359 C-220.60495847 59.11844402 -209.44976778 34.2580199 -188 12 C-187.47011475 11.43877441 -186.94022949 10.87754883 -186.39428711 10.29931641 C-182.20920906 5.96500486 -177.76885707 2.413575 -172.8125 -1 C-172.06129883 -1.51981445 -171.31009766 -2.03962891 -170.53613281 -2.57519531 C-168.3661815 -4.06361292 -166.18601204 -5.53530364 -164 -7 C-162.49759766 -8.01320313 -162.49759766 -8.01320313 -160.96484375 -9.046875 C-112.96688757 -39.15782305 -44.40161576 -34.00974824 0 0 Z " fill="#3B3B3B" transform="translate(462,694)"/>
<path d="M0 0 C36.93894185 -0.86377168 72.55584232 13.17581923 99.22827148 38.6015625 C106.55157619 45.81242971 112.77490335 53.44960476 118.27734375 62.12109375 C118.97214844 63.20519531 119.66695313 64.28929687 120.3828125 65.40625 C128.66377829 79.10107736 133.66601381 94.21820868 138.77734375 109.30859375 C144.0355606 124.73434192 149.61559206 138.60766672 160.27734375 151.12109375 C161.10298828 152.11496094 161.10298828 152.11496094 161.9453125 153.12890625 C177.45661721 170.21049119 203.2610892 174.96300809 225.27734375 176.12109375 C232.9418916 176.31670986 240.61085472 176.28646231 248.27734375 176.2890625 C250.52156596 176.29228331 252.76578797 176.29564798 255.01000977 176.29914856 C259.70345546 176.30511432 264.39688282 176.30699119 269.09033203 176.30639648 C275.04955917 176.30629523 281.0086662 176.31992128 286.96786499 176.33716869 C291.60268676 176.34839229 296.23748049 176.35031251 300.87231445 176.34978676 C303.06632906 176.35095234 305.26034475 176.35529223 307.4543457 176.36311913 C333.16100237 176.49389023 333.16100237 176.49389023 358.33984375 171.80859375 C359.11368408 171.59565674 359.88752441 171.38271973 360.68481445 171.16333008 C366.82561862 169.40835593 372.6229961 167.10709757 378.27734375 164.12109375 C378.09375 166.4609375 378.09375 166.4609375 377.27734375 169.12109375 C357.58054858 182.26416322 326.90376575 180.43578875 304.3984375 180.38671875 C302.16707823 180.38807161 299.93571924 180.39001726 297.70436096 180.39251709 C293.06467843 180.39543858 288.42507375 180.39126744 283.78540039 180.38183594 C277.89704159 180.37043662 272.00886513 180.37702321 266.12051296 180.38898087 C261.52430394 180.39627493 256.92813677 180.39387738 252.33192635 180.38872528 C250.16303548 180.38740989 247.99414056 180.38896056 245.82525444 180.39368439 C216.23926015 180.4440197 182.9635266 179.12419891 160.08984375 157.55859375 C154.53000491 151.65182097 150.23519411 145.15747362 146.27734375 138.12109375 C145.93461426 137.51507324 145.59188477 136.90905273 145.23876953 136.28466797 C139.47428635 125.80153173 136.29829522 114.79202152 133.13427734 103.29760742 C128.37758464 86.05313547 121.65305532 70.50916242 110.2734375 56.5390625 C109.27734375 55.12109375 109.27734375 55.12109375 109.27734375 53.12109375 C108.61734375 53.12109375 107.95734375 53.12109375 107.27734375 53.12109375 C106.05078125 51.6171875 106.05078125 51.6171875 104.65234375 49.55859375 C101.36557059 45.02731425 97.56058556 41.68234972 93.27734375 38.12109375 C91.98438121 36.9558634 90.69271555 35.78919242 89.40234375 34.62109375 C63.51508219 12.13873313 28.12056667 2.18175249 -5.76708984 4.24560547 C-34.53287477 6.28587075 -63.07037696 16.82598328 -84.72265625 36.12109375 C-85.98142578 37.18263672 -85.98142578 37.18263672 -87.265625 38.265625 C-108.65794714 56.67297196 -122.86155721 82.60331785 -129.08032227 109.94824219 C-133.27329756 128.25059061 -141.92686933 146.12738746 -155.72265625 159.12109375 C-156.71265625 159.45109375 -157.70265625 159.78109375 -158.72265625 160.12109375 C-158.72265625 160.78109375 -158.72265625 161.44109375 -158.72265625 162.12109375 C-185.67461892 178.40541302 -212.74095088 180.45400639 -243.6015625 180.38671875 C-245.83292177 180.38807161 -248.06428076 180.39001726 -250.29563904 180.39251709 C-254.93532157 180.39543858 -259.57492625 180.39126744 -264.21459961 180.38183594 C-270.10295841 180.37043662 -275.99113487 180.37702321 -281.87948704 180.38898087 C-286.47569606 180.39627493 -291.07186323 180.39387738 -295.66807365 180.38872528 C-297.83696452 180.38740989 -300.00585944 180.38896056 -302.17474556 180.39368439 C-352.4637722 180.47924224 -352.4637722 180.47924224 -370.72265625 169.12109375 C-371.5390625 166.96484375 -371.5390625 166.96484375 -371.72265625 165.12109375 C-370.56765625 165.51296875 -369.41265625 165.90484375 -368.22265625 166.30859375 C-366.38995763 166.91468306 -364.5565098 167.51850798 -362.72265625 168.12109375 C-361.48902344 168.53101563 -360.25539063 168.9409375 -358.984375 169.36328125 C-339.38534201 175.76845866 -320.18724982 176.28212166 -299.72265625 176.2890625 C-297.47843404 176.29228331 -295.23421203 176.29564798 -292.98999023 176.29914856 C-288.29654454 176.30511432 -283.60311718 176.30699119 -278.90966797 176.30639648 C-272.95044083 176.30629523 -266.9913338 176.31992128 -261.03213501 176.33716869 C-256.39731324 176.34839229 -251.76251951 176.35031251 -247.12768555 176.34978676 C-244.93367094 176.35095234 -242.73965525 176.35529223 -240.5456543 176.36311913 C-214.94600239 176.49956918 -214.94600239 176.49956918 -189.84765625 171.93359375 C-189.07429932 171.72001221 -188.30094238 171.50643066 -187.50415039 171.28637695 C-168.60551709 165.77939993 -153.43452087 154.29848717 -143.72436523 137.10327148 C-137.38582109 125.2311023 -133.3647809 112.19110199 -129.22265625 99.43359375 C-122.81869331 79.84179342 -114.1678178 62.85479344 -100.72265625 47.12109375 C-100.02527344 46.28964844 -99.32789063 45.45820312 -98.609375 44.6015625 C-75.88895865 18.32981997 -42.38834551 3.63134907 -8.22265625 0.37109375 C-5.48228633 0.21482787 -2.74201609 0.1219548 0 0 Z " fill="#718080" transform="translate(371.72265625,671.87890625)"/>
<path d="M0 0 C6.71749667 4.94532286 12.1426875 10.64209374 14 19 C14.75478789 26.99388988 13.99730099 33.02213312 10 40 C9.443125 41.051875 8.88625 42.10375 8.3125 43.1875 C3.98785402 48.44720457 -2.26788716 52.67997787 -9 54 C-17.00196504 54.73581288 -23.01274455 54.00267927 -30 50 C-31.051875 49.443125 -32.10375 48.88625 -33.1875 48.3125 C-38.96278922 43.56392887 -43.49895196 36.49778012 -44.3359375 28.984375 C-44.42441484 21.65845136 -43.70216948 16.34657626 -40 10 C-39.443125 8.948125 -38.88625 7.89625 -38.3125 6.8125 C-28.89837545 -4.63711094 -12.70335485 -8.06674861 0 0 Z " fill="#FC8042" transform="translate(492,264)"/>
<path d="M0 0 C1.61083139 1.49284056 3.21523782 2.99264993 4.8125 4.5 C5.54984375 5.17289063 6.2871875 5.84578125 7.046875 6.5390625 C26.30098135 24.76901426 36.93710533 49.3646312 45.47631836 73.95776367 C52.17279046 93.68988099 52.17279046 93.68988099 63.0703125 111.31640625 C64.8125 113.5 64.8125 113.5 64.8125 115.5 C65.4725 115.5 66.1325 115.5 66.8125 115.5 C67.3075 116.180625 67.8025 116.86125 68.3125 117.5625 C81.86843675 133.49072568 104.6070401 137.30436325 124.3059082 139.09851074 C133.40272424 139.82681785 142.5050467 139.78752467 151.625 139.765625 C153.65600633 139.76697829 155.68701234 139.76892428 157.71801758 139.77142334 C161.9399733 139.77434345 166.16184343 139.77017872 170.38378906 139.76074219 C175.73522257 139.74934967 181.08645529 139.75592606 186.43788147 139.76788712 C190.62147473 139.77519077 194.80502213 139.77277925 198.98861694 139.76763153 C200.95934067 139.76631841 202.93006887 139.76785837 204.90078735 139.77259064 C230.39976734 139.82041757 253.13320789 137.85766914 275.8125 125.5 C276.4725 125.17 277.1325 124.84 277.8125 124.5 C277.69921875 126.77734375 277.69921875 126.77734375 276.8125 129.5 C250.71665955 147.87789057 212.07838907 143.67244293 181.78613281 143.63037109 C177.64475421 143.62467428 173.50343983 143.62806374 169.36206341 143.63380432 C90.03981611 143.72764123 90.03981611 143.72764123 66.18359375 121.0546875 C53.00851662 106.85946437 46.82453408 88.90977265 40.52587891 70.95800781 C26.92912525 32.00832536 26.92912525 32.00832536 -1.1875 3.5 C-1.1875 2.84 -1.1875 2.18 -1.1875 1.5 C-2.01121094 1.13261719 -2.01121094 1.13261719 -2.8515625 0.7578125 C-5.68124655 -0.76586353 -8.03573265 -2.63819937 -10.5625 -4.625 C-41.36164626 -28.15768102 -80.75754112 -36.58737554 -118.89599609 -31.72583008 C-134.23918994 -29.37678154 -149.44391812 -24.71580001 -163.1875 -17.5 C-163.80544434 -17.18192383 -164.42338867 -16.86384766 -165.06005859 -16.53613281 C-204.66714474 4.00376461 -224.34605719 38.16148052 -238.30664062 79.23754883 C-245.92492041 101.50505074 -255.86355355 121.68515458 -277.4765625 133.26171875 C-305.06251034 145.8497892 -336.61964677 143.67143898 -366.21386719 143.63037109 C-370.35524579 143.62467428 -374.49656017 143.62806374 -378.63793659 143.63380432 C-454.50986936 143.72355956 -454.50986936 143.72355956 -472.1875 128.5 C-472.1875 127.51 -472.1875 126.52 -472.1875 125.5 C-468.46708466 126.92831302 -464.94420659 128.60643294 -461.375 130.375 C-441.00657301 139.73716936 -418.38468203 139.81847667 -396.375 139.765625 C-394.34399367 139.76697829 -392.31298766 139.76892428 -390.28198242 139.77142334 C-386.0600267 139.77434345 -381.83815657 139.77017872 -377.61621094 139.76074219 C-372.26477743 139.74934967 -366.91354471 139.75592606 -361.56211853 139.76788712 C-357.37852527 139.77519077 -353.19497787 139.77277925 -349.01138306 139.76763153 C-347.04065933 139.76631841 -345.06993113 139.76785837 -343.09921265 139.77259064 C-315.72598902 139.82393298 -286.29851792 138.67554991 -264.48828125 119.87109375 C-251.45173682 106.43614898 -245.47789045 89.65856965 -239.60012817 72.26431274 C-232.19794331 50.38578461 -222.76743684 31.44644178 -208.1875 13.5 C-207.24970703 12.33017578 -207.24970703 12.33017578 -206.29296875 11.13671875 C-204.98053171 9.5432733 -203.59353997 8.01149297 -202.1875 6.5 C-201.5275 6.5 -200.8675 6.5 -200.1875 6.5 C-199.8575 5.51 -199.5275 4.52 -199.1875 3.5 C-195.72328345 0.25948747 -191.93301742 -2.59260721 -188.1875 -5.5 C-187.30191406 -6.18835938 -186.41632813 -6.87671875 -185.50390625 -7.5859375 C-165.27029531 -22.79872671 -142.06748737 -31.62435927 -117.1875 -35.5 C-116.35476563 -35.63277344 -115.52203125 -35.76554688 -114.6640625 -35.90234375 C-73.42593298 -41.18371823 -30.90219696 -27.37867989 0 0 Z " fill="#4F5A5A" transform="translate(472.1875,699.5)"/>
<path d="M0 0 C0.71714172 -0.00067474 1.43428345 -0.00134949 2.17315674 -0.00204468 C13.27129734 0.01454285 23.88041162 0.5897537 34.6875 3.25 C35.42033203 3.42160645 36.15316406 3.59321289 36.90820312 3.77001953 C48.04982148 6.42267292 58.40284763 10.23075796 68.6875 15.25 C69.65647217 15.72010498 69.65647217 15.72010498 70.64501953 16.19970703 C85.97664505 23.74091918 101.19339179 34.48350488 112.6875 47.25 C112.6875 47.91 112.6875 48.57 112.6875 49.25 C113.3475 49.25 114.0075 49.25 114.6875 49.25 C131.31131273 68.18129718 141.22035119 89.7697631 149.6875 113.25 C157.87100331 135.63676095 166.01910046 156.23749535 188.48828125 167.67578125 C201.76968273 173.63921847 215.99043168 175.39454422 230.40771484 175.41113281 C231.9754364 175.41858017 231.9754364 175.41858017 233.5748291 175.42617798 C237.01603875 175.44072261 240.45720222 175.44759066 243.8984375 175.453125 C245.08221607 175.45595238 246.26599464 175.45877975 247.48564529 175.46169281 C253.75687125 175.47665848 260.02807437 175.48590304 266.29931641 175.49023438 C272.73196291 175.49569846 279.16439555 175.51969055 285.59697533 175.54820633 C290.58172179 175.56696848 295.56641828 175.5720456 300.55119705 175.57357025 C302.91991971 175.57656948 305.28864207 175.58450385 307.65732956 175.59775543 C332.58129277 175.72717951 354.33565805 173.76743431 374.6875 158.25 C374.6875 161.25 374.6875 161.25 373.2890625 162.6796875 C352.094992 178.17732799 326.99830974 178.57163284 301.75 178.515625 C299.57299761 178.5169767 297.39599551 178.5189214 295.21899414 178.52142334 C290.68405244 178.52435089 286.14919019 178.52015399 281.61425781 178.51074219 C275.84879732 178.4993492 270.08352315 178.50592148 264.31806946 178.51788712 C259.83091876 178.52517018 255.34381105 178.52278844 250.85665894 178.51763153 C248.73273699 178.51631279 246.60881093 178.51787919 244.4848938 178.52259064 C218.69976844 178.56725963 190.71128647 177.56961545 170.88305664 158.77319336 C157.35796992 145.10686436 151.49699858 126.47876928 145.25 108.75 C137.28192543 86.23954883 126.83167609 66.90873281 110.6875 49.25 C110.22118164 48.73840332 109.75486328 48.22680664 109.27441406 47.69970703 C81.9811013 18.16785558 43.47733231 3.95275521 3.90234375 2.12109375 C-37.47373131 1.24818077 -76.15067379 17.11782171 -106.2265625 45.1953125 C-127.14180592 65.79721894 -138.73612342 91.77061115 -148.02026367 119.1706543 C-155.18755699 140.27537488 -164.53178948 158.49765092 -185 169.5 C-204.26766401 178.54400555 -225.41599456 178.56184067 -246.25 178.515625 C-248.42700239 178.5169767 -250.60400449 178.5189214 -252.78100586 178.52142334 C-257.31594756 178.52435089 -261.85080981 178.52015399 -266.38574219 178.51074219 C-272.15120268 178.4993492 -277.91647685 178.50592148 -283.68193054 178.51788712 C-288.16908124 178.52517018 -292.65618895 178.52278844 -297.14334106 178.51763153 C-299.26726301 178.51631279 -301.39118907 178.51787919 -303.5151062 178.52259064 C-327.99603275 178.56500029 -355.50798655 178.19976284 -374.3125 160.25 C-373.8175 159.26 -373.8175 159.26 -373.3125 158.25 C-372.65765625 158.76949219 -372.0028125 159.28898438 -371.328125 159.82421875 C-355.44047601 171.96435731 -337.24168057 175.38852412 -317.59228516 175.41113281 C-316.0245636 175.41858017 -316.0245636 175.41858017 -314.4251709 175.42617798 C-310.98396125 175.44072261 -307.54279778 175.44759066 -304.1015625 175.453125 C-302.32589464 175.45736607 -302.32589464 175.45736607 -300.51435471 175.46169281 C-294.24312875 175.47665848 -287.97192563 175.48590304 -281.70068359 175.49023438 C-275.26803709 175.49569846 -268.83560445 175.51969055 -262.40302467 175.54820633 C-257.41827821 175.56696848 -252.43358172 175.5720456 -247.44880295 175.57357025 C-245.08008029 175.57656948 -242.71135793 175.58450385 -240.34267044 175.59775543 C-215.60872775 175.72619278 -190.38171525 174.37035972 -171.1875 156.6875 C-159.09214674 143.72819294 -153.36054745 127.40417377 -147.82543945 110.88793945 C-139.56504452 86.36573184 -127.70428514 65.33084858 -110.3125 46.25 C-109.58675781 45.44046875 -108.86101562 44.6309375 -108.11328125 43.796875 C-80.50755668 14.56109813 -39.50968019 0.03328865 0 0 Z " fill="#444444" transform="translate(374.3125,655.75)"/>
<path d="M0 0 C5.80152855 2.62629493 9.26157497 6.41244446 11.79296875 12.265625 C12.62399553 17.40924337 12.37683633 21.99328253 9.79296875 26.578125 C6.31128693 31.3861618 2.23417217 34.59817378 -3.6640625 35.7421875 C-9.98763116 36.11130518 -14.47708715 34.46030984 -19.20703125 30.265625 C-23.17123141 25.18331711 -24.64630111 21.03072138 -24.54296875 14.67578125 C-23.83527992 9.59852532 -21.1663293 6.02047456 -17.41015625 2.65625 C-11.85523346 -1.29885502 -6.494334 -2.16094654 0 0 Z " fill="#FC8041" transform="translate(326.20703125,236.734375)"/>
<path d="M0 0 C0 13.2 0 26.4 0 40 C-5.4753568 41.82511893 -10.87712063 41.82717072 -16.1875 39.4375 C-21.20069777 36.61570006 -24.46782159 32.57684551 -27.375 27.6875 C-28.92778077 21.01054268 -28.77652208 14.84743585 -25.3359375 8.8203125 C-19.74652376 1.20432769 -9.36763239 -4.68381619 0 0 Z " fill="#FC8042" transform="translate(750,657)"/>
<path d="M0 0 C3.42484369 2.28322912 4.97163392 4.19326784 6.8125 7.875 C7.46503816 13.09530531 6.62991128 16.44763942 3.8125 20.875 C0.57203856 23.81166818 -2.12264935 24.77454239 -6.5 25.1875 C-10.94636282 24.81068959 -12.82698122 23.77726622 -16.1875 20.875 C-19.097872 16.509442 -19.8381249 13.07999921 -19.1875 7.875 C-14.90138553 -0.37973899 -8.93720649 -3.15430817 0 0 Z " fill="#FC8041" transform="translate(325.1875,439.125)"/>
<path d="M0 0 C5.11570198 3.45012459 8.36350608 7.06367294 10.6875 12.8125 C10.6875 14.1325 10.6875 15.4525 10.6875 16.8125 C-1.8525 16.8125 -14.3925 16.8125 -27.3125 16.8125 C-26.20919734 9.08938135 -24.76433139 6.83451896 -19.3125 1.8125 C-13.47334902 -2.33978514 -6.60431774 -2.36758561 0 0 Z " fill="#FC7B3A" transform="translate(656.3125,305.1875)"/>
<path d="M0 0 C2.39986213 2.15767421 4.7278523 4.37362587 7.0546875 6.609375 C9.24236396 8.48862495 11.44358712 10.34950255 13.65625 12.19921875 C15.0546875 13.609375 15.0546875 13.609375 15.0546875 15.609375 C15.7146875 15.609375 16.3746875 15.609375 17.0546875 15.609375 C18.85625404 17.63234618 20.52712922 19.65649316 22.1796875 21.796875 C22.66598633 22.42239258 23.15228516 23.04791016 23.65332031 23.69238281 C28.21747104 29.65904342 32.70472721 35.86809689 36.0546875 42.609375 C35.7246875 43.269375 35.3946875 43.929375 35.0546875 44.609375 C34.425625 43.64257812 33.7965625 42.67578125 33.1484375 41.6796875 C25.123599 29.12373933 25.123599 29.12373933 15.33203125 17.96875 C14.0546875 16.609375 14.0546875 16.609375 14.0546875 14.609375 C13.3946875 14.609375 12.7346875 14.609375 12.0546875 14.609375 C12.0546875 13.949375 12.0546875 13.289375 12.0546875 12.609375 C11.49394531 12.3721875 10.93320312 12.135 10.35546875 11.890625 C7.53237426 10.31851126 5.56125638 8.36075984 3.2421875 6.109375 C-27.82079354 -22.79426012 -69.05036405 -29.74078838 -109.9453125 -28.390625 C-138.48360253 -26.49296164 -167.56654582 -13.04532303 -188.9453125 5.609375 C-189.90953125 6.44082031 -190.87375 7.27226563 -191.8671875 8.12890625 C-202.27109283 17.26841352 -210.53759396 27.39680095 -217.63525391 39.26635742 C-219.51133574 42.39846014 -221.29099752 45.10581411 -223.9453125 47.609375 C-220.09794476 34.4410648 -210.04300485 23.54363676 -200.9453125 13.609375 C-200.18347656 12.77535156 -199.42164063 11.94132813 -198.63671875 11.08203125 C-147.95813919 -41.82826558 -56.4096738 -45.78610128 0 0 Z " fill="#3F3F3F" transform="translate(467.9453125,691.390625)"/>
</svg>
